%TF.GenerationSoftware,KiCad,Pcbnew,9.0.0*%
%TF.CreationDate,2026-01-02T12:21:10+01:00*%
%TF.ProjectId,PowerSupply,506f7765-7253-4757-9070-6c792e6b6963,rev?*%
%TF.SameCoordinates,Original*%
%TF.FileFunction,Copper,L2,Bot*%
%TF.FilePolarity,Positive*%
%FSLAX46Y46*%
G04 Gerber Fmt 4.6, Leading zero omitted, Abs format (unit mm)*
G04 Created by KiCad (PCBNEW 9.0.0) date 2026-01-02 12:21:10*
%MOMM*%
%LPD*%
G01*
G04 APERTURE LIST*
%TA.AperFunction,ComponentPad*%
%ADD10R,1.700000X1.700000*%
%TD*%
%TA.AperFunction,ComponentPad*%
%ADD11O,1.700000X1.700000*%
%TD*%
%TA.AperFunction,ComponentPad*%
%ADD12O,2.200000X3.500000*%
%TD*%
%TA.AperFunction,ComponentPad*%
%ADD13R,1.500000X2.500000*%
%TD*%
%TA.AperFunction,ComponentPad*%
%ADD14O,1.500000X2.500000*%
%TD*%
%TA.AperFunction,ViaPad*%
%ADD15C,0.900000*%
%TD*%
%TA.AperFunction,ViaPad*%
%ADD16C,0.600000*%
%TD*%
%TA.AperFunction,Conductor*%
%ADD17C,0.500000*%
%TD*%
G04 APERTURE END LIST*
D10*
%TO.P,J2,1,Pin_1*%
%TO.N,+3.3V*%
X487650000Y-325605000D03*
D11*
%TO.P,J2,2,Pin_2*%
%TO.N,+5V*%
X490190000Y-325605000D03*
%TO.P,J2,3,Pin_3*%
%TO.N,/power SCL*%
X492730000Y-325605000D03*
%TO.P,J2,4,Pin_4*%
%TO.N,/power SDA*%
X495270000Y-325605000D03*
%TO.P,J2,5,Pin_5*%
%TO.N,/voltage Alert Pin*%
X497810000Y-325605000D03*
%TO.P,J2,6,Pin_6*%
%TO.N,GND*%
X500350000Y-325605000D03*
%TO.P,J2,7,Pin_7*%
X502890000Y-325605000D03*
%TD*%
D10*
%TO.P,J1,1,Pin_1*%
%TO.N,/1.8v out*%
X473860000Y-290680000D03*
D11*
%TO.P,J1,2,Pin_2*%
%TO.N,/2.8v out*%
X476400000Y-290680000D03*
%TO.P,J1,3,Pin_3*%
%TO.N,/1.5v out*%
X478940000Y-290680000D03*
%TO.P,J1,4,Pin_4*%
%TO.N,GND*%
X481480000Y-290680000D03*
%TO.P,J1,5,Pin_5*%
%TO.N,/CC2*%
X484020000Y-290680000D03*
%TO.P,J1,6,Pin_6*%
%TO.N,/CC1*%
X486560000Y-290680000D03*
%TO.P,J1,7,Pin_7*%
%TO.N,/USB+*%
X489100000Y-290680000D03*
%TD*%
D12*
%TO.P,SW1,*%
%TO.N,*%
X504960000Y-290880000D03*
X496760000Y-290880000D03*
D13*
%TO.P,SW1,1,A*%
%TO.N,GND*%
X502860000Y-290880000D03*
D14*
%TO.P,SW1,2,B*%
%TO.N,Net-(SW1A-B)*%
X500860000Y-290880000D03*
%TO.P,SW1,3*%
%TO.N,N/C*%
X498860000Y-290880000D03*
%TD*%
D15*
%TO.N,GND*%
X492140000Y-299520000D03*
X488545000Y-311580000D03*
D16*
X485280000Y-302480000D03*
D15*
X482885000Y-299680000D03*
X465645000Y-312200000D03*
X494410000Y-310235000D03*
X467245000Y-292240000D03*
X478565000Y-312245000D03*
X498275000Y-296460000D03*
X474010000Y-322425000D03*
X501885000Y-296130000D03*
X489350000Y-306135000D03*
X497300000Y-320215000D03*
D16*
X477630000Y-300375000D03*
D15*
X477910000Y-294345000D03*
X477480000Y-297735000D03*
X494720000Y-292240000D03*
X471090000Y-322725000D03*
X494205000Y-311705000D03*
X489365000Y-314120000D03*
D16*
X505925000Y-300515000D03*
D15*
X490530000Y-316775000D03*
X502620000Y-294095000D03*
X469130000Y-292275000D03*
X481138002Y-313029498D03*
D16*
X497605000Y-318265000D03*
D15*
X487950000Y-312890000D03*
X484090000Y-317230000D03*
D16*
X496065000Y-303380000D03*
D15*
X475885000Y-320820000D03*
X504130000Y-311640000D03*
X471395000Y-310825000D03*
X490840000Y-311935000D03*
X493680000Y-312995000D03*
X504560000Y-323150000D03*
X501240000Y-302630000D03*
X481100000Y-316450000D03*
D16*
X482140000Y-300295000D03*
D15*
X486990000Y-312525000D03*
X502175000Y-301360000D03*
X501370000Y-322900000D03*
X492065000Y-321455000D03*
D16*
X480450000Y-289565000D03*
D15*
X485480000Y-316135000D03*
X498625000Y-292880000D03*
X486540000Y-321140000D03*
X470750000Y-319210000D03*
D16*
X481235000Y-293915000D03*
D15*
X474980000Y-321625000D03*
%TO.N,/USB+*%
X496955000Y-296825000D03*
X494730000Y-296624998D03*
%TO.N,Net-(SW1A-B)*%
X480075000Y-305055000D03*
%TO.N,/1.5v out*%
X486543175Y-313723175D03*
%TO.N,/1.8v out*%
X475795000Y-311820000D03*
X477315000Y-311895000D03*
%TO.N,/2.8v out*%
X478005000Y-308345000D03*
%TD*%
D17*
%TO.N,/USB+*%
X496955000Y-296825000D02*
X496754998Y-296624998D01*
X496754998Y-296624998D02*
X494730000Y-296624998D01*
%TO.N,Net-(SW1A-B)*%
X500860000Y-290880000D02*
X500860000Y-292815000D01*
X500860000Y-292815000D02*
X499660000Y-294015000D01*
X499660000Y-294015000D02*
X491955000Y-294015000D01*
X480915000Y-305055000D02*
X480075000Y-305055000D01*
X491955000Y-294015000D02*
X480915000Y-305055000D01*
%TO.N,/1.5v out*%
X478940000Y-306120000D02*
X486543175Y-313723175D01*
X478940000Y-290680000D02*
X478940000Y-306120000D01*
%TO.N,/1.8v out*%
X477116497Y-311895000D02*
X475795000Y-310573503D01*
X475795000Y-310573503D02*
X475795000Y-309630000D01*
X475795000Y-309630000D02*
X473860000Y-307695000D01*
X473860000Y-307695000D02*
X473860000Y-290680000D01*
X475795000Y-311820000D02*
X475795000Y-309630000D01*
X477315000Y-311895000D02*
X477116497Y-311895000D01*
%TO.N,/2.8v out*%
X476400000Y-306740000D02*
X478005000Y-308345000D01*
X476400000Y-290680000D02*
X476400000Y-306740000D01*
%TD*%
%TA.AperFunction,Conductor*%
%TO.N,GND*%
G36*
X502424075Y-325412007D02*
G01*
X502390000Y-325539174D01*
X502390000Y-325670826D01*
X502424075Y-325797993D01*
X502456988Y-325855000D01*
X500783012Y-325855000D01*
X500815925Y-325797993D01*
X500850000Y-325670826D01*
X500850000Y-325539174D01*
X500815925Y-325412007D01*
X500783012Y-325355000D01*
X502456988Y-325355000D01*
X502424075Y-325412007D01*
G37*
%TD.AperFunction*%
%TA.AperFunction,Conductor*%
G36*
X495538728Y-288975185D02*
G01*
X495584483Y-289027989D01*
X495594427Y-289097147D01*
X495565402Y-289160703D01*
X495559370Y-289167181D01*
X495539205Y-289187345D01*
X495539201Y-289187350D01*
X495391132Y-289391151D01*
X495276760Y-289615616D01*
X495198910Y-289855214D01*
X495159500Y-290104038D01*
X495159500Y-291655961D01*
X495198910Y-291904785D01*
X495276760Y-292144383D01*
X495308999Y-292207654D01*
X495373286Y-292333825D01*
X495391132Y-292368848D01*
X495539201Y-292572649D01*
X495539205Y-292572654D01*
X495717345Y-292750794D01*
X495717350Y-292750798D01*
X495895117Y-292879952D01*
X495921155Y-292898870D01*
X496064184Y-292971747D01*
X496145616Y-293013239D01*
X496145618Y-293013239D01*
X496145621Y-293013241D01*
X496174332Y-293022569D01*
X496232006Y-293062007D01*
X496259204Y-293126366D01*
X496247289Y-293195212D01*
X496200045Y-293246688D01*
X496136012Y-293264500D01*
X491881076Y-293264500D01*
X491852242Y-293270234D01*
X491852243Y-293270235D01*
X491736093Y-293293339D01*
X491736083Y-293293342D01*
X491656081Y-293326479D01*
X491656082Y-293326480D01*
X491599502Y-293349917D01*
X491550269Y-293382813D01*
X491476588Y-293432044D01*
X491476580Y-293432050D01*
X480699529Y-304209101D01*
X480638206Y-304242586D01*
X480568514Y-304237602D01*
X480542959Y-304224523D01*
X480525231Y-304212678D01*
X480525229Y-304212677D01*
X480352251Y-304141027D01*
X480352243Y-304141025D01*
X480168620Y-304104500D01*
X480168616Y-304104500D01*
X479981384Y-304104500D01*
X479933150Y-304114094D01*
X479838690Y-304132883D01*
X479769099Y-304126655D01*
X479713922Y-304083791D01*
X479690678Y-304017901D01*
X479690500Y-304011265D01*
X479690500Y-291867220D01*
X479710185Y-291800181D01*
X479741614Y-291766902D01*
X479819792Y-291710104D01*
X479970104Y-291559792D01*
X479970106Y-291559788D01*
X479970109Y-291559786D01*
X480095048Y-291387820D01*
X480095051Y-291387816D01*
X480099793Y-291378508D01*
X480147763Y-291327711D01*
X480215583Y-291310911D01*
X480281719Y-291333445D01*
X480320763Y-291378500D01*
X480325377Y-291387555D01*
X480450272Y-291559459D01*
X480450276Y-291559464D01*
X480600535Y-291709723D01*
X480600540Y-291709727D01*
X480772442Y-291834620D01*
X480961782Y-291931095D01*
X481163871Y-291996757D01*
X481230000Y-292007231D01*
X481230000Y-291113012D01*
X481287007Y-291145925D01*
X481414174Y-291180000D01*
X481545826Y-291180000D01*
X481672993Y-291145925D01*
X481730000Y-291113012D01*
X481730000Y-292007230D01*
X481796126Y-291996757D01*
X481796129Y-291996757D01*
X481998217Y-291931095D01*
X482187557Y-291834620D01*
X482359459Y-291709727D01*
X482359464Y-291709723D01*
X482509723Y-291559464D01*
X482509727Y-291559459D01*
X482634620Y-291387558D01*
X482639232Y-291378507D01*
X482687205Y-291327709D01*
X482755025Y-291310912D01*
X482821161Y-291333447D01*
X482860204Y-291378504D01*
X482864949Y-291387817D01*
X482989890Y-291559786D01*
X483140213Y-291710109D01*
X483312179Y-291835048D01*
X483312181Y-291835049D01*
X483312184Y-291835051D01*
X483501588Y-291931557D01*
X483703757Y-291997246D01*
X483913713Y-292030500D01*
X483913714Y-292030500D01*
X484126286Y-292030500D01*
X484126287Y-292030500D01*
X484336243Y-291997246D01*
X484538412Y-291931557D01*
X484727816Y-291835051D01*
X484814138Y-291772335D01*
X484899786Y-291710109D01*
X484899788Y-291710106D01*
X484899792Y-291710104D01*
X485050104Y-291559792D01*
X485050106Y-291559788D01*
X485050109Y-291559786D01*
X485175048Y-291387820D01*
X485175047Y-291387820D01*
X485175051Y-291387816D01*
X485179514Y-291379054D01*
X485227488Y-291328259D01*
X485295308Y-291311463D01*
X485361444Y-291333999D01*
X485400486Y-291379056D01*
X485404951Y-291387820D01*
X485529890Y-291559786D01*
X485680213Y-291710109D01*
X485852179Y-291835048D01*
X485852181Y-291835049D01*
X485852184Y-291835051D01*
X486041588Y-291931557D01*
X486243757Y-291997246D01*
X486453713Y-292030500D01*
X486453714Y-292030500D01*
X486666286Y-292030500D01*
X486666287Y-292030500D01*
X486876243Y-291997246D01*
X487078412Y-291931557D01*
X487267816Y-291835051D01*
X487354138Y-291772335D01*
X487439786Y-291710109D01*
X487439788Y-291710106D01*
X487439792Y-291710104D01*
X487590104Y-291559792D01*
X487590106Y-291559788D01*
X487590109Y-291559786D01*
X487715048Y-291387820D01*
X487715047Y-291387820D01*
X487715051Y-291387816D01*
X487719514Y-291379054D01*
X487767488Y-291328259D01*
X487835308Y-291311463D01*
X487901444Y-291333999D01*
X487940486Y-291379056D01*
X487944951Y-291387820D01*
X488069890Y-291559786D01*
X488220213Y-291710109D01*
X488392179Y-291835048D01*
X488392181Y-291835049D01*
X488392184Y-291835051D01*
X488581588Y-291931557D01*
X488783757Y-291997246D01*
X488993713Y-292030500D01*
X488993714Y-292030500D01*
X489206286Y-292030500D01*
X489206287Y-292030500D01*
X489416243Y-291997246D01*
X489618412Y-291931557D01*
X489807816Y-291835051D01*
X489894138Y-291772335D01*
X489979786Y-291710109D01*
X489979788Y-291710106D01*
X489979792Y-291710104D01*
X490130104Y-291559792D01*
X490130106Y-291559788D01*
X490130109Y-291559786D01*
X490255048Y-291387820D01*
X490255047Y-291387820D01*
X490255051Y-291387816D01*
X490351557Y-291198412D01*
X490417246Y-290996243D01*
X490450500Y-290786287D01*
X490450500Y-290573713D01*
X490417246Y-290363757D01*
X490351557Y-290161588D01*
X490255051Y-289972184D01*
X490255049Y-289972181D01*
X490255048Y-289972179D01*
X490130109Y-289800213D01*
X489979786Y-289649890D01*
X489807820Y-289524951D01*
X489618414Y-289428444D01*
X489618413Y-289428443D01*
X489618412Y-289428443D01*
X489416243Y-289362754D01*
X489416241Y-289362753D01*
X489416240Y-289362753D01*
X489254120Y-289337076D01*
X489206287Y-289329500D01*
X488993713Y-289329500D01*
X488945880Y-289337076D01*
X488783760Y-289362753D01*
X488581585Y-289428444D01*
X488392179Y-289524951D01*
X488220213Y-289649890D01*
X488069890Y-289800213D01*
X487944949Y-289972182D01*
X487940484Y-289980946D01*
X487892509Y-290031742D01*
X487824688Y-290048536D01*
X487758553Y-290025998D01*
X487719516Y-289980946D01*
X487715050Y-289972182D01*
X487590109Y-289800213D01*
X487439786Y-289649890D01*
X487267820Y-289524951D01*
X487078414Y-289428444D01*
X487078413Y-289428443D01*
X487078412Y-289428443D01*
X486876243Y-289362754D01*
X486876241Y-289362753D01*
X486876240Y-289362753D01*
X486714120Y-289337076D01*
X486666287Y-289329500D01*
X486453713Y-289329500D01*
X486405880Y-289337076D01*
X486243760Y-289362753D01*
X486041585Y-289428444D01*
X485852179Y-289524951D01*
X485680213Y-289649890D01*
X485529890Y-289800213D01*
X485404949Y-289972182D01*
X485400484Y-289980946D01*
X485352509Y-290031742D01*
X485284688Y-290048536D01*
X485218553Y-290025998D01*
X485179516Y-289980946D01*
X485175050Y-289972182D01*
X485050109Y-289800213D01*
X484899786Y-289649890D01*
X484727820Y-289524951D01*
X484538414Y-289428444D01*
X484538413Y-289428443D01*
X484538412Y-289428443D01*
X484336243Y-289362754D01*
X484336241Y-289362753D01*
X484336240Y-289362753D01*
X484174120Y-289337076D01*
X484126287Y-289329500D01*
X483913713Y-289329500D01*
X483865880Y-289337076D01*
X483703760Y-289362753D01*
X483501585Y-289428444D01*
X483312179Y-289524951D01*
X483140213Y-289649890D01*
X482989890Y-289800213D01*
X482864949Y-289972182D01*
X482860202Y-289981499D01*
X482812227Y-290032293D01*
X482744405Y-290049087D01*
X482678271Y-290026548D01*
X482639234Y-289981495D01*
X482634622Y-289972444D01*
X482509727Y-289800540D01*
X482509723Y-289800535D01*
X482359464Y-289650276D01*
X482359459Y-289650272D01*
X482187557Y-289525379D01*
X481998215Y-289428903D01*
X481796124Y-289363241D01*
X481730000Y-289352768D01*
X481730000Y-290246988D01*
X481672993Y-290214075D01*
X481545826Y-290180000D01*
X481414174Y-290180000D01*
X481287007Y-290214075D01*
X481230000Y-290246988D01*
X481230000Y-289352768D01*
X481229999Y-289352768D01*
X481163875Y-289363241D01*
X480961784Y-289428903D01*
X480772442Y-289525379D01*
X480600540Y-289650272D01*
X480600535Y-289650276D01*
X480450276Y-289800535D01*
X480450272Y-289800540D01*
X480325378Y-289972443D01*
X480320762Y-289981502D01*
X480272784Y-290032295D01*
X480204963Y-290049087D01*
X480138829Y-290026546D01*
X480099794Y-289981493D01*
X480095051Y-289972184D01*
X480095049Y-289972181D01*
X480095048Y-289972179D01*
X479970109Y-289800213D01*
X479819786Y-289649890D01*
X479647820Y-289524951D01*
X479458414Y-289428444D01*
X479458413Y-289428443D01*
X479458412Y-289428443D01*
X479256243Y-289362754D01*
X479256241Y-289362753D01*
X479256240Y-289362753D01*
X479094120Y-289337076D01*
X479046287Y-289329500D01*
X478833713Y-289329500D01*
X478785880Y-289337076D01*
X478623760Y-289362753D01*
X478421585Y-289428444D01*
X478232179Y-289524951D01*
X478060213Y-289649890D01*
X477909890Y-289800213D01*
X477784949Y-289972182D01*
X477780484Y-289980946D01*
X477732509Y-290031742D01*
X477664688Y-290048536D01*
X477598553Y-290025998D01*
X477559516Y-289980946D01*
X477555050Y-289972182D01*
X477430109Y-289800213D01*
X477279786Y-289649890D01*
X477107820Y-289524951D01*
X476918414Y-289428444D01*
X476918413Y-289428443D01*
X476918412Y-289428443D01*
X476716243Y-289362754D01*
X476716241Y-289362753D01*
X476716240Y-289362753D01*
X476554120Y-289337076D01*
X476506287Y-289329500D01*
X476293713Y-289329500D01*
X476245880Y-289337076D01*
X476083760Y-289362753D01*
X475881585Y-289428444D01*
X475692179Y-289524951D01*
X475520215Y-289649889D01*
X475406673Y-289763431D01*
X475345350Y-289796915D01*
X475275658Y-289791931D01*
X475219725Y-289750059D01*
X475202810Y-289719082D01*
X475153797Y-289587671D01*
X475153793Y-289587664D01*
X475067547Y-289472455D01*
X475067544Y-289472452D01*
X474952335Y-289386206D01*
X474952328Y-289386202D01*
X474817482Y-289335908D01*
X474817483Y-289335908D01*
X474757883Y-289329501D01*
X474757881Y-289329500D01*
X474757873Y-289329500D01*
X474757864Y-289329500D01*
X472962129Y-289329500D01*
X472962123Y-289329501D01*
X472902516Y-289335908D01*
X472767671Y-289386202D01*
X472767664Y-289386206D01*
X472652455Y-289472452D01*
X472652452Y-289472455D01*
X472566206Y-289587664D01*
X472566202Y-289587671D01*
X472515908Y-289722517D01*
X472509501Y-289782116D01*
X472509500Y-289782135D01*
X472509500Y-291577870D01*
X472509501Y-291577876D01*
X472515908Y-291637483D01*
X472566202Y-291772328D01*
X472566206Y-291772335D01*
X472652452Y-291887544D01*
X472652455Y-291887547D01*
X472767664Y-291973793D01*
X472767671Y-291973797D01*
X472812618Y-291990561D01*
X472902517Y-292024091D01*
X472962127Y-292030500D01*
X472985497Y-292030499D01*
X473052536Y-292050181D01*
X473098292Y-292102983D01*
X473109500Y-292154499D01*
X473109500Y-307768918D01*
X473109500Y-307768920D01*
X473109499Y-307768920D01*
X473138340Y-307913907D01*
X473138343Y-307913917D01*
X473194913Y-308050490D01*
X473194915Y-308050493D01*
X473206447Y-308067753D01*
X473206446Y-308067753D01*
X473277046Y-308173414D01*
X473277052Y-308173421D01*
X475008181Y-309904548D01*
X475041666Y-309965871D01*
X475044500Y-309992229D01*
X475044500Y-311194732D01*
X475024815Y-311261771D01*
X475023602Y-311263622D01*
X474952678Y-311369767D01*
X474881027Y-311542748D01*
X474881025Y-311542756D01*
X474844500Y-311726379D01*
X474844500Y-311913620D01*
X474881025Y-312097243D01*
X474881027Y-312097251D01*
X474952676Y-312270228D01*
X474952681Y-312270237D01*
X475056697Y-312425907D01*
X475056700Y-312425911D01*
X475189088Y-312558299D01*
X475189092Y-312558302D01*
X475344762Y-312662318D01*
X475344768Y-312662321D01*
X475344769Y-312662322D01*
X475517749Y-312733973D01*
X475701379Y-312770499D01*
X475701383Y-312770500D01*
X475701384Y-312770500D01*
X475888617Y-312770500D01*
X475888618Y-312770499D01*
X476072251Y-312733973D01*
X476245231Y-312662322D01*
X476400908Y-312558302D01*
X476429818Y-312529390D01*
X476491137Y-312495907D01*
X476560829Y-312500889D01*
X476605180Y-312529391D01*
X476709088Y-312633299D01*
X476709092Y-312633302D01*
X476864762Y-312737318D01*
X476864768Y-312737321D01*
X476864769Y-312737322D01*
X477037749Y-312808973D01*
X477221379Y-312845499D01*
X477221383Y-312845500D01*
X477221384Y-312845500D01*
X477408617Y-312845500D01*
X477408618Y-312845499D01*
X477592251Y-312808973D01*
X477765231Y-312737322D01*
X477920908Y-312633302D01*
X478053302Y-312500908D01*
X478157322Y-312345231D01*
X478228973Y-312172251D01*
X478265500Y-311988616D01*
X478265500Y-311801384D01*
X478228973Y-311617749D01*
X478157322Y-311444769D01*
X478157321Y-311444768D01*
X478157318Y-311444762D01*
X478053302Y-311289092D01*
X478053299Y-311289088D01*
X477920911Y-311156700D01*
X477920907Y-311156697D01*
X477765237Y-311052681D01*
X477765228Y-311052676D01*
X477592251Y-310981027D01*
X477592243Y-310981025D01*
X477408620Y-310944500D01*
X477408616Y-310944500D01*
X477278727Y-310944500D01*
X477211688Y-310924815D01*
X477191046Y-310908181D01*
X476581819Y-310298954D01*
X476548334Y-310237631D01*
X476545500Y-310211273D01*
X476545500Y-309556079D01*
X476516659Y-309411092D01*
X476516658Y-309411091D01*
X476516658Y-309411087D01*
X476516656Y-309411082D01*
X476460087Y-309274511D01*
X476460080Y-309274498D01*
X476377952Y-309151585D01*
X476377951Y-309151584D01*
X476273416Y-309047049D01*
X474646819Y-307420451D01*
X474613334Y-307359128D01*
X474610500Y-307332770D01*
X474610500Y-292154499D01*
X474630185Y-292087460D01*
X474682989Y-292041705D01*
X474734500Y-292030499D01*
X474757871Y-292030499D01*
X474757872Y-292030499D01*
X474817483Y-292024091D01*
X474952331Y-291973796D01*
X475067546Y-291887546D01*
X475153796Y-291772331D01*
X475202810Y-291640916D01*
X475244681Y-291584984D01*
X475310145Y-291560566D01*
X475378418Y-291575417D01*
X475406673Y-291596569D01*
X475520208Y-291710104D01*
X475598384Y-291766902D01*
X475641051Y-291822231D01*
X475649500Y-291867220D01*
X475649500Y-306813918D01*
X475649500Y-306813920D01*
X475649499Y-306813920D01*
X475678340Y-306958907D01*
X475678343Y-306958917D01*
X475734913Y-307095490D01*
X475734914Y-307095492D01*
X475757450Y-307129219D01*
X475757451Y-307129221D01*
X475817043Y-307218410D01*
X475817047Y-307218415D01*
X477032185Y-308433553D01*
X477065670Y-308494876D01*
X477066121Y-308497043D01*
X477091025Y-308622243D01*
X477091027Y-308622251D01*
X477162676Y-308795228D01*
X477162681Y-308795237D01*
X477266697Y-308950907D01*
X477266700Y-308950911D01*
X477399088Y-309083299D01*
X477399092Y-309083302D01*
X477554762Y-309187318D01*
X477554768Y-309187321D01*
X477554769Y-309187322D01*
X477727749Y-309258973D01*
X477911379Y-309295499D01*
X477911383Y-309295500D01*
X477911384Y-309295500D01*
X478098617Y-309295500D01*
X478098618Y-309295499D01*
X478282251Y-309258973D01*
X478455231Y-309187322D01*
X478610908Y-309083302D01*
X478743302Y-308950908D01*
X478847322Y-308795231D01*
X478918973Y-308622251D01*
X478955500Y-308438616D01*
X478955500Y-308251384D01*
X478918973Y-308067749D01*
X478847322Y-307894769D01*
X478847321Y-307894768D01*
X478847318Y-307894762D01*
X478743302Y-307739092D01*
X478743299Y-307739088D01*
X478610911Y-307606700D01*
X478610907Y-307606697D01*
X478455237Y-307502681D01*
X478455228Y-307502676D01*
X478282251Y-307431027D01*
X478282243Y-307431025D01*
X478157043Y-307406121D01*
X478095132Y-307373736D01*
X478093553Y-307372185D01*
X477186819Y-306465451D01*
X477153334Y-306404128D01*
X477150500Y-306377770D01*
X477150500Y-291867220D01*
X477170185Y-291800181D01*
X477201614Y-291766902D01*
X477279792Y-291710104D01*
X477430104Y-291559792D01*
X477430106Y-291559788D01*
X477430109Y-291559786D01*
X477555048Y-291387820D01*
X477555047Y-291387820D01*
X477555051Y-291387816D01*
X477559514Y-291379054D01*
X477607488Y-291328259D01*
X477675308Y-291311463D01*
X477741444Y-291333999D01*
X477780486Y-291379056D01*
X477784951Y-291387820D01*
X477909890Y-291559786D01*
X477909896Y-291559792D01*
X478060208Y-291710104D01*
X478138384Y-291766902D01*
X478181051Y-291822231D01*
X478189500Y-291867220D01*
X478189500Y-306193918D01*
X478189500Y-306193920D01*
X478189499Y-306193920D01*
X478218340Y-306338907D01*
X478218343Y-306338917D01*
X478274914Y-306475491D01*
X478274916Y-306475495D01*
X478305380Y-306521088D01*
X478305379Y-306521088D01*
X478357046Y-306598414D01*
X478357052Y-306598421D01*
X485570360Y-313811727D01*
X485603845Y-313873050D01*
X485604296Y-313875217D01*
X485629200Y-314000418D01*
X485629202Y-314000426D01*
X485700851Y-314173403D01*
X485700856Y-314173412D01*
X485804872Y-314329082D01*
X485804875Y-314329086D01*
X485937263Y-314461474D01*
X485937267Y-314461477D01*
X486092937Y-314565493D01*
X486092943Y-314565496D01*
X486092944Y-314565497D01*
X486265924Y-314637148D01*
X486449554Y-314673674D01*
X486449558Y-314673675D01*
X486449559Y-314673675D01*
X486636792Y-314673675D01*
X486636793Y-314673674D01*
X486820426Y-314637148D01*
X486993406Y-314565497D01*
X487149083Y-314461477D01*
X487281477Y-314329083D01*
X487385497Y-314173406D01*
X487457148Y-314000426D01*
X487493675Y-313816791D01*
X487493675Y-313629559D01*
X487457148Y-313445924D01*
X487385497Y-313272944D01*
X487385496Y-313272943D01*
X487385493Y-313272937D01*
X487281477Y-313117267D01*
X487281474Y-313117263D01*
X487149086Y-312984875D01*
X487149082Y-312984872D01*
X486993412Y-312880856D01*
X486993403Y-312880851D01*
X486820426Y-312809202D01*
X486820418Y-312809200D01*
X486695217Y-312784296D01*
X486633306Y-312751911D01*
X486631727Y-312750360D01*
X483292449Y-309411082D01*
X480409016Y-306527648D01*
X483129500Y-306527648D01*
X483129500Y-306732351D01*
X483161522Y-306934534D01*
X483208374Y-307078729D01*
X483213822Y-307095495D01*
X483224781Y-307129221D01*
X483317715Y-307311613D01*
X483438028Y-307477213D01*
X483582786Y-307621971D01*
X483737749Y-307734556D01*
X483748390Y-307742287D01*
X483864607Y-307801503D01*
X483930776Y-307835218D01*
X483930778Y-307835218D01*
X483930781Y-307835220D01*
X484035137Y-307869127D01*
X484125465Y-307898477D01*
X484222886Y-307913907D01*
X484327648Y-307930500D01*
X484327649Y-307930500D01*
X484532351Y-307930500D01*
X484532352Y-307930500D01*
X484734534Y-307898477D01*
X484929219Y-307835220D01*
X485111610Y-307742287D01*
X485204590Y-307674732D01*
X485277213Y-307621971D01*
X485277215Y-307621968D01*
X485277219Y-307621966D01*
X485421966Y-307477219D01*
X485421968Y-307477215D01*
X485421971Y-307477213D01*
X485526913Y-307332770D01*
X485542287Y-307311610D01*
X485635220Y-307129219D01*
X485698477Y-306934534D01*
X485730500Y-306732352D01*
X485730500Y-306527648D01*
X485706761Y-306377770D01*
X485698477Y-306325465D01*
X485635218Y-306130776D01*
X485583462Y-306029200D01*
X485542287Y-305948390D01*
X485505185Y-305897323D01*
X485421971Y-305782786D01*
X485277213Y-305638028D01*
X485111613Y-305517715D01*
X485111612Y-305517714D01*
X485111610Y-305517713D01*
X485054653Y-305488691D01*
X484929223Y-305424781D01*
X484734534Y-305361522D01*
X484559995Y-305333878D01*
X484532352Y-305329500D01*
X484327648Y-305329500D01*
X484303329Y-305333351D01*
X484125465Y-305361522D01*
X483930776Y-305424781D01*
X483748386Y-305517715D01*
X483582786Y-305638028D01*
X483438028Y-305782786D01*
X483317715Y-305948386D01*
X483224781Y-306130776D01*
X483161522Y-306325465D01*
X483129500Y-306527648D01*
X480409016Y-306527648D01*
X480097513Y-306216145D01*
X480064030Y-306154825D01*
X480069014Y-306085133D01*
X480110886Y-306029200D01*
X480163087Y-306008932D01*
X480162641Y-306006689D01*
X480250210Y-305989269D01*
X480352251Y-305968973D01*
X480525231Y-305897322D01*
X480631376Y-305826397D01*
X480698053Y-305805520D01*
X480700267Y-305805500D01*
X480988920Y-305805500D01*
X481103131Y-305782781D01*
X481133913Y-305776658D01*
X481270495Y-305720084D01*
X481329735Y-305680501D01*
X481393416Y-305637952D01*
X490499991Y-296531377D01*
X493779500Y-296531377D01*
X493779500Y-296718618D01*
X493816025Y-296902241D01*
X493816027Y-296902249D01*
X493887676Y-297075226D01*
X493887681Y-297075235D01*
X493991697Y-297230905D01*
X493991700Y-297230909D01*
X494124088Y-297363297D01*
X494124092Y-297363300D01*
X494279762Y-297467316D01*
X494279768Y-297467319D01*
X494279769Y-297467320D01*
X494452749Y-297538971D01*
X494636379Y-297575497D01*
X494636383Y-297575498D01*
X494636384Y-297575498D01*
X494823617Y-297575498D01*
X494823618Y-297575497D01*
X495007251Y-297538971D01*
X495180231Y-297467320D01*
X495286376Y-297396395D01*
X495353053Y-297375518D01*
X495355267Y-297375498D01*
X496113395Y-297375498D01*
X496180434Y-297395183D01*
X496212384Y-297426569D01*
X496212834Y-297426200D01*
X496216266Y-297430382D01*
X496216501Y-297430613D01*
X496216699Y-297430910D01*
X496349088Y-297563299D01*
X496349092Y-297563302D01*
X496504762Y-297667318D01*
X496504768Y-297667321D01*
X496504769Y-297667322D01*
X496677749Y-297738973D01*
X496861379Y-297775499D01*
X496861383Y-297775500D01*
X496861384Y-297775500D01*
X497048617Y-297775500D01*
X497048618Y-297775499D01*
X497232251Y-297738973D01*
X497405231Y-297667322D01*
X497560908Y-297563302D01*
X497693302Y-297430908D01*
X497797322Y-297275231D01*
X497868973Y-297102251D01*
X497905500Y-296918616D01*
X497905500Y-296731384D01*
X497868973Y-296547749D01*
X497797322Y-296374769D01*
X497797321Y-296374768D01*
X497797318Y-296374762D01*
X497693302Y-296219092D01*
X497693299Y-296219088D01*
X497560911Y-296086700D01*
X497560907Y-296086697D01*
X497405237Y-295982681D01*
X497405228Y-295982676D01*
X497232251Y-295911027D01*
X497232243Y-295911025D01*
X497048620Y-295874500D01*
X497048616Y-295874500D01*
X496861384Y-295874500D01*
X496861379Y-295874500D01*
X496857304Y-295874901D01*
X496833019Y-295874901D01*
X496828923Y-295874498D01*
X496828916Y-295874498D01*
X495355267Y-295874498D01*
X495288228Y-295854813D01*
X495286376Y-295853600D01*
X495180236Y-295782679D01*
X495180228Y-295782674D01*
X495007251Y-295711025D01*
X495007243Y-295711023D01*
X494823620Y-295674498D01*
X494823616Y-295674498D01*
X494636384Y-295674498D01*
X494636379Y-295674498D01*
X494452756Y-295711023D01*
X494452748Y-295711025D01*
X494279771Y-295782674D01*
X494279762Y-295782679D01*
X494124092Y-295886695D01*
X494124088Y-295886698D01*
X493991700Y-296019086D01*
X493991697Y-296019090D01*
X493887681Y-296174760D01*
X493887676Y-296174769D01*
X493816027Y-296347746D01*
X493816025Y-296347754D01*
X493779500Y-296531377D01*
X490499991Y-296531377D01*
X492229549Y-294801819D01*
X492290872Y-294768334D01*
X492317230Y-294765500D01*
X499733920Y-294765500D01*
X499831462Y-294746096D01*
X499878913Y-294736658D01*
X500015495Y-294680084D01*
X500064729Y-294647186D01*
X500138416Y-294597952D01*
X501442951Y-293293416D01*
X501525084Y-293170495D01*
X501581658Y-293033913D01*
X501591096Y-292986462D01*
X501610500Y-292888920D01*
X501610500Y-292628377D01*
X501630185Y-292561338D01*
X501682989Y-292515583D01*
X501752147Y-292505639D01*
X501808812Y-292529111D01*
X501867910Y-292573352D01*
X501867913Y-292573354D01*
X502002620Y-292623596D01*
X502002627Y-292623598D01*
X502062155Y-292629999D01*
X502062172Y-292630000D01*
X502610000Y-292630000D01*
X502610000Y-291255277D01*
X502686306Y-291299333D01*
X502800756Y-291330000D01*
X502919244Y-291330000D01*
X503033694Y-291299333D01*
X503110000Y-291255277D01*
X503110000Y-292630000D01*
X503657828Y-292630000D01*
X503657841Y-292629999D01*
X503724096Y-292622875D01*
X503792856Y-292635279D01*
X503825034Y-292658483D01*
X503917345Y-292750794D01*
X503917350Y-292750798D01*
X504095117Y-292879952D01*
X504121155Y-292898870D01*
X504264184Y-292971747D01*
X504345616Y-293013239D01*
X504345618Y-293013239D01*
X504345621Y-293013241D01*
X504585215Y-293091090D01*
X504834038Y-293130500D01*
X504834039Y-293130500D01*
X505085961Y-293130500D01*
X505085962Y-293130500D01*
X505334785Y-293091090D01*
X505574379Y-293013241D01*
X505798845Y-292898870D01*
X506002656Y-292750793D01*
X506180793Y-292572656D01*
X506328870Y-292368845D01*
X506443241Y-292144379D01*
X506521090Y-291904785D01*
X506560500Y-291655962D01*
X506560500Y-290104038D01*
X506521090Y-289855215D01*
X506443241Y-289615621D01*
X506443239Y-289615618D01*
X506443239Y-289615616D01*
X506370294Y-289472455D01*
X506328870Y-289391155D01*
X506298746Y-289349693D01*
X506180798Y-289187350D01*
X506180794Y-289187345D01*
X506160630Y-289167181D01*
X506127145Y-289105858D01*
X506132129Y-289036166D01*
X506174001Y-288980233D01*
X506239465Y-288955816D01*
X506248311Y-288955500D01*
X506685500Y-288955500D01*
X506752539Y-288975185D01*
X506798294Y-289027989D01*
X506809500Y-289079500D01*
X506809516Y-327635572D01*
X506789831Y-327702611D01*
X506737028Y-327748366D01*
X506685531Y-327759572D01*
X465259789Y-327764426D01*
X465192747Y-327744749D01*
X465146986Y-327691951D01*
X465135774Y-327640368D01*
X465136187Y-326759620D01*
X465137150Y-324707135D01*
X486299500Y-324707135D01*
X486299500Y-326502870D01*
X486299501Y-326502876D01*
X486305908Y-326562483D01*
X486356202Y-326697328D01*
X486356206Y-326697335D01*
X486442452Y-326812544D01*
X486442455Y-326812547D01*
X486557664Y-326898793D01*
X486557671Y-326898797D01*
X486692517Y-326949091D01*
X486692516Y-326949091D01*
X486699444Y-326949835D01*
X486752127Y-326955500D01*
X488547872Y-326955499D01*
X488607483Y-326949091D01*
X488742331Y-326898796D01*
X488857546Y-326812546D01*
X488943796Y-326697331D01*
X488992810Y-326565916D01*
X489034681Y-326509984D01*
X489100145Y-326485566D01*
X489168418Y-326500417D01*
X489196673Y-326521569D01*
X489310213Y-326635109D01*
X489482179Y-326760048D01*
X489482181Y-326760049D01*
X489482184Y-326760051D01*
X489671588Y-326856557D01*
X489873757Y-326922246D01*
X490083713Y-326955500D01*
X490083714Y-326955500D01*
X490296286Y-326955500D01*
X490296287Y-326955500D01*
X490506243Y-326922246D01*
X490708412Y-326856557D01*
X490897816Y-326760051D01*
X490984138Y-326697335D01*
X491069786Y-326635109D01*
X491069788Y-326635106D01*
X491069792Y-326635104D01*
X491220104Y-326484792D01*
X491220106Y-326484788D01*
X491220109Y-326484786D01*
X491345048Y-326312820D01*
X491345047Y-326312820D01*
X491345051Y-326312816D01*
X491349514Y-326304054D01*
X491397488Y-326253259D01*
X491465308Y-326236463D01*
X491531444Y-326258999D01*
X491570486Y-326304056D01*
X491574951Y-326312820D01*
X491699890Y-326484786D01*
X491850213Y-326635109D01*
X492022179Y-326760048D01*
X492022181Y-326760049D01*
X492022184Y-326760051D01*
X492211588Y-326856557D01*
X492413757Y-326922246D01*
X492623713Y-326955500D01*
X492623714Y-326955500D01*
X492836286Y-326955500D01*
X492836287Y-326955500D01*
X493046243Y-326922246D01*
X493248412Y-326856557D01*
X493437816Y-326760051D01*
X493524138Y-326697335D01*
X493609786Y-326635109D01*
X493609788Y-326635106D01*
X493609792Y-326635104D01*
X493760104Y-326484792D01*
X493760106Y-326484788D01*
X493760109Y-326484786D01*
X493885048Y-326312820D01*
X493885047Y-326312820D01*
X493885051Y-326312816D01*
X493889514Y-326304054D01*
X493937488Y-326253259D01*
X494005308Y-326236463D01*
X494071444Y-326258999D01*
X494110486Y-326304056D01*
X494114951Y-326312820D01*
X494239890Y-326484786D01*
X494390213Y-326635109D01*
X494562179Y-326760048D01*
X494562181Y-326760049D01*
X494562184Y-326760051D01*
X494751588Y-326856557D01*
X494953757Y-326922246D01*
X495163713Y-326955500D01*
X495163714Y-326955500D01*
X495376286Y-326955500D01*
X495376287Y-326955500D01*
X495586243Y-326922246D01*
X495788412Y-326856557D01*
X495977816Y-326760051D01*
X496064138Y-326697335D01*
X496149786Y-326635109D01*
X496149788Y-326635106D01*
X496149792Y-326635104D01*
X496300104Y-326484792D01*
X496300106Y-326484788D01*
X496300109Y-326484786D01*
X496425048Y-326312820D01*
X496425047Y-326312820D01*
X496425051Y-326312816D01*
X496429514Y-326304054D01*
X496477488Y-326253259D01*
X496545308Y-326236463D01*
X496611444Y-326258999D01*
X496650486Y-326304056D01*
X496654951Y-326312820D01*
X496779890Y-326484786D01*
X496930213Y-326635109D01*
X497102179Y-326760048D01*
X497102181Y-326760049D01*
X497102184Y-326760051D01*
X497291588Y-326856557D01*
X497493757Y-326922246D01*
X497703713Y-326955500D01*
X497703714Y-326955500D01*
X497916286Y-326955500D01*
X497916287Y-326955500D01*
X498126243Y-326922246D01*
X498328412Y-326856557D01*
X498517816Y-326760051D01*
X498604138Y-326697335D01*
X498689786Y-326635109D01*
X498689788Y-326635106D01*
X498689792Y-326635104D01*
X498840104Y-326484792D01*
X498840106Y-326484788D01*
X498840109Y-326484786D01*
X498965048Y-326312820D01*
X498965051Y-326312816D01*
X498969793Y-326303508D01*
X499017763Y-326252711D01*
X499085583Y-326235911D01*
X499151719Y-326258445D01*
X499190763Y-326303500D01*
X499195377Y-326312555D01*
X499320272Y-326484459D01*
X499320276Y-326484464D01*
X499470535Y-326634723D01*
X499470540Y-326634727D01*
X499642442Y-326759620D01*
X499831782Y-326856095D01*
X500033871Y-326921757D01*
X500100000Y-326932231D01*
X500100000Y-326038012D01*
X500157007Y-326070925D01*
X500284174Y-326105000D01*
X500415826Y-326105000D01*
X500542993Y-326070925D01*
X500600000Y-326038012D01*
X500600000Y-326932230D01*
X500666126Y-326921757D01*
X500666129Y-326921757D01*
X500868217Y-326856095D01*
X501057557Y-326759620D01*
X501229459Y-326634727D01*
X501229464Y-326634723D01*
X501379723Y-326484464D01*
X501379727Y-326484459D01*
X501504620Y-326312558D01*
X501509514Y-326302954D01*
X501557488Y-326252157D01*
X501625308Y-326235361D01*
X501691444Y-326257897D01*
X501730486Y-326302954D01*
X501735379Y-326312558D01*
X501860272Y-326484459D01*
X501860276Y-326484464D01*
X502010535Y-326634723D01*
X502010540Y-326634727D01*
X502182442Y-326759620D01*
X502371782Y-326856095D01*
X502573871Y-326921757D01*
X502640000Y-326932231D01*
X502640000Y-326038012D01*
X502697007Y-326070925D01*
X502824174Y-326105000D01*
X502955826Y-326105000D01*
X503082993Y-326070925D01*
X503140000Y-326038012D01*
X503140000Y-326932230D01*
X503206126Y-326921757D01*
X503206129Y-326921757D01*
X503408217Y-326856095D01*
X503597557Y-326759620D01*
X503769459Y-326634727D01*
X503769464Y-326634723D01*
X503919723Y-326484464D01*
X503919727Y-326484459D01*
X504044620Y-326312557D01*
X504141095Y-326123217D01*
X504206757Y-325921129D01*
X504206757Y-325921126D01*
X504217231Y-325855000D01*
X503323012Y-325855000D01*
X503355925Y-325797993D01*
X503390000Y-325670826D01*
X503390000Y-325539174D01*
X503355925Y-325412007D01*
X503323012Y-325355000D01*
X504217231Y-325355000D01*
X504206757Y-325288873D01*
X504206757Y-325288870D01*
X504141095Y-325086782D01*
X504044620Y-324897442D01*
X503919727Y-324725540D01*
X503919723Y-324725535D01*
X503769464Y-324575276D01*
X503769459Y-324575272D01*
X503597557Y-324450379D01*
X503408215Y-324353903D01*
X503206124Y-324288241D01*
X503140000Y-324277768D01*
X503140000Y-325171988D01*
X503082993Y-325139075D01*
X502955826Y-325105000D01*
X502824174Y-325105000D01*
X502697007Y-325139075D01*
X502640000Y-325171988D01*
X502640000Y-324277768D01*
X502639999Y-324277768D01*
X502573875Y-324288241D01*
X502371784Y-324353903D01*
X502182442Y-324450379D01*
X502010540Y-324575272D01*
X502010535Y-324575276D01*
X501860276Y-324725535D01*
X501860272Y-324725540D01*
X501735377Y-324897444D01*
X501730484Y-324907048D01*
X501682509Y-324957844D01*
X501614688Y-324974638D01*
X501548553Y-324952100D01*
X501509516Y-324907048D01*
X501504622Y-324897444D01*
X501379727Y-324725540D01*
X501379723Y-324725535D01*
X501229464Y-324575276D01*
X501229459Y-324575272D01*
X501057557Y-324450379D01*
X500868215Y-324353903D01*
X500666124Y-324288241D01*
X500600000Y-324277768D01*
X500600000Y-325171988D01*
X500542993Y-325139075D01*
X500415826Y-325105000D01*
X500284174Y-325105000D01*
X500157007Y-325139075D01*
X500100000Y-325171988D01*
X500100000Y-324277768D01*
X500099999Y-324277768D01*
X500033875Y-324288241D01*
X499831784Y-324353903D01*
X499642442Y-324450379D01*
X499470540Y-324575272D01*
X499470535Y-324575276D01*
X499320276Y-324725535D01*
X499320272Y-324725540D01*
X499195378Y-324897443D01*
X499190762Y-324906502D01*
X499142784Y-324957295D01*
X499074963Y-324974087D01*
X499008829Y-324951546D01*
X498969794Y-324906493D01*
X498965051Y-324897184D01*
X498965049Y-324897181D01*
X498965048Y-324897179D01*
X498840109Y-324725213D01*
X498689786Y-324574890D01*
X498517820Y-324449951D01*
X498328414Y-324353444D01*
X498328413Y-324353443D01*
X498328412Y-324353443D01*
X498126243Y-324287754D01*
X498126241Y-324287753D01*
X498126240Y-324287753D01*
X497964957Y-324262208D01*
X497916287Y-324254500D01*
X497703713Y-324254500D01*
X497655042Y-324262208D01*
X497493760Y-324287753D01*
X497291585Y-324353444D01*
X497102179Y-324449951D01*
X496930213Y-324574890D01*
X496779890Y-324725213D01*
X496654949Y-324897182D01*
X496650484Y-324905946D01*
X496602509Y-324956742D01*
X496534688Y-324973536D01*
X496468553Y-324950998D01*
X496429516Y-324905946D01*
X496425050Y-324897182D01*
X496300109Y-324725213D01*
X496149786Y-324574890D01*
X495977820Y-324449951D01*
X495788414Y-324353444D01*
X495788413Y-324353443D01*
X495788412Y-324353443D01*
X495586243Y-324287754D01*
X495586241Y-324287753D01*
X495586240Y-324287753D01*
X495424957Y-324262208D01*
X495376287Y-324254500D01*
X495163713Y-324254500D01*
X495115042Y-324262208D01*
X494953760Y-324287753D01*
X494751585Y-324353444D01*
X494562179Y-324449951D01*
X494390213Y-324574890D01*
X494239890Y-324725213D01*
X494114949Y-324897182D01*
X494110484Y-324905946D01*
X494062509Y-324956742D01*
X493994688Y-324973536D01*
X493928553Y-324950998D01*
X493889516Y-324905946D01*
X493885050Y-324897182D01*
X493760109Y-324725213D01*
X493609786Y-324574890D01*
X493437820Y-324449951D01*
X493248414Y-324353444D01*
X493248413Y-324353443D01*
X493248412Y-324353443D01*
X493046243Y-324287754D01*
X493046241Y-324287753D01*
X493046240Y-324287753D01*
X492884957Y-324262208D01*
X492836287Y-324254500D01*
X492623713Y-324254500D01*
X492575042Y-324262208D01*
X492413760Y-324287753D01*
X492211585Y-324353444D01*
X492022179Y-324449951D01*
X491850213Y-324574890D01*
X491699890Y-324725213D01*
X491574949Y-324897182D01*
X491570484Y-324905946D01*
X491522509Y-324956742D01*
X491454688Y-324973536D01*
X491388553Y-324950998D01*
X491349516Y-324905946D01*
X491345050Y-324897182D01*
X491220109Y-324725213D01*
X491069786Y-324574890D01*
X490897820Y-324449951D01*
X490708414Y-324353444D01*
X490708413Y-324353443D01*
X490708412Y-324353443D01*
X490506243Y-324287754D01*
X490506241Y-324287753D01*
X490506240Y-324287753D01*
X490344957Y-324262208D01*
X490296287Y-324254500D01*
X490083713Y-324254500D01*
X490035042Y-324262208D01*
X489873760Y-324287753D01*
X489671585Y-324353444D01*
X489482179Y-324449951D01*
X489310215Y-324574889D01*
X489196673Y-324688431D01*
X489135350Y-324721915D01*
X489065658Y-324716931D01*
X489009725Y-324675059D01*
X488992810Y-324644082D01*
X488943797Y-324512671D01*
X488943793Y-324512664D01*
X488857547Y-324397455D01*
X488857544Y-324397452D01*
X488742335Y-324311206D01*
X488742328Y-324311202D01*
X488607482Y-324260908D01*
X488607483Y-324260908D01*
X488547883Y-324254501D01*
X488547881Y-324254500D01*
X488547873Y-324254500D01*
X488547864Y-324254500D01*
X486752129Y-324254500D01*
X486752123Y-324254501D01*
X486692516Y-324260908D01*
X486557671Y-324311202D01*
X486557664Y-324311206D01*
X486442455Y-324397452D01*
X486442452Y-324397455D01*
X486356206Y-324512664D01*
X486356202Y-324512671D01*
X486305908Y-324647517D01*
X486299501Y-324707116D01*
X486299500Y-324707135D01*
X465137150Y-324707135D01*
X465152313Y-292380433D01*
X465153861Y-289079442D01*
X465173577Y-289012412D01*
X465226402Y-288966681D01*
X465277861Y-288955500D01*
X495471689Y-288955500D01*
X495538728Y-288975185D01*
G37*
%TD.AperFunction*%
%TA.AperFunction,Conductor*%
G36*
X499903334Y-292207654D02*
G01*
X499947681Y-292236155D01*
X500045354Y-292333828D01*
X500059648Y-292344213D01*
X500060859Y-292345140D01*
X500080618Y-292372127D01*
X500101050Y-292398622D01*
X500101406Y-292400518D01*
X500102135Y-292401514D01*
X500102394Y-292405782D01*
X500109500Y-292443613D01*
X500109500Y-292452770D01*
X500105983Y-292464744D01*
X500106380Y-292471255D01*
X500101527Y-292479922D01*
X500089815Y-292519809D01*
X500073181Y-292540451D01*
X499385451Y-293228181D01*
X499324128Y-293261666D01*
X499297770Y-293264500D01*
X497383988Y-293264500D01*
X497316949Y-293244815D01*
X497271194Y-293192011D01*
X497261250Y-293122853D01*
X497290275Y-293059297D01*
X497345667Y-293022569D01*
X497374379Y-293013241D01*
X497598845Y-292898870D01*
X497802656Y-292750793D01*
X497980793Y-292572656D01*
X498044298Y-292485247D01*
X498099628Y-292442581D01*
X498169241Y-292436602D01*
X498200912Y-292447647D01*
X498204593Y-292449522D01*
X498204595Y-292449524D01*
X498247245Y-292471255D01*
X498379970Y-292538882D01*
X498379972Y-292538882D01*
X498379975Y-292538884D01*
X498449081Y-292561338D01*
X498567173Y-292599709D01*
X498761578Y-292630500D01*
X498761583Y-292630500D01*
X498958422Y-292630500D01*
X499152826Y-292599709D01*
X499340025Y-292538884D01*
X499515405Y-292449524D01*
X499674646Y-292333828D01*
X499772319Y-292236155D01*
X499833642Y-292202670D01*
X499903334Y-292207654D01*
G37*
%TD.AperFunction*%
%TD*%
M02*
