%TF.GenerationSoftware,KiCad,Pcbnew,9.0.0*%
%TF.CreationDate,2026-01-02T12:40:45+01:00*%
%TF.ProjectId,camera,63616d65-7261-42e6-9b69-6361645f7063,rev?*%
%TF.SameCoordinates,Original*%
%TF.FileFunction,Paste,Bot*%
%TF.FilePolarity,Positive*%
%FSLAX46Y46*%
G04 Gerber Fmt 4.6, Leading zero omitted, Abs format (unit mm)*
G04 Created by KiCad (PCBNEW 9.0.0) date 2026-01-02 12:40:45*
%MOMM*%
%LPD*%
G01*
G04 APERTURE LIST*
G04 Aperture macros list*
%AMRoundRect*
0 Rectangle with rounded corners*
0 $1 Rounding radius*
0 $2 $3 $4 $5 $6 $7 $8 $9 X,Y pos of 4 corners*
0 Add a 4 corners polygon primitive as box body*
4,1,4,$2,$3,$4,$5,$6,$7,$8,$9,$2,$3,0*
0 Add four circle primitives for the rounded corners*
1,1,$1+$1,$2,$3*
1,1,$1+$1,$4,$5*
1,1,$1+$1,$6,$7*
1,1,$1+$1,$8,$9*
0 Add four rect primitives between the rounded corners*
20,1,$1+$1,$2,$3,$4,$5,0*
20,1,$1+$1,$4,$5,$6,$7,0*
20,1,$1+$1,$6,$7,$8,$9,0*
20,1,$1+$1,$8,$9,$2,$3,0*%
G04 Aperture macros list end*
%ADD10RoundRect,0.237500X-0.250000X-0.237500X0.250000X-0.237500X0.250000X0.237500X-0.250000X0.237500X0*%
%ADD11RoundRect,0.140000X0.021213X-0.219203X0.219203X-0.021213X-0.021213X0.219203X-0.219203X0.021213X0*%
%ADD12RoundRect,0.200000X-0.200000X-0.275000X0.200000X-0.275000X0.200000X0.275000X-0.200000X0.275000X0*%
%ADD13RoundRect,0.140000X0.140000X0.170000X-0.140000X0.170000X-0.140000X-0.170000X0.140000X-0.170000X0*%
%ADD14RoundRect,0.250000X-0.475000X0.250000X-0.475000X-0.250000X0.475000X-0.250000X0.475000X0.250000X0*%
%ADD15RoundRect,0.250000X-0.625000X0.312500X-0.625000X-0.312500X0.625000X-0.312500X0.625000X0.312500X0*%
%ADD16R,1.050000X0.950000*%
%ADD17RoundRect,0.140000X-0.140000X-0.170000X0.140000X-0.170000X0.140000X0.170000X-0.140000X0.170000X0*%
%ADD18RoundRect,0.200000X0.200000X0.275000X-0.200000X0.275000X-0.200000X-0.275000X0.200000X-0.275000X0*%
%ADD19RoundRect,0.140000X-0.170000X0.140000X-0.170000X-0.140000X0.170000X-0.140000X0.170000X0.140000X0*%
%ADD20RoundRect,0.237500X0.250000X0.237500X-0.250000X0.237500X-0.250000X-0.237500X0.250000X-0.237500X0*%
%ADD21RoundRect,0.250000X-0.159099X0.512652X-0.512652X0.159099X0.159099X-0.512652X0.512652X-0.159099X0*%
%ADD22R,0.300000X0.800000*%
%ADD23R,1.100000X2.200000*%
%ADD24R,1.300000X3.050000*%
%ADD25R,0.300000X0.850000*%
%ADD26R,0.850000X0.300000*%
%ADD27R,3.400000X3.400000*%
%ADD28RoundRect,0.375000X-0.625000X-0.375000X0.625000X-0.375000X0.625000X0.375000X-0.625000X0.375000X0*%
%ADD29RoundRect,0.500000X-0.500000X-1.400000X0.500000X-1.400000X0.500000X1.400000X-0.500000X1.400000X0*%
%ADD30RoundRect,0.200000X0.335876X0.053033X0.053033X0.335876X-0.335876X-0.053033X-0.053033X-0.335876X0*%
%ADD31RoundRect,0.200000X0.053033X-0.335876X0.335876X-0.053033X-0.053033X0.335876X-0.335876X0.053033X0*%
%ADD32RoundRect,0.150000X-0.512500X-0.150000X0.512500X-0.150000X0.512500X0.150000X-0.512500X0.150000X0*%
%ADD33RoundRect,0.150000X0.150000X-0.512500X0.150000X0.512500X-0.150000X0.512500X-0.150000X-0.512500X0*%
%ADD34R,1.400000X1.200000*%
%ADD35RoundRect,0.200000X0.275000X-0.200000X0.275000X0.200000X-0.275000X0.200000X-0.275000X-0.200000X0*%
%ADD36RoundRect,0.250000X-0.262500X-0.450000X0.262500X-0.450000X0.262500X0.450000X-0.262500X0.450000X0*%
%ADD37RoundRect,0.140000X0.170000X-0.140000X0.170000X0.140000X-0.170000X0.140000X-0.170000X-0.140000X0*%
%ADD38RoundRect,0.375000X0.625000X0.375000X-0.625000X0.375000X-0.625000X-0.375000X0.625000X-0.375000X0*%
%ADD39RoundRect,0.500000X0.500000X1.400000X-0.500000X1.400000X-0.500000X-1.400000X0.500000X-1.400000X0*%
%ADD40RoundRect,0.150000X-0.256326X-0.468458X0.468458X0.256326X0.256326X0.468458X-0.468458X-0.256326X0*%
G04 APERTURE END LIST*
D10*
%TO.C,R59*%
X112972500Y-15188899D03*
X114797500Y-15188899D03*
%TD*%
D11*
%TO.C,C136*%
X113855000Y4825000D03*
X114533822Y5503822D03*
%TD*%
D12*
%TO.C,R27*%
X102175000Y-10590000D03*
X103825000Y-10590000D03*
%TD*%
D13*
%TO.C,C32*%
X79920000Y-49715000D03*
X78960000Y-49715000D03*
%TD*%
D14*
%TO.C,C132*%
X141435000Y8195000D03*
X141435000Y6295000D03*
%TD*%
D15*
%TO.C,R52*%
X169871101Y-31678118D03*
X169871101Y-34603118D03*
%TD*%
%TO.C,R36*%
X142022500Y-31410000D03*
X142022500Y-34335000D03*
%TD*%
D14*
%TO.C,C97*%
X120843899Y-26603899D03*
X120843899Y-28503899D03*
%TD*%
%TO.C,C131*%
X139400000Y8255000D03*
X139400000Y6355000D03*
%TD*%
D16*
%TO.C,Y6*%
X77225000Y-27385000D03*
X79075000Y-27385000D03*
X79075000Y-28835000D03*
X77225000Y-28835000D03*
%TD*%
D14*
%TO.C,C74*%
X151686399Y-25751399D03*
X151686399Y-27651399D03*
%TD*%
D17*
%TO.C,C13*%
X98060000Y-1035000D03*
X99020000Y-1035000D03*
%TD*%
D18*
%TO.C,R61*%
X157420000Y-4435000D03*
X155770000Y-4435000D03*
%TD*%
D19*
%TO.C,C133*%
X142515000Y12170000D03*
X142515000Y11210000D03*
%TD*%
D17*
%TO.C,C101*%
X169435000Y-49645000D03*
X170395000Y-49645000D03*
%TD*%
D20*
%TO.C,R56*%
X176858601Y-14604517D03*
X175033601Y-14604517D03*
%TD*%
D21*
%TO.C,C135*%
X116966751Y5126751D03*
X115623249Y3783249D03*
%TD*%
D22*
%TO.C,J15*%
X123910000Y10020000D03*
X124410000Y10020000D03*
X124910000Y10020000D03*
X125410000Y10020000D03*
X125910000Y10020000D03*
X126410000Y10020000D03*
X126910000Y10020000D03*
X127410000Y10020000D03*
X127910000Y10020000D03*
X128410000Y10020000D03*
X128910000Y10020000D03*
X129410000Y10020000D03*
X129910000Y10020000D03*
X130410000Y10020000D03*
X130910000Y10020000D03*
X131410000Y10020000D03*
X131910000Y10020000D03*
X132410000Y10020000D03*
X132910000Y10020000D03*
X133410000Y10020000D03*
X133910000Y10020000D03*
X134410000Y10020000D03*
X134910000Y10020000D03*
X135410000Y10020000D03*
D23*
X120810000Y11520000D03*
X138510000Y11520000D03*
D24*
X122010000Y11945000D03*
X137310000Y11945000D03*
%TD*%
D17*
%TO.C,C78*%
X111840000Y-49765000D03*
X112800000Y-49765000D03*
%TD*%
D20*
%TO.C,R53*%
X90282500Y-15138899D03*
X88457500Y-15138899D03*
%TD*%
D25*
%TO.C,IC3*%
X141307500Y-24312500D03*
X141807500Y-24312500D03*
X142307500Y-24312500D03*
X142807500Y-24312500D03*
X143307500Y-24312500D03*
X143807500Y-24312500D03*
X144307500Y-24312500D03*
X144807500Y-24312500D03*
D26*
X145507500Y-25012500D03*
X145507500Y-25512500D03*
X145507500Y-26012500D03*
X145507500Y-26512500D03*
X145507500Y-27012500D03*
X145507500Y-27512500D03*
X145507500Y-28012500D03*
X145507500Y-28512500D03*
D25*
X144807500Y-29212500D03*
X144307500Y-29212500D03*
X143807500Y-29212500D03*
X143307500Y-29212500D03*
X142807500Y-29212500D03*
X142307500Y-29212500D03*
X141807500Y-29212500D03*
X141307500Y-29212500D03*
D26*
X140607500Y-28512500D03*
X140607500Y-28012500D03*
X140607500Y-27512500D03*
X140607500Y-27012500D03*
X140607500Y-26512500D03*
X140607500Y-26012500D03*
X140607500Y-25512500D03*
X140607500Y-25012500D03*
D27*
X143057500Y-26762500D03*
%TD*%
D16*
%TO.C,Y15*%
X163801101Y-26850618D03*
X165651101Y-26850618D03*
X165651101Y-28300618D03*
X163801101Y-28300618D03*
%TD*%
D14*
%TO.C,C96*%
X108565000Y-20630000D03*
X108565000Y-22530000D03*
%TD*%
%TO.C,C119*%
X167256101Y-20045618D03*
X167256101Y-21945618D03*
%TD*%
D20*
%TO.C,R54*%
X149010000Y-14336399D03*
X147185000Y-14336399D03*
%TD*%
D17*
%TO.C,C8*%
X89155000Y-100000D03*
X90115000Y-100000D03*
%TD*%
D20*
%TO.C,R55*%
X118167500Y-15188899D03*
X116342500Y-15188899D03*
%TD*%
D14*
%TO.C,C51*%
X92958899Y-26553899D03*
X92958899Y-28453899D03*
%TD*%
%TO.C,C134*%
X140685000Y13225000D03*
X140685000Y11325000D03*
%TD*%
D28*
%TO.C,U5*%
X94350000Y2535000D03*
X94350000Y4835000D03*
X94350000Y7135000D03*
D29*
X100650000Y4835000D03*
%TD*%
D17*
%TO.C,C55*%
X142260000Y-49120000D03*
X143220000Y-49120000D03*
%TD*%
D25*
%TO.C,IC2*%
X82580000Y-25115000D03*
X83080000Y-25115000D03*
X83580000Y-25115000D03*
X84080000Y-25115000D03*
X84580000Y-25115000D03*
X85080000Y-25115000D03*
X85580000Y-25115000D03*
X86080000Y-25115000D03*
D26*
X86780000Y-25815000D03*
X86780000Y-26315000D03*
X86780000Y-26815000D03*
X86780000Y-27315000D03*
X86780000Y-27815000D03*
X86780000Y-28315000D03*
X86780000Y-28815000D03*
X86780000Y-29315000D03*
D25*
X86080000Y-30015000D03*
X85580000Y-30015000D03*
X85080000Y-30015000D03*
X84580000Y-30015000D03*
X84080000Y-30015000D03*
X83580000Y-30015000D03*
X83080000Y-30015000D03*
X82580000Y-30015000D03*
D26*
X81880000Y-29315000D03*
X81880000Y-28815000D03*
X81880000Y-28315000D03*
X81880000Y-27815000D03*
X81880000Y-27315000D03*
X81880000Y-26815000D03*
X81880000Y-26315000D03*
X81880000Y-25815000D03*
D27*
X84330000Y-27565000D03*
%TD*%
D10*
%TO.C,R60*%
X171663601Y-14604517D03*
X173488601Y-14604517D03*
%TD*%
D18*
%TO.C,R42*%
X106455000Y-25430000D03*
X104805000Y-25430000D03*
%TD*%
D16*
%TO.C,Y9*%
X135952500Y-26582500D03*
X137802500Y-26582500D03*
X137802500Y-28032500D03*
X135952500Y-28032500D03*
%TD*%
D18*
%TO.C,R34*%
X137297500Y-24577500D03*
X135647500Y-24577500D03*
%TD*%
D25*
%TO.C,IC5*%
X169156101Y-24580618D03*
X169656101Y-24580618D03*
X170156101Y-24580618D03*
X170656101Y-24580618D03*
X171156101Y-24580618D03*
X171656101Y-24580618D03*
X172156101Y-24580618D03*
X172656101Y-24580618D03*
D26*
X173356101Y-25280618D03*
X173356101Y-25780618D03*
X173356101Y-26280618D03*
X173356101Y-26780618D03*
X173356101Y-27280618D03*
X173356101Y-27780618D03*
X173356101Y-28280618D03*
X173356101Y-28780618D03*
D25*
X172656101Y-29480618D03*
X172156101Y-29480618D03*
X171656101Y-29480618D03*
X171156101Y-29480618D03*
X170656101Y-29480618D03*
X170156101Y-29480618D03*
X169656101Y-29480618D03*
X169156101Y-29480618D03*
D26*
X168456101Y-28780618D03*
X168456101Y-28280618D03*
X168456101Y-27780618D03*
X168456101Y-27280618D03*
X168456101Y-26780618D03*
X168456101Y-26280618D03*
X168456101Y-25780618D03*
X168456101Y-25280618D03*
D27*
X170906101Y-27030618D03*
%TD*%
D13*
%TO.C,C130*%
X133725000Y8385000D03*
X132765000Y8385000D03*
%TD*%
D30*
%TO.C,R62*%
X141775000Y-7780000D03*
X140608274Y-6613274D03*
%TD*%
D10*
%TO.C,R57*%
X85087500Y-15138899D03*
X86912500Y-15138899D03*
%TD*%
D14*
%TO.C,C73*%
X139407500Y-19777500D03*
X139407500Y-21677500D03*
%TD*%
D25*
%TO.C,IC4*%
X110465000Y-25165000D03*
X110965000Y-25165000D03*
X111465000Y-25165000D03*
X111965000Y-25165000D03*
X112465000Y-25165000D03*
X112965000Y-25165000D03*
X113465000Y-25165000D03*
X113965000Y-25165000D03*
D26*
X114665000Y-25865000D03*
X114665000Y-26365000D03*
X114665000Y-26865000D03*
X114665000Y-27365000D03*
X114665000Y-27865000D03*
X114665000Y-28365000D03*
X114665000Y-28865000D03*
X114665000Y-29365000D03*
D25*
X113965000Y-30065000D03*
X113465000Y-30065000D03*
X112965000Y-30065000D03*
X112465000Y-30065000D03*
X111965000Y-30065000D03*
X111465000Y-30065000D03*
X110965000Y-30065000D03*
X110465000Y-30065000D03*
D26*
X109765000Y-29365000D03*
X109765000Y-28865000D03*
X109765000Y-28365000D03*
X109765000Y-27865000D03*
X109765000Y-27365000D03*
X109765000Y-26865000D03*
X109765000Y-26365000D03*
X109765000Y-25865000D03*
D27*
X112215000Y-27615000D03*
%TD*%
D19*
%TO.C,C9*%
X92575000Y-4095000D03*
X92575000Y-5055000D03*
%TD*%
D17*
%TO.C,C11*%
X96635000Y9440000D03*
X97595000Y9440000D03*
%TD*%
D31*
%TO.C,R64*%
X120021637Y-5548363D03*
X121188363Y-4381637D03*
%TD*%
D10*
%TO.C,R58*%
X143815000Y-14336399D03*
X145640000Y-14336399D03*
%TD*%
D18*
%TO.C,R50*%
X165146101Y-24845618D03*
X163496101Y-24845618D03*
%TD*%
D16*
%TO.C,Y12*%
X105110000Y-27435000D03*
X106960000Y-27435000D03*
X106960000Y-28885000D03*
X105110000Y-28885000D03*
%TD*%
D18*
%TO.C,R26*%
X78570000Y-25380000D03*
X76920000Y-25380000D03*
%TD*%
D32*
%TO.C,U6*%
X93917500Y-2902500D03*
X93917500Y-1952500D03*
X93917500Y-1002500D03*
X96192500Y-1002500D03*
X96192500Y-2902500D03*
%TD*%
D14*
%TO.C,C120*%
X179535000Y-26019517D03*
X179535000Y-27919517D03*
%TD*%
%TO.C,C50*%
X80680000Y-20580000D03*
X80680000Y-22480000D03*
%TD*%
D33*
%TO.C,U7*%
X124099999Y-15367500D03*
X123150000Y-15367500D03*
X122200001Y-15367500D03*
X122200001Y-13092500D03*
X124099999Y-13092500D03*
%TD*%
D32*
%TO.C,U14*%
X156432500Y-17697500D03*
X156432500Y-16747500D03*
X156432500Y-15797500D03*
X158707500Y-15797500D03*
X158707500Y-17697500D03*
%TD*%
D13*
%TO.C,C10*%
X90105000Y-1245000D03*
X89145000Y-1245000D03*
%TD*%
D34*
%TO.C,Y16*%
X116355000Y9710000D03*
X118555000Y9710000D03*
X118555000Y8010000D03*
X116355000Y8010000D03*
%TD*%
D15*
%TO.C,R28*%
X83295000Y-32212500D03*
X83295000Y-35137500D03*
%TD*%
D35*
%TO.C,R43*%
X123150000Y-18595000D03*
X123150000Y-16945000D03*
%TD*%
D12*
%TO.C,R35*%
X152860000Y-17670000D03*
X154510000Y-17670000D03*
%TD*%
D36*
%TO.C,FB14*%
X135737500Y7230000D03*
X137562500Y7230000D03*
%TD*%
D18*
%TO.C,R63*%
X136805000Y-8250000D03*
X135155000Y-8250000D03*
%TD*%
D37*
%TO.C,C12*%
X92335000Y8700000D03*
X92335000Y9660000D03*
%TD*%
D38*
%TO.C,U4*%
X88135000Y7180000D03*
X88135000Y4880000D03*
X88135000Y2580000D03*
D39*
X81835000Y4880000D03*
%TD*%
D15*
%TO.C,R44*%
X111180000Y-32262500D03*
X111180000Y-35187500D03*
%TD*%
D40*
%TO.C,U16*%
X116570000Y-5725000D03*
X115898249Y-5053249D03*
X115226498Y-4381498D03*
X116835166Y-2772830D03*
X118178668Y-4116332D03*
%TD*%
M02*
