%TF.GenerationSoftware,KiCad,Pcbnew,9.0.0*%
%TF.CreationDate,2026-01-02T12:40:45+01:00*%
%TF.ProjectId,camera,63616d65-7261-42e6-9b69-6361645f7063,rev?*%
%TF.SameCoordinates,Original*%
%TF.FileFunction,Soldermask,Top*%
%TF.FilePolarity,Negative*%
%FSLAX46Y46*%
G04 Gerber Fmt 4.6, Leading zero omitted, Abs format (unit mm)*
G04 Created by KiCad (PCBNEW 9.0.0) date 2026-01-02 12:40:45*
%MOMM*%
%LPD*%
G01*
G04 APERTURE LIST*
G04 Aperture macros list*
%AMRoundRect*
0 Rectangle with rounded corners*
0 $1 Rounding radius*
0 $2 $3 $4 $5 $6 $7 $8 $9 X,Y pos of 4 corners*
0 Add a 4 corners polygon primitive as box body*
4,1,4,$2,$3,$4,$5,$6,$7,$8,$9,$2,$3,0*
0 Add four circle primitives for the rounded corners*
1,1,$1+$1,$2,$3*
1,1,$1+$1,$4,$5*
1,1,$1+$1,$6,$7*
1,1,$1+$1,$8,$9*
0 Add four rect primitives between the rounded corners*
20,1,$1+$1,$2,$3,$4,$5,0*
20,1,$1+$1,$4,$5,$6,$7,0*
20,1,$1+$1,$6,$7,$8,$9,0*
20,1,$1+$1,$8,$9,$2,$3,0*%
G04 Aperture macros list end*
%ADD10RoundRect,0.200000X-0.275000X0.200000X-0.275000X-0.200000X0.275000X-0.200000X0.275000X0.200000X0*%
%ADD11RoundRect,0.250000X0.475000X-0.250000X0.475000X0.250000X-0.475000X0.250000X-0.475000X-0.250000X0*%
%ADD12RoundRect,0.250000X0.450000X-0.262500X0.450000X0.262500X-0.450000X0.262500X-0.450000X-0.262500X0*%
%ADD13RoundRect,0.150000X-0.512500X-0.150000X0.512500X-0.150000X0.512500X0.150000X-0.512500X0.150000X0*%
%ADD14RoundRect,0.140000X-0.170000X0.140000X-0.170000X-0.140000X0.170000X-0.140000X0.170000X0.140000X0*%
%ADD15RoundRect,0.250000X0.250000X0.475000X-0.250000X0.475000X-0.250000X-0.475000X0.250000X-0.475000X0*%
%ADD16RoundRect,0.200000X0.200000X0.275000X-0.200000X0.275000X-0.200000X-0.275000X0.200000X-0.275000X0*%
%ADD17RoundRect,0.225000X0.225000X0.250000X-0.225000X0.250000X-0.225000X-0.250000X0.225000X-0.250000X0*%
%ADD18RoundRect,0.140000X0.140000X0.170000X-0.140000X0.170000X-0.140000X-0.170000X0.140000X-0.170000X0*%
%ADD19RoundRect,0.225000X-0.250000X0.225000X-0.250000X-0.225000X0.250000X-0.225000X0.250000X0.225000X0*%
%ADD20R,1.800000X1.000000*%
%ADD21RoundRect,0.140000X0.170000X-0.140000X0.170000X0.140000X-0.170000X0.140000X-0.170000X-0.140000X0*%
%ADD22R,1.700000X1.700000*%
%ADD23O,1.700000X1.700000*%
%ADD24R,1.000000X1.000000*%
%ADD25R,2.600000X0.300000*%
%ADD26O,3.300000X1.500000*%
%ADD27O,2.300000X1.500000*%
%ADD28R,0.800000X0.900000*%
%ADD29RoundRect,0.140000X-0.140000X-0.170000X0.140000X-0.170000X0.140000X0.170000X-0.140000X0.170000X0*%
%ADD30RoundRect,0.102000X-0.350000X0.100000X-0.350000X-0.100000X0.350000X-0.100000X0.350000X0.100000X0*%
%ADD31C,6.004000*%
%ADD32RoundRect,0.250000X-0.250000X-0.475000X0.250000X-0.475000X0.250000X0.475000X-0.250000X0.475000X0*%
%ADD33R,1.350000X1.350000*%
%ADD34O,1.350000X1.350000*%
%ADD35RoundRect,0.250000X-0.475000X0.250000X-0.475000X-0.250000X0.475000X-0.250000X0.475000X0.250000X0*%
%ADD36C,2.000000*%
%ADD37R,0.355600X1.399800*%
%ADD38RoundRect,0.102000X0.350000X-0.100000X0.350000X0.100000X-0.350000X0.100000X-0.350000X-0.100000X0*%
%ADD39RoundRect,0.250000X-0.262500X-0.450000X0.262500X-0.450000X0.262500X0.450000X-0.262500X0.450000X0*%
%ADD40RoundRect,0.075000X0.725000X0.075000X-0.725000X0.075000X-0.725000X-0.075000X0.725000X-0.075000X0*%
%ADD41RoundRect,0.075000X0.075000X0.725000X-0.075000X0.725000X-0.075000X-0.725000X0.075000X-0.725000X0*%
%ADD42RoundRect,0.250000X0.262500X0.450000X-0.262500X0.450000X-0.262500X-0.450000X0.262500X-0.450000X0*%
%ADD43RoundRect,0.225000X0.250000X-0.225000X0.250000X0.225000X-0.250000X0.225000X-0.250000X-0.225000X0*%
%ADD44RoundRect,0.100000X-0.100000X0.637500X-0.100000X-0.637500X0.100000X-0.637500X0.100000X0.637500X0*%
%ADD45RoundRect,0.225000X-0.225000X-0.250000X0.225000X-0.250000X0.225000X0.250000X-0.225000X0.250000X0*%
%ADD46RoundRect,0.200000X-0.053033X0.335876X-0.335876X0.053033X0.053033X-0.335876X0.335876X-0.053033X0*%
%ADD47R,1.200000X1.400000*%
%ADD48R,1.400000X1.200000*%
%ADD49R,0.300000X0.800000*%
%ADD50R,1.100000X2.200000*%
%ADD51R,1.300000X3.050000*%
%ADD52RoundRect,0.200000X0.053033X-0.335876X0.335876X-0.053033X-0.053033X0.335876X-0.335876X0.053033X0*%
%ADD53RoundRect,0.150000X0.512500X0.150000X-0.512500X0.150000X-0.512500X-0.150000X0.512500X-0.150000X0*%
%ADD54RoundRect,0.135000X-0.185000X0.135000X-0.185000X-0.135000X0.185000X-0.135000X0.185000X0.135000X0*%
%ADD55C,3.200000*%
%ADD56R,0.711200X1.092200*%
%ADD57R,0.889000X0.939800*%
%ADD58R,1.041400X0.787400*%
%ADD59R,1.143000X1.828800*%
%ADD60R,0.711200X3.327400*%
%ADD61R,0.863600X2.794000*%
%ADD62RoundRect,0.140000X-0.219203X-0.021213X-0.021213X-0.219203X0.219203X0.021213X0.021213X0.219203X0*%
%ADD63RoundRect,0.062500X-0.062500X0.350000X-0.062500X-0.350000X0.062500X-0.350000X0.062500X0.350000X0*%
%ADD64RoundRect,0.062500X-0.350000X0.062500X-0.350000X-0.062500X0.350000X-0.062500X0.350000X0.062500X0*%
%ADD65R,3.700000X3.700000*%
%ADD66R,0.900000X0.800000*%
%ADD67RoundRect,0.200000X0.335876X0.053033X0.053033X0.335876X-0.335876X-0.053033X-0.053033X-0.335876X0*%
%ADD68RoundRect,0.200000X-0.200000X-0.275000X0.200000X-0.275000X0.200000X0.275000X-0.200000X0.275000X0*%
%ADD69RoundRect,0.200000X0.275000X-0.200000X0.275000X0.200000X-0.275000X0.200000X-0.275000X-0.200000X0*%
%ADD70R,0.850000X0.200000*%
%ADD71R,0.200000X0.850000*%
%ADD72R,6.200000X6.200000*%
%ADD73C,0.650000*%
%ADD74R,0.300000X1.150000*%
%ADD75O,1.000000X2.100000*%
%ADD76O,1.000000X1.600000*%
G04 APERTURE END LIST*
D10*
%TO.C,R22*%
X92640000Y-34850000D03*
X92640000Y-36500000D03*
%TD*%
D11*
%TO.C,C88*%
X124660000Y-45580000D03*
X124660000Y-43680000D03*
%TD*%
D10*
%TO.C,R38*%
X120525000Y-34900000D03*
X120525000Y-36550000D03*
%TD*%
D12*
%TO.C,FB6*%
X96550000Y-41932500D03*
X96550000Y-40107500D03*
%TD*%
D13*
%TO.C,U1*%
X123010000Y-7760000D03*
X123010000Y-8710000D03*
X123010000Y-9660000D03*
X125285000Y-9660000D03*
X125285000Y-7760000D03*
%TD*%
D14*
%TO.C,C27*%
X159015000Y18215000D03*
X159015000Y17255000D03*
%TD*%
D12*
%TO.C,FB8*%
X155277500Y-41130000D03*
X155277500Y-39305000D03*
%TD*%
D15*
%TO.C,C47*%
X96029998Y-17065000D03*
X94129998Y-17065000D03*
%TD*%
D16*
%TO.C,R7*%
X136810000Y3475000D03*
X135160000Y3475000D03*
%TD*%
%TO.C,R5*%
X135342500Y-6270000D03*
X133692500Y-6270000D03*
%TD*%
D10*
%TO.C,R17*%
X153320000Y7010000D03*
X153320000Y5360000D03*
%TD*%
D17*
%TO.C,C71*%
X155417500Y-34352500D03*
X153867500Y-34352500D03*
%TD*%
D15*
%TO.C,C93*%
X123914998Y-17115000D03*
X122014998Y-17115000D03*
%TD*%
D18*
%TO.C,C26*%
X150395000Y12730000D03*
X149435000Y12730000D03*
%TD*%
D19*
%TO.C,C95*%
X125265000Y-30905000D03*
X125265000Y-32455000D03*
%TD*%
D14*
%TO.C,C21*%
X94980000Y16095100D03*
X94980000Y15135100D03*
%TD*%
D20*
%TO.C,Y8*%
X154097500Y-30087500D03*
X154097500Y-32587500D03*
%TD*%
D10*
%TO.C,R4*%
X131935000Y-27775000D03*
X131935000Y-29425000D03*
%TD*%
D20*
%TO.C,Y5*%
X95370000Y-30890000D03*
X95370000Y-33390000D03*
%TD*%
D10*
%TO.C,R8*%
X133735000Y5055000D03*
X133735000Y3405000D03*
%TD*%
D21*
%TO.C,C25*%
X160165000Y14700000D03*
X160165000Y15660000D03*
%TD*%
D18*
%TO.C,C81*%
X104830000Y-33945000D03*
X103870000Y-33945000D03*
%TD*%
D22*
%TO.C,J8*%
X73335000Y-36605000D03*
D23*
X73335000Y-39145000D03*
X73335000Y-41685000D03*
X73335000Y-44225000D03*
X73335000Y-46765000D03*
X73335000Y-49305000D03*
%TD*%
D15*
%TO.C,C84*%
X126313899Y-48363899D03*
X124413899Y-48363899D03*
%TD*%
D19*
%TO.C,C49*%
X97380000Y-30855000D03*
X97380000Y-32405000D03*
%TD*%
D16*
%TO.C,R49*%
X180131101Y-37690618D03*
X178481101Y-37690618D03*
%TD*%
D15*
%TO.C,C70*%
X154757498Y-16262500D03*
X152857498Y-16262500D03*
%TD*%
D24*
%TO.C,TP8*%
X151920000Y-11700000D03*
%TD*%
D18*
%TO.C,C59*%
X154472500Y-21482500D03*
X153512500Y-21482500D03*
%TD*%
D12*
%TO.C,FB10*%
X124435000Y-41982500D03*
X124435000Y-40157500D03*
%TD*%
D25*
%TO.C,J3*%
X81595000Y533000D03*
X81595000Y1033000D03*
X81595000Y1533000D03*
X81595000Y2033000D03*
X81595000Y2533000D03*
X81595000Y3033000D03*
X81595000Y3533000D03*
X81595000Y4033000D03*
X81595000Y4533000D03*
X81595000Y5033000D03*
X81595000Y5533000D03*
X81595000Y6033000D03*
X81595000Y6533000D03*
X81595000Y7033000D03*
X81595000Y7533000D03*
X81595000Y8033000D03*
X81595000Y8533000D03*
X81595000Y9033000D03*
X81595000Y9533000D03*
D26*
X80835000Y-2217000D03*
X80835000Y12283000D03*
D27*
X74875000Y-2217000D03*
X74875000Y12283000D03*
%TD*%
D28*
%TO.C,Y3*%
X162360000Y12025000D03*
X162360000Y13425000D03*
X161260000Y13425000D03*
X161260000Y12025000D03*
%TD*%
D11*
%TO.C,C45*%
X92140000Y-41890000D03*
X92140000Y-39990000D03*
%TD*%
D29*
%TO.C,C4*%
X181670000Y13170000D03*
X182630000Y13170000D03*
%TD*%
%TO.C,C16*%
X135115000Y-1090000D03*
X136075000Y-1090000D03*
%TD*%
D30*
%TO.C,U3*%
X180015000Y-3985000D03*
X176935000Y-3985000D03*
X180015000Y-3585000D03*
X176935000Y-3585000D03*
X180015000Y-3185000D03*
X176935000Y-3185000D03*
X180015000Y-2785000D03*
X176935000Y-2785000D03*
X180015000Y-2385000D03*
X176935000Y-2385000D03*
X180015000Y-1985000D03*
X176935000Y-1985000D03*
X180015000Y-1585000D03*
X176935000Y-1585000D03*
X180015000Y-1185000D03*
X176935000Y-1185000D03*
X180015000Y-785000D03*
X176935000Y-785000D03*
X180015000Y-385000D03*
X176935000Y-385000D03*
X180015000Y15000D03*
X176935000Y15000D03*
X180015000Y415000D03*
X176935000Y415000D03*
X180015000Y815000D03*
X176935000Y815000D03*
X180015000Y1215000D03*
X176935000Y1215000D03*
X180015000Y1615000D03*
X176935000Y1615000D03*
X180015000Y2015000D03*
X176935000Y2015000D03*
X180015000Y2415000D03*
X176935000Y2415000D03*
X180015000Y2815000D03*
X176935000Y2815000D03*
X180015000Y3215000D03*
X176935000Y3215000D03*
X180015000Y3615000D03*
X176935000Y3615000D03*
X180015000Y4015000D03*
X176935000Y4015000D03*
X180015000Y4415000D03*
X176935000Y4415000D03*
X180015000Y4815000D03*
X176935000Y4815000D03*
X180015000Y5215000D03*
X176935000Y5215000D03*
X180015000Y5615000D03*
X176935000Y5615000D03*
X180015000Y6015000D03*
X176935000Y6015000D03*
X180015000Y6415000D03*
X176935000Y6415000D03*
X180015000Y6815000D03*
X176935000Y6815000D03*
X180015000Y7215000D03*
X176935000Y7215000D03*
X180015000Y7615000D03*
X176935000Y7615000D03*
X180015000Y8015000D03*
X176935000Y8015000D03*
X180015000Y8415000D03*
X176935000Y8415000D03*
X180015000Y8815000D03*
X176935000Y8815000D03*
X180015000Y9215000D03*
X176935000Y9215000D03*
X180015000Y9615000D03*
X176935000Y9615000D03*
X180015000Y10015000D03*
X176935000Y10015000D03*
X180015000Y10415000D03*
X176935000Y10415000D03*
X180015000Y10815000D03*
X176935000Y10815000D03*
X180015000Y11215000D03*
X176935000Y11215000D03*
X180015000Y11615000D03*
X176935000Y11615000D03*
X180015000Y12015000D03*
X176935000Y12015000D03*
X180015000Y12415000D03*
X176935000Y12415000D03*
X180015000Y12815000D03*
X176935000Y12815000D03*
X180015000Y13215000D03*
X176935000Y13215000D03*
X180015000Y13615000D03*
X176935000Y13615000D03*
X180015000Y14015000D03*
X176935000Y14015000D03*
X180015000Y14415000D03*
X176935000Y14415000D03*
X180015000Y14815000D03*
X176935000Y14815000D03*
X180015000Y15215000D03*
X176935000Y15215000D03*
X180015000Y15615000D03*
X176935000Y15615000D03*
X146015000Y-3985000D03*
X142935000Y-3985000D03*
X146015000Y-3585000D03*
X142935000Y-3585000D03*
X146015000Y-3185000D03*
X142935000Y-3185000D03*
X146015000Y-2785000D03*
X142935000Y-2785000D03*
X146015000Y-2385000D03*
X142935000Y-2385000D03*
X146015000Y-1985000D03*
X142935000Y-1985000D03*
X146015000Y-1585000D03*
X142935000Y-1585000D03*
X146015000Y-1185000D03*
X142935000Y-1185000D03*
X146015000Y-785000D03*
X142935000Y-785000D03*
X146015000Y-385000D03*
X142935000Y-385000D03*
X146015000Y15000D03*
X142935000Y15000D03*
X146015000Y415000D03*
X142935000Y415000D03*
X146015000Y815000D03*
X142935000Y815000D03*
X146015000Y1215000D03*
X142935000Y1215000D03*
X146015000Y1615000D03*
X142935000Y1615000D03*
X146015000Y2015000D03*
X142935000Y2015000D03*
X146015000Y2415000D03*
X142935000Y2415000D03*
X146015000Y2815000D03*
X142935000Y2815000D03*
X146015000Y3215000D03*
X142935000Y3215000D03*
X146015000Y3615000D03*
X142935000Y3615000D03*
X146015000Y4015000D03*
X142935000Y4015000D03*
X146015000Y4415000D03*
X142935000Y4415000D03*
X146015000Y4815000D03*
X142935000Y4815000D03*
X146015000Y5215000D03*
X142935000Y5215000D03*
X146015000Y5615000D03*
X142935000Y5615000D03*
X146015000Y6015000D03*
X142935000Y6015000D03*
X146015000Y6415000D03*
X142935000Y6415000D03*
X146015000Y6815000D03*
X142935000Y6815000D03*
X146015000Y7215000D03*
X142935000Y7215000D03*
X146015000Y7615000D03*
X142935000Y7615000D03*
X146015000Y8015000D03*
X142935000Y8015000D03*
X146015000Y8415000D03*
X142935000Y8415000D03*
X146015000Y8815000D03*
X142935000Y8815000D03*
X146015000Y9215000D03*
X142935000Y9215000D03*
X146015000Y9615000D03*
X142935000Y9615000D03*
X146015000Y10015000D03*
X142935000Y10015000D03*
X146015000Y10415000D03*
X142935000Y10415000D03*
X146015000Y10815000D03*
X142935000Y10815000D03*
X146015000Y11215000D03*
X142935000Y11215000D03*
X146015000Y11615000D03*
X142935000Y11615000D03*
X146015000Y12015000D03*
X142935000Y12015000D03*
X146015000Y12415000D03*
X142935000Y12415000D03*
X146015000Y12815000D03*
X142935000Y12815000D03*
X146015000Y13215000D03*
X142935000Y13215000D03*
X146015000Y13615000D03*
X142935000Y13615000D03*
X146015000Y14015000D03*
X142935000Y14015000D03*
X146015000Y14415000D03*
X142935000Y14415000D03*
X146015000Y14815000D03*
X142935000Y14815000D03*
X146015000Y15215000D03*
X142935000Y15215000D03*
X146015000Y15615000D03*
X142935000Y15615000D03*
D31*
X177975000Y27315000D03*
X144975000Y27315000D03*
%TD*%
D32*
%TO.C,C80*%
X101512500Y-32318899D03*
X103412500Y-32318899D03*
%TD*%
D21*
%TO.C,C54*%
X154446399Y-23537499D03*
X154446399Y-22577499D03*
%TD*%
D16*
%TO.C,R14*%
X94665000Y19205100D03*
X93015000Y19205100D03*
%TD*%
D11*
%TO.C,C91*%
X120025000Y-41940000D03*
X120025000Y-40040000D03*
%TD*%
D22*
%TO.C,J1*%
X102745000Y28595000D03*
D23*
X100205000Y28595000D03*
X97665000Y28595000D03*
X95125000Y28595000D03*
X92585000Y28595000D03*
X90045000Y28595000D03*
X87505000Y28595000D03*
%TD*%
D19*
%TO.C,C76*%
X126715000Y-22660000D03*
X126715000Y-24210000D03*
%TD*%
D33*
%TO.C,J16*%
X76815000Y17590000D03*
D34*
X76815000Y19590000D03*
X76815000Y21590000D03*
X76815000Y23590000D03*
%TD*%
D17*
%TO.C,C94*%
X124575000Y-35205000D03*
X123025000Y-35205000D03*
%TD*%
D15*
%TO.C,C107*%
X185005000Y-47779517D03*
X183105000Y-47779517D03*
%TD*%
D35*
%TO.C,C7*%
X183335000Y10150000D03*
X183335000Y8250000D03*
%TD*%
D16*
%TO.C,R15*%
X94665000Y17540100D03*
X93015000Y17540100D03*
%TD*%
D10*
%TO.C,R9*%
X132165000Y5060000D03*
X132165000Y3410000D03*
%TD*%
D36*
%TO.C,TP4*%
X183895000Y-2255000D03*
%TD*%
D29*
%TO.C,C85*%
X124683899Y-46823899D03*
X125643899Y-46823899D03*
%TD*%
D10*
%TO.C,R45*%
X183791101Y-21960618D03*
X183791101Y-23610618D03*
%TD*%
D21*
%TO.C,C100*%
X182295000Y-23805617D03*
X182295000Y-22845617D03*
%TD*%
D22*
%TO.C,J2*%
X88955000Y-6330000D03*
D23*
X86415000Y-6330000D03*
X83875000Y-6330000D03*
X81335000Y-6330000D03*
X78795000Y-6330000D03*
X76255000Y-6330000D03*
X73715000Y-6330000D03*
%TD*%
D11*
%TO.C,C115*%
X180811101Y-41370618D03*
X180811101Y-39470618D03*
%TD*%
D18*
%TO.C,C36*%
X95745000Y-22285000D03*
X94785000Y-22285000D03*
%TD*%
D15*
%TO.C,C56*%
X141932500Y-16177500D03*
X140032500Y-16177500D03*
%TD*%
D37*
%TO.C,U8*%
X100735000Y20346500D03*
X100100000Y20346500D03*
X99465000Y20346500D03*
X98830000Y20346500D03*
X98195000Y20346500D03*
X97560000Y20346500D03*
X96925000Y20346500D03*
X96290000Y20346500D03*
X96290000Y15035100D03*
X96925000Y15035100D03*
X97560000Y15035100D03*
X98195000Y15035100D03*
X98830000Y15035100D03*
X99465000Y15035100D03*
X100100000Y15035100D03*
X100735000Y15035100D03*
%TD*%
D38*
%TO.C,J5*%
X142935000Y15615000D03*
X146015000Y15615000D03*
X142935000Y15215000D03*
X146015000Y15215000D03*
X142935000Y14815000D03*
X146015000Y14815000D03*
X142935000Y14415000D03*
X146015000Y14415000D03*
X142935000Y14015000D03*
X146015000Y14015000D03*
X142935000Y13615000D03*
X146015000Y13615000D03*
X142935000Y13215000D03*
X146015000Y13215000D03*
X142935000Y12815000D03*
X146015000Y12815000D03*
X142935000Y12415000D03*
X146015000Y12415000D03*
X142935000Y12015000D03*
X146015000Y12015000D03*
X142935000Y11615000D03*
X146015000Y11615000D03*
X142935000Y11215000D03*
X146015000Y11215000D03*
X142935000Y10815000D03*
X146015000Y10815000D03*
X142935000Y10415000D03*
X146015000Y10415000D03*
X142935000Y10015000D03*
X146015000Y10015000D03*
X142935000Y9615000D03*
X146015000Y9615000D03*
X142935000Y9215000D03*
X146015000Y9215000D03*
X142935000Y8815000D03*
X146015000Y8815000D03*
X142935000Y8415000D03*
X146015000Y8415000D03*
X142935000Y8015000D03*
X146015000Y8015000D03*
X142935000Y7615000D03*
X146015000Y7615000D03*
X142935000Y7215000D03*
X146015000Y7215000D03*
X142935000Y6815000D03*
X146015000Y6815000D03*
X142935000Y6415000D03*
X146015000Y6415000D03*
X142935000Y6015000D03*
X146015000Y6015000D03*
X142935000Y5615000D03*
X146015000Y5615000D03*
X142935000Y5215000D03*
X146015000Y5215000D03*
X142935000Y4815000D03*
X146015000Y4815000D03*
X142935000Y4415000D03*
X146015000Y4415000D03*
X142935000Y4015000D03*
X146015000Y4015000D03*
X142935000Y3615000D03*
X146015000Y3615000D03*
X142935000Y3215000D03*
X146015000Y3215000D03*
X142935000Y2815000D03*
X146015000Y2815000D03*
X142935000Y2415000D03*
X146015000Y2415000D03*
X142935000Y2015000D03*
X146015000Y2015000D03*
X142935000Y1615000D03*
X146015000Y1615000D03*
X142935000Y1215000D03*
X146015000Y1215000D03*
X142935000Y815000D03*
X146015000Y815000D03*
X142935000Y415000D03*
X146015000Y415000D03*
X142935000Y15000D03*
X146015000Y15000D03*
X142935000Y-385000D03*
X146015000Y-385000D03*
X142935000Y-785000D03*
X146015000Y-785000D03*
X142935000Y-1185000D03*
X146015000Y-1185000D03*
X142935000Y-1585000D03*
X146015000Y-1585000D03*
X142935000Y-1985000D03*
X146015000Y-1985000D03*
X142935000Y-2385000D03*
X146015000Y-2385000D03*
X142935000Y-2785000D03*
X146015000Y-2785000D03*
X142935000Y-3185000D03*
X146015000Y-3185000D03*
X142935000Y-3585000D03*
X146015000Y-3585000D03*
X142935000Y-3985000D03*
X146015000Y-3985000D03*
%TD*%
D21*
%TO.C,C2*%
X181675000Y14800000D03*
X181675000Y15760000D03*
%TD*%
D29*
%TO.C,C15*%
X134700000Y-2080000D03*
X135660000Y-2080000D03*
%TD*%
D18*
%TO.C,C58*%
X135672500Y-33092500D03*
X134712500Y-33092500D03*
%TD*%
D39*
%TO.C,FB2*%
X119347500Y1180000D03*
X121172500Y1180000D03*
%TD*%
D19*
%TO.C,C30*%
X98830000Y-22610000D03*
X98830000Y-24160000D03*
%TD*%
%TO.C,C72*%
X156107500Y-30052500D03*
X156107500Y-31602500D03*
%TD*%
D36*
%TO.C,TP3*%
X183935000Y-8645000D03*
%TD*%
D12*
%TO.C,FB12*%
X183126101Y-41398118D03*
X183126101Y-39573118D03*
%TD*%
D21*
%TO.C,C110*%
X184865000Y-44259517D03*
X184865000Y-43299517D03*
%TD*%
D40*
%TO.C,U11*%
X151587500Y-31962500D03*
X151587500Y-31462500D03*
X151587500Y-30962500D03*
X151587500Y-30462500D03*
X151587500Y-29962500D03*
X151587500Y-29462500D03*
X151587500Y-28962500D03*
X151587500Y-28462500D03*
X151587500Y-27962500D03*
X151587500Y-27462500D03*
X151587500Y-26962500D03*
X151587500Y-26462500D03*
X151587500Y-25962500D03*
X151587500Y-25462500D03*
X151587500Y-24962500D03*
X151587500Y-24462500D03*
X151587500Y-23962500D03*
X151587500Y-23462500D03*
X151587500Y-22962500D03*
X151587500Y-22462500D03*
X151587500Y-21962500D03*
X151587500Y-21462500D03*
X151587500Y-20962500D03*
X151587500Y-20462500D03*
X151587500Y-19962500D03*
D41*
X149912500Y-18287500D03*
X149412500Y-18287500D03*
X148912500Y-18287500D03*
X148412500Y-18287500D03*
X147912500Y-18287500D03*
X147412500Y-18287500D03*
X146912500Y-18287500D03*
X146412500Y-18287500D03*
X145912500Y-18287500D03*
X145412500Y-18287500D03*
X144912500Y-18287500D03*
X144412500Y-18287500D03*
X143912500Y-18287500D03*
X143412500Y-18287500D03*
X142912500Y-18287500D03*
X142412500Y-18287500D03*
X141912500Y-18287500D03*
X141412500Y-18287500D03*
X140912500Y-18287500D03*
X140412500Y-18287500D03*
X139912500Y-18287500D03*
X139412500Y-18287500D03*
X138912500Y-18287500D03*
X138412500Y-18287500D03*
X137912500Y-18287500D03*
D40*
X136237500Y-19962500D03*
X136237500Y-20462500D03*
X136237500Y-20962500D03*
X136237500Y-21462500D03*
X136237500Y-21962500D03*
X136237500Y-22462500D03*
X136237500Y-22962500D03*
X136237500Y-23462500D03*
X136237500Y-23962500D03*
X136237500Y-24462500D03*
X136237500Y-24962500D03*
X136237500Y-25462500D03*
X136237500Y-25962500D03*
X136237500Y-26462500D03*
X136237500Y-26962500D03*
X136237500Y-27462500D03*
X136237500Y-27962500D03*
X136237500Y-28462500D03*
X136237500Y-28962500D03*
X136237500Y-29462500D03*
X136237500Y-29962500D03*
X136237500Y-30462500D03*
X136237500Y-30962500D03*
X136237500Y-31462500D03*
X136237500Y-31962500D03*
D41*
X137912500Y-33637500D03*
X138412500Y-33637500D03*
X138912500Y-33637500D03*
X139412500Y-33637500D03*
X139912500Y-33637500D03*
X140412500Y-33637500D03*
X140912500Y-33637500D03*
X141412500Y-33637500D03*
X141912500Y-33637500D03*
X142412500Y-33637500D03*
X142912500Y-33637500D03*
X143412500Y-33637500D03*
X143912500Y-33637500D03*
X144412500Y-33637500D03*
X144912500Y-33637500D03*
X145412500Y-33637500D03*
X145912500Y-33637500D03*
X146412500Y-33637500D03*
X146912500Y-33637500D03*
X147412500Y-33637500D03*
X147912500Y-33637500D03*
X148412500Y-33637500D03*
X148912500Y-33637500D03*
X149412500Y-33637500D03*
X149912500Y-33637500D03*
%TD*%
D17*
%TO.C,C52*%
X156372500Y-28497498D03*
X154822500Y-28497498D03*
%TD*%
D39*
%TO.C,FB5*%
X94082498Y-15060000D03*
X95907498Y-15060000D03*
%TD*%
D16*
%TO.C,R25*%
X93555000Y-38225000D03*
X91905000Y-38225000D03*
%TD*%
D42*
%TO.C,FB1*%
X140440000Y-2300000D03*
X138615000Y-2300000D03*
%TD*%
D39*
%TO.C,FB4*%
X162412500Y17105000D03*
X164237500Y17105000D03*
%TD*%
D43*
%TO.C,C17*%
X128930000Y4805000D03*
X128930000Y6355000D03*
%TD*%
D32*
%TO.C,C34*%
X73627500Y-32268899D03*
X75527500Y-32268899D03*
%TD*%
D39*
%TO.C,FB7*%
X152809998Y-14257500D03*
X154634998Y-14257500D03*
%TD*%
D18*
%TO.C,C105*%
X182321101Y-21750618D03*
X181361101Y-21750618D03*
%TD*%
D44*
%TO.C,U2*%
X131945000Y-20222500D03*
X131295000Y-20222500D03*
X130645000Y-20222500D03*
X129995000Y-20222500D03*
X129995000Y-25947500D03*
X130645000Y-25947500D03*
X131295000Y-25947500D03*
X131945000Y-25947500D03*
%TD*%
D45*
%TO.C,R31*%
X153757498Y-18072500D03*
X155307498Y-18072500D03*
%TD*%
D11*
%TO.C,C42*%
X96775000Y-45530000D03*
X96775000Y-43630000D03*
%TD*%
D21*
%TO.C,C67*%
X148787500Y-40652500D03*
X148787500Y-39692500D03*
%TD*%
D11*
%TO.C,C46*%
X94235000Y-41905000D03*
X94235000Y-40005000D03*
%TD*%
D40*
%TO.C,U12*%
X120745000Y-32815000D03*
X120745000Y-32315000D03*
X120745000Y-31815000D03*
X120745000Y-31315000D03*
X120745000Y-30815000D03*
X120745000Y-30315000D03*
X120745000Y-29815000D03*
X120745000Y-29315000D03*
X120745000Y-28815000D03*
X120745000Y-28315000D03*
X120745000Y-27815000D03*
X120745000Y-27315000D03*
X120745000Y-26815000D03*
X120745000Y-26315000D03*
X120745000Y-25815000D03*
X120745000Y-25315000D03*
X120745000Y-24815000D03*
X120745000Y-24315000D03*
X120745000Y-23815000D03*
X120745000Y-23315000D03*
X120745000Y-22815000D03*
X120745000Y-22315000D03*
X120745000Y-21815000D03*
X120745000Y-21315000D03*
X120745000Y-20815000D03*
D41*
X119070000Y-19140000D03*
X118570000Y-19140000D03*
X118070000Y-19140000D03*
X117570000Y-19140000D03*
X117070000Y-19140000D03*
X116570000Y-19140000D03*
X116070000Y-19140000D03*
X115570000Y-19140000D03*
X115070000Y-19140000D03*
X114570000Y-19140000D03*
X114070000Y-19140000D03*
X113570000Y-19140000D03*
X113070000Y-19140000D03*
X112570000Y-19140000D03*
X112070000Y-19140000D03*
X111570000Y-19140000D03*
X111070000Y-19140000D03*
X110570000Y-19140000D03*
X110070000Y-19140000D03*
X109570000Y-19140000D03*
X109070000Y-19140000D03*
X108570000Y-19140000D03*
X108070000Y-19140000D03*
X107570000Y-19140000D03*
X107070000Y-19140000D03*
D40*
X105395000Y-20815000D03*
X105395000Y-21315000D03*
X105395000Y-21815000D03*
X105395000Y-22315000D03*
X105395000Y-22815000D03*
X105395000Y-23315000D03*
X105395000Y-23815000D03*
X105395000Y-24315000D03*
X105395000Y-24815000D03*
X105395000Y-25315000D03*
X105395000Y-25815000D03*
X105395000Y-26315000D03*
X105395000Y-26815000D03*
X105395000Y-27315000D03*
X105395000Y-27815000D03*
X105395000Y-28315000D03*
X105395000Y-28815000D03*
X105395000Y-29315000D03*
X105395000Y-29815000D03*
X105395000Y-30315000D03*
X105395000Y-30815000D03*
X105395000Y-31315000D03*
X105395000Y-31815000D03*
X105395000Y-32315000D03*
X105395000Y-32815000D03*
D41*
X107070000Y-34490000D03*
X107570000Y-34490000D03*
X108070000Y-34490000D03*
X108570000Y-34490000D03*
X109070000Y-34490000D03*
X109570000Y-34490000D03*
X110070000Y-34490000D03*
X110570000Y-34490000D03*
X111070000Y-34490000D03*
X111570000Y-34490000D03*
X112070000Y-34490000D03*
X112570000Y-34490000D03*
X113070000Y-34490000D03*
X113570000Y-34490000D03*
X114070000Y-34490000D03*
X114570000Y-34490000D03*
X115070000Y-34490000D03*
X115570000Y-34490000D03*
X116070000Y-34490000D03*
X116570000Y-34490000D03*
X117070000Y-34490000D03*
X117570000Y-34490000D03*
X118070000Y-34490000D03*
X118570000Y-34490000D03*
X119070000Y-34490000D03*
%TD*%
D46*
%TO.C,R32*%
X145500863Y-36359137D03*
X144334137Y-37525863D03*
%TD*%
D10*
%TO.C,R1*%
X128350000Y-23367500D03*
X128350000Y-25017500D03*
%TD*%
D40*
%TO.C,U13*%
X179436101Y-32230618D03*
X179436101Y-31730618D03*
X179436101Y-31230618D03*
X179436101Y-30730618D03*
X179436101Y-30230618D03*
X179436101Y-29730618D03*
X179436101Y-29230618D03*
X179436101Y-28730618D03*
X179436101Y-28230618D03*
X179436101Y-27730618D03*
X179436101Y-27230618D03*
X179436101Y-26730618D03*
X179436101Y-26230618D03*
X179436101Y-25730618D03*
X179436101Y-25230618D03*
X179436101Y-24730618D03*
X179436101Y-24230618D03*
X179436101Y-23730618D03*
X179436101Y-23230618D03*
X179436101Y-22730618D03*
X179436101Y-22230618D03*
X179436101Y-21730618D03*
X179436101Y-21230618D03*
X179436101Y-20730618D03*
X179436101Y-20230618D03*
D41*
X177761101Y-18555618D03*
X177261101Y-18555618D03*
X176761101Y-18555618D03*
X176261101Y-18555618D03*
X175761101Y-18555618D03*
X175261101Y-18555618D03*
X174761101Y-18555618D03*
X174261101Y-18555618D03*
X173761101Y-18555618D03*
X173261101Y-18555618D03*
X172761101Y-18555618D03*
X172261101Y-18555618D03*
X171761101Y-18555618D03*
X171261101Y-18555618D03*
X170761101Y-18555618D03*
X170261101Y-18555618D03*
X169761101Y-18555618D03*
X169261101Y-18555618D03*
X168761101Y-18555618D03*
X168261101Y-18555618D03*
X167761101Y-18555618D03*
X167261101Y-18555618D03*
X166761101Y-18555618D03*
X166261101Y-18555618D03*
X165761101Y-18555618D03*
D40*
X164086101Y-20230618D03*
X164086101Y-20730618D03*
X164086101Y-21230618D03*
X164086101Y-21730618D03*
X164086101Y-22230618D03*
X164086101Y-22730618D03*
X164086101Y-23230618D03*
X164086101Y-23730618D03*
X164086101Y-24230618D03*
X164086101Y-24730618D03*
X164086101Y-25230618D03*
X164086101Y-25730618D03*
X164086101Y-26230618D03*
X164086101Y-26730618D03*
X164086101Y-27230618D03*
X164086101Y-27730618D03*
X164086101Y-28230618D03*
X164086101Y-28730618D03*
X164086101Y-29230618D03*
X164086101Y-29730618D03*
X164086101Y-30230618D03*
X164086101Y-30730618D03*
X164086101Y-31230618D03*
X164086101Y-31730618D03*
X164086101Y-32230618D03*
D41*
X165761101Y-33905618D03*
X166261101Y-33905618D03*
X166761101Y-33905618D03*
X167261101Y-33905618D03*
X167761101Y-33905618D03*
X168261101Y-33905618D03*
X168761101Y-33905618D03*
X169261101Y-33905618D03*
X169761101Y-33905618D03*
X170261101Y-33905618D03*
X170761101Y-33905618D03*
X171261101Y-33905618D03*
X171761101Y-33905618D03*
X172261101Y-33905618D03*
X172761101Y-33905618D03*
X173261101Y-33905618D03*
X173761101Y-33905618D03*
X174261101Y-33905618D03*
X174761101Y-33905618D03*
X175261101Y-33905618D03*
X175761101Y-33905618D03*
X176261101Y-33905618D03*
X176761101Y-33905618D03*
X177261101Y-33905618D03*
X177761101Y-33905618D03*
%TD*%
D47*
%TO.C,Y1*%
X130050000Y-15447500D03*
X130050000Y-17647500D03*
X131750000Y-17647500D03*
X131750000Y-15447500D03*
%TD*%
D10*
%TO.C,R2*%
X128580000Y-27790000D03*
X128580000Y-29440000D03*
%TD*%
D48*
%TO.C,Y10*%
X123305000Y-27650000D03*
X125505000Y-27650000D03*
X125505000Y-25950000D03*
X123305000Y-25950000D03*
%TD*%
D21*
%TO.C,C90*%
X117945000Y-41505000D03*
X117945000Y-40545000D03*
%TD*%
D10*
%TO.C,R21*%
X97215000Y-22495000D03*
X97215000Y-24145000D03*
%TD*%
D15*
%TO.C,C60*%
X136712500Y-34802500D03*
X134812500Y-34802500D03*
%TD*%
D20*
%TO.C,Y11*%
X123255000Y-30940000D03*
X123255000Y-33440000D03*
%TD*%
D15*
%TO.C,C106*%
X164561101Y-35070618D03*
X162661101Y-35070618D03*
%TD*%
D19*
%TO.C,C53*%
X157557500Y-21807500D03*
X157557500Y-23357500D03*
%TD*%
D17*
%TO.C,C29*%
X97645000Y-29299998D03*
X96095000Y-29299998D03*
%TD*%
D18*
%TO.C,C112*%
X180336101Y-18345618D03*
X179376101Y-18345618D03*
%TD*%
D21*
%TO.C,C64*%
X157016399Y-43991399D03*
X157016399Y-43031399D03*
%TD*%
D15*
%TO.C,C63*%
X155757500Y-19927500D03*
X153857500Y-19927500D03*
%TD*%
D10*
%TO.C,R13*%
X103742500Y16426901D03*
X103742500Y14776901D03*
%TD*%
D45*
%TO.C,R23*%
X95029998Y-18875000D03*
X96579998Y-18875000D03*
%TD*%
D48*
%TO.C,Y4*%
X95420000Y-27600000D03*
X97620000Y-27600000D03*
X97620000Y-25900000D03*
X95420000Y-25900000D03*
%TD*%
D49*
%TO.C,J7*%
X79943899Y-43654999D03*
X80443899Y-43654999D03*
X80943899Y-43654999D03*
X81443899Y-43654999D03*
X81943899Y-43654999D03*
X82443899Y-43654999D03*
X82943899Y-43654999D03*
X83443899Y-43654999D03*
X83943899Y-43654999D03*
X84443899Y-43654999D03*
X84943899Y-43654999D03*
X85443899Y-43654999D03*
X85943899Y-43654999D03*
X86443899Y-43654999D03*
X86943899Y-43654999D03*
X87443899Y-43654999D03*
X87943899Y-43654999D03*
X88443899Y-43654999D03*
X88943899Y-43654999D03*
X89443899Y-43654999D03*
X89943899Y-43654999D03*
X90443899Y-43654999D03*
X90943899Y-43654999D03*
X91443899Y-43654999D03*
D50*
X76843899Y-45154999D03*
X94543899Y-45154999D03*
D51*
X78043899Y-45579999D03*
X93343899Y-45579999D03*
%TD*%
D32*
%TO.C,C20*%
X119330000Y3170000D03*
X121230000Y3170000D03*
%TD*%
D49*
%TO.C,J11*%
X107828899Y-43704999D03*
X108328899Y-43704999D03*
X108828899Y-43704999D03*
X109328899Y-43704999D03*
X109828899Y-43704999D03*
X110328899Y-43704999D03*
X110828899Y-43704999D03*
X111328899Y-43704999D03*
X111828899Y-43704999D03*
X112328899Y-43704999D03*
X112828899Y-43704999D03*
X113328899Y-43704999D03*
X113828899Y-43704999D03*
X114328899Y-43704999D03*
X114828899Y-43704999D03*
X115328899Y-43704999D03*
X115828899Y-43704999D03*
X116328899Y-43704999D03*
X116828899Y-43704999D03*
X117328899Y-43704999D03*
X117828899Y-43704999D03*
X118328899Y-43704999D03*
X118828899Y-43704999D03*
X119328899Y-43704999D03*
D50*
X104728899Y-45204999D03*
X122428899Y-45204999D03*
D51*
X105928899Y-45629999D03*
X121228899Y-45629999D03*
%TD*%
D15*
%TO.C,C83*%
X105870000Y-35655000D03*
X103970000Y-35655000D03*
%TD*%
D52*
%TO.C,R6*%
X171011637Y4161637D03*
X172178363Y5328363D03*
%TD*%
D18*
%TO.C,C89*%
X121645000Y-18930000D03*
X120685000Y-18930000D03*
%TD*%
D15*
%TO.C,C33*%
X83205000Y-16980000D03*
X81305000Y-16980000D03*
%TD*%
D10*
%TO.C,R3*%
X130275000Y-27790000D03*
X130275000Y-29440000D03*
%TD*%
D24*
%TO.C,TP10*%
X183215000Y-11865000D03*
%TD*%
D49*
%TO.C,J9*%
X138671399Y-42852499D03*
X139171399Y-42852499D03*
X139671399Y-42852499D03*
X140171399Y-42852499D03*
X140671399Y-42852499D03*
X141171399Y-42852499D03*
X141671399Y-42852499D03*
X142171399Y-42852499D03*
X142671399Y-42852499D03*
X143171399Y-42852499D03*
X143671399Y-42852499D03*
X144171399Y-42852499D03*
X144671399Y-42852499D03*
X145171399Y-42852499D03*
X145671399Y-42852499D03*
X146171399Y-42852499D03*
X146671399Y-42852499D03*
X147171399Y-42852499D03*
X147671399Y-42852499D03*
X148171399Y-42852499D03*
X148671399Y-42852499D03*
X149171399Y-42852499D03*
X149671399Y-42852499D03*
X150171399Y-42852499D03*
D50*
X135571399Y-44352499D03*
X153271399Y-44352499D03*
D51*
X136771399Y-44777499D03*
X152071399Y-44777499D03*
%TD*%
D53*
%TO.C,U15*%
X174027500Y-8007500D03*
X174027500Y-7057500D03*
X174027500Y-6107500D03*
X171752500Y-6107500D03*
X171752500Y-8007500D03*
%TD*%
D21*
%TO.C,C14*%
X137320000Y-3060000D03*
X137320000Y-2100000D03*
%TD*%
D10*
%TO.C,R30*%
X151367500Y-34047500D03*
X151367500Y-35697500D03*
%TD*%
D15*
%TO.C,C37*%
X77985000Y-35605000D03*
X76085000Y-35605000D03*
%TD*%
D11*
%TO.C,C65*%
X155502500Y-44727500D03*
X155502500Y-42827500D03*
%TD*%
D40*
%TO.C,U10*%
X92860000Y-32765000D03*
X92860000Y-32265000D03*
X92860000Y-31765000D03*
X92860000Y-31265000D03*
X92860000Y-30765000D03*
X92860000Y-30265000D03*
X92860000Y-29765000D03*
X92860000Y-29265000D03*
X92860000Y-28765000D03*
X92860000Y-28265000D03*
X92860000Y-27765000D03*
X92860000Y-27265000D03*
X92860000Y-26765000D03*
X92860000Y-26265000D03*
X92860000Y-25765000D03*
X92860000Y-25265000D03*
X92860000Y-24765000D03*
X92860000Y-24265000D03*
X92860000Y-23765000D03*
X92860000Y-23265000D03*
X92860000Y-22765000D03*
X92860000Y-22265000D03*
X92860000Y-21765000D03*
X92860000Y-21265000D03*
X92860000Y-20765000D03*
D41*
X91185000Y-19090000D03*
X90685000Y-19090000D03*
X90185000Y-19090000D03*
X89685000Y-19090000D03*
X89185000Y-19090000D03*
X88685000Y-19090000D03*
X88185000Y-19090000D03*
X87685000Y-19090000D03*
X87185000Y-19090000D03*
X86685000Y-19090000D03*
X86185000Y-19090000D03*
X85685000Y-19090000D03*
X85185000Y-19090000D03*
X84685000Y-19090000D03*
X84185000Y-19090000D03*
X83685000Y-19090000D03*
X83185000Y-19090000D03*
X82685000Y-19090000D03*
X82185000Y-19090000D03*
X81685000Y-19090000D03*
X81185000Y-19090000D03*
X80685000Y-19090000D03*
X80185000Y-19090000D03*
X79685000Y-19090000D03*
X79185000Y-19090000D03*
D40*
X77510000Y-20765000D03*
X77510000Y-21265000D03*
X77510000Y-21765000D03*
X77510000Y-22265000D03*
X77510000Y-22765000D03*
X77510000Y-23265000D03*
X77510000Y-23765000D03*
X77510000Y-24265000D03*
X77510000Y-24765000D03*
X77510000Y-25265000D03*
X77510000Y-25765000D03*
X77510000Y-26265000D03*
X77510000Y-26765000D03*
X77510000Y-27265000D03*
X77510000Y-27765000D03*
X77510000Y-28265000D03*
X77510000Y-28765000D03*
X77510000Y-29265000D03*
X77510000Y-29765000D03*
X77510000Y-30265000D03*
X77510000Y-30765000D03*
X77510000Y-31265000D03*
X77510000Y-31765000D03*
X77510000Y-32265000D03*
X77510000Y-32765000D03*
D41*
X79185000Y-34440000D03*
X79685000Y-34440000D03*
X80185000Y-34440000D03*
X80685000Y-34440000D03*
X81185000Y-34440000D03*
X81685000Y-34440000D03*
X82185000Y-34440000D03*
X82685000Y-34440000D03*
X83185000Y-34440000D03*
X83685000Y-34440000D03*
X84185000Y-34440000D03*
X84685000Y-34440000D03*
X85185000Y-34440000D03*
X85685000Y-34440000D03*
X86185000Y-34440000D03*
X86685000Y-34440000D03*
X87185000Y-34440000D03*
X87685000Y-34440000D03*
X88185000Y-34440000D03*
X88685000Y-34440000D03*
X89185000Y-34440000D03*
X89685000Y-34440000D03*
X90185000Y-34440000D03*
X90685000Y-34440000D03*
X91185000Y-34440000D03*
%TD*%
D16*
%TO.C,R33*%
X152282500Y-37422500D03*
X150632500Y-37422500D03*
%TD*%
D54*
%TO.C,R19*%
X159120000Y15265000D03*
X159120000Y14245000D03*
%TD*%
D22*
%TO.C,J10*%
X132062500Y-35802500D03*
D23*
X132062500Y-38342500D03*
X132062500Y-40882500D03*
X132062500Y-43422500D03*
X132062500Y-45962500D03*
X132062500Y-48502500D03*
%TD*%
D55*
%TO.C,H1*%
X75050000Y-12645000D03*
%TD*%
D56*
%TO.C,J6*%
X109660000Y29118100D03*
X110760000Y29118100D03*
X111860000Y29118100D03*
X112960001Y29118100D03*
X114060001Y29118100D03*
X115160001Y29118100D03*
X116260002Y29118100D03*
X117360000Y29118100D03*
D57*
X107870000Y16653101D03*
D58*
X112135000Y16578101D03*
D59*
X105780000Y29103101D03*
D60*
X105560000Y17853101D03*
X118520000Y17853101D03*
D61*
X118440000Y28618101D03*
%TD*%
D55*
%TO.C,H4*%
X81820000Y26950000D03*
%TD*%
D10*
%TO.C,R16*%
X102157500Y16201901D03*
X102157500Y14551901D03*
%TD*%
D15*
%TO.C,C86*%
X124915000Y-20780000D03*
X123015000Y-20780000D03*
%TD*%
D10*
%TO.C,R11*%
X122880000Y1950000D03*
X122880000Y300000D03*
%TD*%
D22*
%TO.C,J14*%
X159911101Y-36070618D03*
D23*
X159911101Y-38610618D03*
X159911101Y-41150618D03*
X159911101Y-43690618D03*
X159911101Y-46230618D03*
X159911101Y-48770618D03*
%TD*%
D21*
%TO.C,C87*%
X126173899Y-44843899D03*
X126173899Y-43883899D03*
%TD*%
D17*
%TO.C,C23*%
X163450000Y14980000D03*
X161900000Y14980000D03*
%TD*%
D62*
%TO.C,C3*%
X127590883Y-8605883D03*
X128269705Y-9284705D03*
%TD*%
D19*
%TO.C,C18*%
X124472500Y6070000D03*
X124472500Y4520000D03*
%TD*%
D29*
%TO.C,C39*%
X96798899Y-46773899D03*
X97758899Y-46773899D03*
%TD*%
D48*
%TO.C,Y7*%
X154147500Y-26797500D03*
X156347500Y-26797500D03*
X156347500Y-25097500D03*
X154147500Y-25097500D03*
%TD*%
D45*
%TO.C,R39*%
X122914998Y-18925000D03*
X124464998Y-18925000D03*
%TD*%
D18*
%TO.C,C35*%
X76945000Y-33895000D03*
X75985000Y-33895000D03*
%TD*%
D11*
%TO.C,C114*%
X178716101Y-41355618D03*
X178716101Y-39455618D03*
%TD*%
D14*
%TO.C,C6*%
X181705000Y10530000D03*
X181705000Y9570000D03*
%TD*%
D21*
%TO.C,C41*%
X98288899Y-44793899D03*
X98288899Y-43833899D03*
%TD*%
D17*
%TO.C,C117*%
X183266101Y-34620618D03*
X181716101Y-34620618D03*
%TD*%
D63*
%TO.C,U9*%
X156955000Y15647500D03*
X156455000Y15647500D03*
X155955000Y15647500D03*
X155455000Y15647500D03*
X154955000Y15647500D03*
X154455000Y15647500D03*
X153955000Y15647500D03*
X153455000Y15647500D03*
X152955000Y15647500D03*
D64*
X152017500Y14710000D03*
X152017500Y14210000D03*
X152017500Y13710000D03*
X152017500Y13210000D03*
X152017500Y12710000D03*
X152017500Y12210000D03*
X152017500Y11710000D03*
X152017500Y11210000D03*
X152017500Y10710000D03*
D63*
X152955000Y9772500D03*
X153455000Y9772500D03*
X153955000Y9772500D03*
X154455000Y9772500D03*
X154955000Y9772500D03*
X155455000Y9772500D03*
X155955000Y9772500D03*
X156455000Y9772500D03*
X156955000Y9772500D03*
D64*
X157892500Y10710000D03*
X157892500Y11210000D03*
X157892500Y11710000D03*
X157892500Y12210000D03*
X157892500Y12710000D03*
X157892500Y13210000D03*
X157892500Y13710000D03*
X157892500Y14210000D03*
X157892500Y14710000D03*
D65*
X154955000Y12710000D03*
%TD*%
D24*
%TO.C,TP9*%
X118795000Y-11685000D03*
%TD*%
D21*
%TO.C,C31*%
X95718899Y-24339999D03*
X95718899Y-23379999D03*
%TD*%
D66*
%TO.C,Y2*%
X126037500Y4075000D03*
X127437500Y4075000D03*
X127437500Y5175000D03*
X126037500Y5175000D03*
%TD*%
D29*
%TO.C,C5*%
X181660000Y12160000D03*
X182620000Y12160000D03*
%TD*%
D32*
%TO.C,C103*%
X160203601Y-31734517D03*
X162103601Y-31734517D03*
%TD*%
D10*
%TO.C,R37*%
X125100000Y-22545000D03*
X125100000Y-24195000D03*
%TD*%
D67*
%TO.C,R51*%
X177745000Y-11280000D03*
X176578274Y-10113274D03*
%TD*%
D17*
%TO.C,C98*%
X184221101Y-28765616D03*
X182671101Y-28765616D03*
%TD*%
D14*
%TO.C,C19*%
X122835000Y4130000D03*
X122835000Y3170000D03*
%TD*%
D11*
%TO.C,C68*%
X150867500Y-41087500D03*
X150867500Y-39187500D03*
%TD*%
D21*
%TO.C,C113*%
X176636101Y-40920618D03*
X176636101Y-39960618D03*
%TD*%
D68*
%TO.C,R12*%
X102152500Y18486901D03*
X103802500Y18486901D03*
%TD*%
D15*
%TO.C,C102*%
X169781101Y-16445618D03*
X167881101Y-16445618D03*
%TD*%
D35*
%TO.C,C28*%
X160565000Y19160000D03*
X160565000Y17260000D03*
%TD*%
D36*
%TO.C,TP2*%
X183965000Y3335000D03*
%TD*%
D24*
%TO.C,TP7*%
X98340000Y-14370000D03*
%TD*%
D46*
%TO.C,R48*%
X173349464Y-36627255D03*
X172182738Y-37793981D03*
%TD*%
D10*
%TO.C,R10*%
X130510000Y6030000D03*
X130510000Y4380000D03*
%TD*%
D29*
%TO.C,C62*%
X155526399Y-45971399D03*
X156486399Y-45971399D03*
%TD*%
D42*
%TO.C,FB3*%
X91445000Y16170000D03*
X89620000Y16170000D03*
%TD*%
D32*
%TO.C,C57*%
X132355000Y-31466399D03*
X134255000Y-31466399D03*
%TD*%
D21*
%TO.C,C1*%
X182695000Y14820000D03*
X182695000Y15780000D03*
%TD*%
D15*
%TO.C,C79*%
X111090000Y-17030000D03*
X109190000Y-17030000D03*
%TD*%
D10*
%TO.C,R29*%
X155942500Y-21692500D03*
X155942500Y-23342500D03*
%TD*%
D17*
%TO.C,C48*%
X96690000Y-35155000D03*
X95140000Y-35155000D03*
%TD*%
D24*
%TO.C,TP11*%
X173895000Y17530000D03*
%TD*%
D38*
%TO.C,J17*%
X176935000Y15615000D03*
X180015000Y15615000D03*
X176935000Y15215000D03*
X180015000Y15215000D03*
X176935000Y14815000D03*
X180015000Y14815000D03*
X176935000Y14415000D03*
X180015000Y14415000D03*
X176935000Y14015000D03*
X180015000Y14015000D03*
X176935000Y13615000D03*
X180015000Y13615000D03*
X176935000Y13215000D03*
X180015000Y13215000D03*
X176935000Y12815000D03*
X180015000Y12815000D03*
X176935000Y12415000D03*
X180015000Y12415000D03*
X176935000Y12015000D03*
X180015000Y12015000D03*
X176935000Y11615000D03*
X180015000Y11615000D03*
X176935000Y11215000D03*
X180015000Y11215000D03*
X176935000Y10815000D03*
X180015000Y10815000D03*
X176935000Y10415000D03*
X180015000Y10415000D03*
X176935000Y10015000D03*
X180015000Y10015000D03*
X176935000Y9615000D03*
X180015000Y9615000D03*
X176935000Y9215000D03*
X180015000Y9215000D03*
X176935000Y8815000D03*
X180015000Y8815000D03*
X176935000Y8415000D03*
X180015000Y8415000D03*
X176935000Y8015000D03*
X180015000Y8015000D03*
X176935000Y7615000D03*
X180015000Y7615000D03*
X176935000Y7215000D03*
X180015000Y7215000D03*
X176935000Y6815000D03*
X180015000Y6815000D03*
X176935000Y6415000D03*
X180015000Y6415000D03*
X176935000Y6015000D03*
X180015000Y6015000D03*
X176935000Y5615000D03*
X180015000Y5615000D03*
X176935000Y5215000D03*
X180015000Y5215000D03*
X176935000Y4815000D03*
X180015000Y4815000D03*
X176935000Y4415000D03*
X180015000Y4415000D03*
X176935000Y4015000D03*
X180015000Y4015000D03*
X176935000Y3615000D03*
X180015000Y3615000D03*
X176935000Y3215000D03*
X180015000Y3215000D03*
X176935000Y2815000D03*
X180015000Y2815000D03*
X176935000Y2415000D03*
X180015000Y2415000D03*
X176935000Y2015000D03*
X180015000Y2015000D03*
X176935000Y1615000D03*
X180015000Y1615000D03*
X176935000Y1215000D03*
X180015000Y1215000D03*
X176935000Y815000D03*
X180015000Y815000D03*
X176935000Y415000D03*
X180015000Y415000D03*
X176935000Y15000D03*
X180015000Y15000D03*
X176935000Y-385000D03*
X180015000Y-385000D03*
X176935000Y-785000D03*
X180015000Y-785000D03*
X176935000Y-1185000D03*
X180015000Y-1185000D03*
X176935000Y-1585000D03*
X180015000Y-1585000D03*
X176935000Y-1985000D03*
X180015000Y-1985000D03*
X176935000Y-2385000D03*
X180015000Y-2385000D03*
X176935000Y-2785000D03*
X180015000Y-2785000D03*
X176935000Y-3185000D03*
X180015000Y-3185000D03*
X176935000Y-3585000D03*
X180015000Y-3585000D03*
X176935000Y-3985000D03*
X180015000Y-3985000D03*
%TD*%
D15*
%TO.C,C116*%
X182606099Y-16530618D03*
X180706099Y-16530618D03*
%TD*%
D39*
%TO.C,FB9*%
X121967498Y-15110000D03*
X123792498Y-15110000D03*
%TD*%
D49*
%TO.C,J13*%
X166520000Y-43120617D03*
X167020000Y-43120617D03*
X167520000Y-43120617D03*
X168020000Y-43120617D03*
X168520000Y-43120617D03*
X169020000Y-43120617D03*
X169520000Y-43120617D03*
X170020000Y-43120617D03*
X170520000Y-43120617D03*
X171020000Y-43120617D03*
X171520000Y-43120617D03*
X172020000Y-43120617D03*
X172520000Y-43120617D03*
X173020000Y-43120617D03*
X173520000Y-43120617D03*
X174020000Y-43120617D03*
X174520000Y-43120617D03*
X175020000Y-43120617D03*
X175520000Y-43120617D03*
X176020000Y-43120617D03*
X176520000Y-43120617D03*
X177020000Y-43120617D03*
X177520000Y-43120617D03*
X178020000Y-43120617D03*
D50*
X163420000Y-44620617D03*
X181120000Y-44620617D03*
D51*
X164620000Y-45045617D03*
X179920000Y-45045617D03*
%TD*%
D69*
%TO.C,R20*%
X165830000Y4495000D03*
X165830000Y6145000D03*
%TD*%
D15*
%TO.C,C40*%
X97030000Y-20730000D03*
X95130000Y-20730000D03*
%TD*%
D19*
%TO.C,C24*%
X164055000Y13385000D03*
X164055000Y11835000D03*
%TD*%
D17*
%TO.C,C75*%
X125530000Y-29349998D03*
X123980000Y-29349998D03*
%TD*%
D29*
%TO.C,C108*%
X183375000Y-46239517D03*
X184335000Y-46239517D03*
%TD*%
D68*
%TO.C,R18*%
X157485000Y6185000D03*
X159135000Y6185000D03*
%TD*%
D15*
%TO.C,C109*%
X183606101Y-20195618D03*
X181706101Y-20195618D03*
%TD*%
D46*
%TO.C,R24*%
X86773363Y-37161637D03*
X85606637Y-38328363D03*
%TD*%
D11*
%TO.C,C69*%
X152962500Y-41102500D03*
X152962500Y-39202500D03*
%TD*%
D46*
%TO.C,R40*%
X114658363Y-37211637D03*
X113491637Y-38378363D03*
%TD*%
D19*
%TO.C,C99*%
X185406101Y-22075618D03*
X185406101Y-23625618D03*
%TD*%
D21*
%TO.C,C44*%
X90060000Y-41455000D03*
X90060000Y-40495000D03*
%TD*%
D11*
%TO.C,C92*%
X122120000Y-41955000D03*
X122120000Y-40055000D03*
%TD*%
D15*
%TO.C,C38*%
X98428899Y-48313899D03*
X96528899Y-48313899D03*
%TD*%
D18*
%TO.C,C104*%
X163521101Y-33360618D03*
X162561101Y-33360618D03*
%TD*%
%TO.C,C66*%
X152487500Y-18077500D03*
X151527500Y-18077500D03*
%TD*%
D70*
%TO.C,IC1*%
X132287500Y-5245000D03*
X132287500Y-4845000D03*
X132287500Y-4445000D03*
X132287500Y-4045000D03*
X132287500Y-3645000D03*
X132287500Y-3245000D03*
X132287500Y-2845000D03*
X132287500Y-2445000D03*
X132287500Y-2045000D03*
X132287500Y-1645000D03*
X132287500Y-1245000D03*
X132287500Y-845000D03*
X132287500Y-445000D03*
X132287500Y-45000D03*
X132287500Y355000D03*
X132287500Y755000D03*
X132287500Y1155000D03*
D71*
X131537500Y1905000D03*
X131137500Y1905000D03*
X130737500Y1905000D03*
X130337500Y1905000D03*
X129937500Y1905000D03*
X129537500Y1905000D03*
X129137500Y1905000D03*
X128737500Y1905000D03*
X128337500Y1905000D03*
X127937500Y1905000D03*
X127537500Y1905000D03*
X127137500Y1905000D03*
X126737500Y1905000D03*
X126337500Y1905000D03*
X125937500Y1905000D03*
X125537500Y1905000D03*
X125137500Y1905000D03*
D70*
X124387500Y1155000D03*
X124387500Y755000D03*
X124387500Y355000D03*
X124387500Y-45000D03*
X124387500Y-445000D03*
X124387500Y-845000D03*
X124387500Y-1245000D03*
X124387500Y-1645000D03*
X124387500Y-2045000D03*
X124387500Y-2445000D03*
X124387500Y-2845000D03*
X124387500Y-3245000D03*
X124387500Y-3645000D03*
X124387500Y-4045000D03*
X124387500Y-4445000D03*
X124387500Y-4845000D03*
X124387500Y-5245000D03*
D71*
X125137500Y-5995000D03*
X125537500Y-5995000D03*
X125937500Y-5995000D03*
X126337500Y-5995000D03*
X126737500Y-5995000D03*
X127137500Y-5995000D03*
X127537500Y-5995000D03*
X127937500Y-5995000D03*
X128337500Y-5995000D03*
X128737500Y-5995000D03*
X129137500Y-5995000D03*
X129537500Y-5995000D03*
X129937500Y-5995000D03*
X130337500Y-5995000D03*
X130737500Y-5995000D03*
X131137500Y-5995000D03*
X131537500Y-5995000D03*
D72*
X128337500Y-2045000D03*
%TD*%
D22*
%TO.C,J12*%
X101220000Y-36655000D03*
D23*
X101220000Y-39195000D03*
X101220000Y-41735000D03*
X101220000Y-44275000D03*
X101220000Y-46815000D03*
X101220000Y-49355000D03*
%TD*%
D55*
%TO.C,H2*%
X159850000Y26965000D03*
%TD*%
D21*
%TO.C,C77*%
X123603899Y-24389999D03*
X123603899Y-23429999D03*
%TD*%
D36*
%TO.C,TP1*%
X183470000Y20550000D03*
%TD*%
D20*
%TO.C,Y14*%
X181946101Y-30355618D03*
X181946101Y-32855618D03*
%TD*%
D16*
%TO.C,R41*%
X121440000Y-38275000D03*
X119790000Y-38275000D03*
%TD*%
D21*
%TO.C,C22*%
X95830000Y12220100D03*
X95830000Y13180100D03*
%TD*%
D45*
%TO.C,R47*%
X181606099Y-18340618D03*
X183156099Y-18340618D03*
%TD*%
D39*
%TO.C,FB11*%
X180658599Y-14525618D03*
X182483599Y-14525618D03*
%TD*%
D18*
%TO.C,C82*%
X123630000Y-22335000D03*
X122670000Y-22335000D03*
%TD*%
D10*
%TO.C,R46*%
X179216101Y-34315618D03*
X179216101Y-35965618D03*
%TD*%
D48*
%TO.C,Y13*%
X181996101Y-27065618D03*
X184196101Y-27065618D03*
X184196101Y-25365618D03*
X181996101Y-25365618D03*
%TD*%
D15*
%TO.C,C61*%
X157156399Y-47511399D03*
X155256399Y-47511399D03*
%TD*%
D19*
%TO.C,C118*%
X183956101Y-30320618D03*
X183956101Y-31870618D03*
%TD*%
D18*
%TO.C,C43*%
X93760000Y-18880000D03*
X92800000Y-18880000D03*
%TD*%
D11*
%TO.C,C111*%
X183351101Y-44995618D03*
X183351101Y-43095618D03*
%TD*%
D73*
%TO.C,J4*%
X128425000Y24785000D03*
X122645000Y24785000D03*
D74*
X128885000Y23720000D03*
X128085000Y23720000D03*
X126785000Y23720000D03*
X125785000Y23720000D03*
X125285000Y23720000D03*
X124285000Y23720000D03*
X122985000Y23720000D03*
X122185000Y23720000D03*
X122485000Y23720000D03*
X123285000Y23720000D03*
X123785000Y23720000D03*
X124785000Y23720000D03*
X126285000Y23720000D03*
X127285000Y23720000D03*
X127785000Y23720000D03*
X128585000Y23720000D03*
D75*
X129855000Y24285000D03*
D76*
X129855000Y28465000D03*
D75*
X121215000Y24285000D03*
D76*
X121215000Y28465000D03*
%TD*%
M02*
