%TF.GenerationSoftware,KiCad,Pcbnew,9.0.0*%
%TF.CreationDate,2026-01-02T12:40:45+01:00*%
%TF.ProjectId,camera,63616d65-7261-42e6-9b69-6361645f7063,rev?*%
%TF.SameCoordinates,Original*%
%TF.FileFunction,Legend,Bot*%
%TF.FilePolarity,Positive*%
%FSLAX46Y46*%
G04 Gerber Fmt 4.6, Leading zero omitted, Abs format (unit mm)*
G04 Created by KiCad (PCBNEW 9.0.0) date 2026-01-02 12:40:45*
%MOMM*%
%LPD*%
G01*
G04 APERTURE LIST*
%ADD10C,0.150000*%
%ADD11C,0.254000*%
%ADD12C,0.508000*%
%ADD13C,0.120000*%
%ADD14C,0.100000*%
%ADD15C,0.200000*%
%ADD16C,0.250000*%
G04 APERTURE END LIST*
D10*
X114137857Y-14389819D02*
X114471190Y-13913628D01*
X114709285Y-14389819D02*
X114709285Y-13389819D01*
X114709285Y-13389819D02*
X114328333Y-13389819D01*
X114328333Y-13389819D02*
X114233095Y-13437438D01*
X114233095Y-13437438D02*
X114185476Y-13485057D01*
X114185476Y-13485057D02*
X114137857Y-13580295D01*
X114137857Y-13580295D02*
X114137857Y-13723152D01*
X114137857Y-13723152D02*
X114185476Y-13818390D01*
X114185476Y-13818390D02*
X114233095Y-13866009D01*
X114233095Y-13866009D02*
X114328333Y-13913628D01*
X114328333Y-13913628D02*
X114709285Y-13913628D01*
X113233095Y-13389819D02*
X113709285Y-13389819D01*
X113709285Y-13389819D02*
X113756904Y-13866009D01*
X113756904Y-13866009D02*
X113709285Y-13818390D01*
X113709285Y-13818390D02*
X113614047Y-13770771D01*
X113614047Y-13770771D02*
X113375952Y-13770771D01*
X113375952Y-13770771D02*
X113280714Y-13818390D01*
X113280714Y-13818390D02*
X113233095Y-13866009D01*
X113233095Y-13866009D02*
X113185476Y-13961247D01*
X113185476Y-13961247D02*
X113185476Y-14199342D01*
X113185476Y-14199342D02*
X113233095Y-14294580D01*
X113233095Y-14294580D02*
X113280714Y-14342200D01*
X113280714Y-14342200D02*
X113375952Y-14389819D01*
X113375952Y-14389819D02*
X113614047Y-14389819D01*
X113614047Y-14389819D02*
X113709285Y-14342200D01*
X113709285Y-14342200D02*
X113756904Y-14294580D01*
X112709285Y-14389819D02*
X112518809Y-14389819D01*
X112518809Y-14389819D02*
X112423571Y-14342200D01*
X112423571Y-14342200D02*
X112375952Y-14294580D01*
X112375952Y-14294580D02*
X112280714Y-14151723D01*
X112280714Y-14151723D02*
X112233095Y-13961247D01*
X112233095Y-13961247D02*
X112233095Y-13580295D01*
X112233095Y-13580295D02*
X112280714Y-13485057D01*
X112280714Y-13485057D02*
X112328333Y-13437438D01*
X112328333Y-13437438D02*
X112423571Y-13389819D01*
X112423571Y-13389819D02*
X112614047Y-13389819D01*
X112614047Y-13389819D02*
X112709285Y-13437438D01*
X112709285Y-13437438D02*
X112756904Y-13485057D01*
X112756904Y-13485057D02*
X112804523Y-13580295D01*
X112804523Y-13580295D02*
X112804523Y-13818390D01*
X112804523Y-13818390D02*
X112756904Y-13913628D01*
X112756904Y-13913628D02*
X112709285Y-13961247D01*
X112709285Y-13961247D02*
X112614047Y-14008866D01*
X112614047Y-14008866D02*
X112423571Y-14008866D01*
X112423571Y-14008866D02*
X112328333Y-13961247D01*
X112328333Y-13961247D02*
X112280714Y-13913628D01*
X112280714Y-13913628D02*
X112233095Y-13818390D01*
X113305547Y3712023D02*
X113372891Y3712023D01*
X113372891Y3712023D02*
X113507578Y3779367D01*
X113507578Y3779367D02*
X113574921Y3846710D01*
X113574921Y3846710D02*
X113642265Y3981397D01*
X113642265Y3981397D02*
X113642265Y4116084D01*
X113642265Y4116084D02*
X113608593Y4217099D01*
X113608593Y4217099D02*
X113507578Y4385458D01*
X113507578Y4385458D02*
X113406563Y4486474D01*
X113406563Y4486474D02*
X113238204Y4587489D01*
X113238204Y4587489D02*
X113137189Y4621161D01*
X113137189Y4621161D02*
X113002502Y4621161D01*
X113002502Y4621161D02*
X112867815Y4553817D01*
X112867815Y4553817D02*
X112800471Y4486474D01*
X112800471Y4486474D02*
X112733128Y4351787D01*
X112733128Y4351787D02*
X112733128Y4284443D01*
X112699456Y2971245D02*
X113103517Y3375306D01*
X112901486Y3173275D02*
X112194380Y3880382D01*
X112194380Y3880382D02*
X112362738Y3846710D01*
X112362738Y3846710D02*
X112497425Y3846710D01*
X112497425Y3846710D02*
X112598441Y3880382D01*
X111756647Y3442649D02*
X111318914Y3004916D01*
X111318914Y3004916D02*
X111823990Y2971245D01*
X111823990Y2971245D02*
X111722975Y2870229D01*
X111722975Y2870229D02*
X111689303Y2769214D01*
X111689303Y2769214D02*
X111689303Y2701871D01*
X111689303Y2701871D02*
X111722975Y2600855D01*
X111722975Y2600855D02*
X111891334Y2432497D01*
X111891334Y2432497D02*
X111992349Y2398825D01*
X111992349Y2398825D02*
X112059693Y2398825D01*
X112059693Y2398825D02*
X112160708Y2432497D01*
X112160708Y2432497D02*
X112362738Y2634527D01*
X112362738Y2634527D02*
X112396410Y2735542D01*
X112396410Y2735542D02*
X112396410Y2802886D01*
X110712823Y2398825D02*
X110847510Y2533512D01*
X110847510Y2533512D02*
X110948525Y2567184D01*
X110948525Y2567184D02*
X111015868Y2567184D01*
X111015868Y2567184D02*
X111184227Y2533512D01*
X111184227Y2533512D02*
X111352586Y2432497D01*
X111352586Y2432497D02*
X111621960Y2163123D01*
X111621960Y2163123D02*
X111655632Y2062107D01*
X111655632Y2062107D02*
X111655632Y1994764D01*
X111655632Y1994764D02*
X111621960Y1893749D01*
X111621960Y1893749D02*
X111487273Y1759062D01*
X111487273Y1759062D02*
X111386258Y1725390D01*
X111386258Y1725390D02*
X111318914Y1725390D01*
X111318914Y1725390D02*
X111217899Y1759062D01*
X111217899Y1759062D02*
X111049540Y1927420D01*
X111049540Y1927420D02*
X111015868Y2028436D01*
X111015868Y2028436D02*
X111015868Y2095779D01*
X111015868Y2095779D02*
X111049540Y2196794D01*
X111049540Y2196794D02*
X111184227Y2331481D01*
X111184227Y2331481D02*
X111285242Y2365153D01*
X111285242Y2365153D02*
X111352586Y2365153D01*
X111352586Y2365153D02*
X111453601Y2331481D01*
X103642857Y-12474819D02*
X103976190Y-11998628D01*
X104214285Y-12474819D02*
X104214285Y-11474819D01*
X104214285Y-11474819D02*
X103833333Y-11474819D01*
X103833333Y-11474819D02*
X103738095Y-11522438D01*
X103738095Y-11522438D02*
X103690476Y-11570057D01*
X103690476Y-11570057D02*
X103642857Y-11665295D01*
X103642857Y-11665295D02*
X103642857Y-11808152D01*
X103642857Y-11808152D02*
X103690476Y-11903390D01*
X103690476Y-11903390D02*
X103738095Y-11951009D01*
X103738095Y-11951009D02*
X103833333Y-11998628D01*
X103833333Y-11998628D02*
X104214285Y-11998628D01*
X103261904Y-11570057D02*
X103214285Y-11522438D01*
X103214285Y-11522438D02*
X103119047Y-11474819D01*
X103119047Y-11474819D02*
X102880952Y-11474819D01*
X102880952Y-11474819D02*
X102785714Y-11522438D01*
X102785714Y-11522438D02*
X102738095Y-11570057D01*
X102738095Y-11570057D02*
X102690476Y-11665295D01*
X102690476Y-11665295D02*
X102690476Y-11760533D01*
X102690476Y-11760533D02*
X102738095Y-11903390D01*
X102738095Y-11903390D02*
X103309523Y-12474819D01*
X103309523Y-12474819D02*
X102690476Y-12474819D01*
X102357142Y-11474819D02*
X101690476Y-11474819D01*
X101690476Y-11474819D02*
X102119047Y-12474819D01*
X80007857Y-49029580D02*
X80055476Y-49077200D01*
X80055476Y-49077200D02*
X80198333Y-49124819D01*
X80198333Y-49124819D02*
X80293571Y-49124819D01*
X80293571Y-49124819D02*
X80436428Y-49077200D01*
X80436428Y-49077200D02*
X80531666Y-48981961D01*
X80531666Y-48981961D02*
X80579285Y-48886723D01*
X80579285Y-48886723D02*
X80626904Y-48696247D01*
X80626904Y-48696247D02*
X80626904Y-48553390D01*
X80626904Y-48553390D02*
X80579285Y-48362914D01*
X80579285Y-48362914D02*
X80531666Y-48267676D01*
X80531666Y-48267676D02*
X80436428Y-48172438D01*
X80436428Y-48172438D02*
X80293571Y-48124819D01*
X80293571Y-48124819D02*
X80198333Y-48124819D01*
X80198333Y-48124819D02*
X80055476Y-48172438D01*
X80055476Y-48172438D02*
X80007857Y-48220057D01*
X79674523Y-48124819D02*
X79055476Y-48124819D01*
X79055476Y-48124819D02*
X79388809Y-48505771D01*
X79388809Y-48505771D02*
X79245952Y-48505771D01*
X79245952Y-48505771D02*
X79150714Y-48553390D01*
X79150714Y-48553390D02*
X79103095Y-48601009D01*
X79103095Y-48601009D02*
X79055476Y-48696247D01*
X79055476Y-48696247D02*
X79055476Y-48934342D01*
X79055476Y-48934342D02*
X79103095Y-49029580D01*
X79103095Y-49029580D02*
X79150714Y-49077200D01*
X79150714Y-49077200D02*
X79245952Y-49124819D01*
X79245952Y-49124819D02*
X79531666Y-49124819D01*
X79531666Y-49124819D02*
X79626904Y-49077200D01*
X79626904Y-49077200D02*
X79674523Y-49029580D01*
X78674523Y-48220057D02*
X78626904Y-48172438D01*
X78626904Y-48172438D02*
X78531666Y-48124819D01*
X78531666Y-48124819D02*
X78293571Y-48124819D01*
X78293571Y-48124819D02*
X78198333Y-48172438D01*
X78198333Y-48172438D02*
X78150714Y-48220057D01*
X78150714Y-48220057D02*
X78103095Y-48315295D01*
X78103095Y-48315295D02*
X78103095Y-48410533D01*
X78103095Y-48410533D02*
X78150714Y-48553390D01*
X78150714Y-48553390D02*
X78722142Y-49124819D01*
X78722142Y-49124819D02*
X78103095Y-49124819D01*
X141709580Y4944047D02*
X141757200Y4991666D01*
X141757200Y4991666D02*
X141804819Y5134523D01*
X141804819Y5134523D02*
X141804819Y5229761D01*
X141804819Y5229761D02*
X141757200Y5372618D01*
X141757200Y5372618D02*
X141661961Y5467856D01*
X141661961Y5467856D02*
X141566723Y5515475D01*
X141566723Y5515475D02*
X141376247Y5563094D01*
X141376247Y5563094D02*
X141233390Y5563094D01*
X141233390Y5563094D02*
X141042914Y5515475D01*
X141042914Y5515475D02*
X140947676Y5467856D01*
X140947676Y5467856D02*
X140852438Y5372618D01*
X140852438Y5372618D02*
X140804819Y5229761D01*
X140804819Y5229761D02*
X140804819Y5134523D01*
X140804819Y5134523D02*
X140852438Y4991666D01*
X140852438Y4991666D02*
X140900057Y4944047D01*
X141804819Y3991666D02*
X141804819Y4563094D01*
X141804819Y4277380D02*
X140804819Y4277380D01*
X140804819Y4277380D02*
X140947676Y4372618D01*
X140947676Y4372618D02*
X141042914Y4467856D01*
X141042914Y4467856D02*
X141090533Y4563094D01*
X140804819Y3658332D02*
X140804819Y3039285D01*
X140804819Y3039285D02*
X141185771Y3372618D01*
X141185771Y3372618D02*
X141185771Y3229761D01*
X141185771Y3229761D02*
X141233390Y3134523D01*
X141233390Y3134523D02*
X141281009Y3086904D01*
X141281009Y3086904D02*
X141376247Y3039285D01*
X141376247Y3039285D02*
X141614342Y3039285D01*
X141614342Y3039285D02*
X141709580Y3086904D01*
X141709580Y3086904D02*
X141757200Y3134523D01*
X141757200Y3134523D02*
X141804819Y3229761D01*
X141804819Y3229761D02*
X141804819Y3515475D01*
X141804819Y3515475D02*
X141757200Y3610713D01*
X141757200Y3610713D02*
X141709580Y3658332D01*
X140900057Y2658332D02*
X140852438Y2610713D01*
X140852438Y2610713D02*
X140804819Y2515475D01*
X140804819Y2515475D02*
X140804819Y2277380D01*
X140804819Y2277380D02*
X140852438Y2182142D01*
X140852438Y2182142D02*
X140900057Y2134523D01*
X140900057Y2134523D02*
X140995295Y2086904D01*
X140995295Y2086904D02*
X141090533Y2086904D01*
X141090533Y2086904D02*
X141233390Y2134523D01*
X141233390Y2134523D02*
X141804819Y2705951D01*
X141804819Y2705951D02*
X141804819Y2086904D01*
X168505920Y-32497760D02*
X168029729Y-32164427D01*
X168505920Y-31926332D02*
X167505920Y-31926332D01*
X167505920Y-31926332D02*
X167505920Y-32307284D01*
X167505920Y-32307284D02*
X167553539Y-32402522D01*
X167553539Y-32402522D02*
X167601158Y-32450141D01*
X167601158Y-32450141D02*
X167696396Y-32497760D01*
X167696396Y-32497760D02*
X167839253Y-32497760D01*
X167839253Y-32497760D02*
X167934491Y-32450141D01*
X167934491Y-32450141D02*
X167982110Y-32402522D01*
X167982110Y-32402522D02*
X168029729Y-32307284D01*
X168029729Y-32307284D02*
X168029729Y-31926332D01*
X167505920Y-33402522D02*
X167505920Y-32926332D01*
X167505920Y-32926332D02*
X167982110Y-32878713D01*
X167982110Y-32878713D02*
X167934491Y-32926332D01*
X167934491Y-32926332D02*
X167886872Y-33021570D01*
X167886872Y-33021570D02*
X167886872Y-33259665D01*
X167886872Y-33259665D02*
X167934491Y-33354903D01*
X167934491Y-33354903D02*
X167982110Y-33402522D01*
X167982110Y-33402522D02*
X168077348Y-33450141D01*
X168077348Y-33450141D02*
X168315443Y-33450141D01*
X168315443Y-33450141D02*
X168410681Y-33402522D01*
X168410681Y-33402522D02*
X168458301Y-33354903D01*
X168458301Y-33354903D02*
X168505920Y-33259665D01*
X168505920Y-33259665D02*
X168505920Y-33021570D01*
X168505920Y-33021570D02*
X168458301Y-32926332D01*
X168458301Y-32926332D02*
X168410681Y-32878713D01*
X167601158Y-33831094D02*
X167553539Y-33878713D01*
X167553539Y-33878713D02*
X167505920Y-33973951D01*
X167505920Y-33973951D02*
X167505920Y-34212046D01*
X167505920Y-34212046D02*
X167553539Y-34307284D01*
X167553539Y-34307284D02*
X167601158Y-34354903D01*
X167601158Y-34354903D02*
X167696396Y-34402522D01*
X167696396Y-34402522D02*
X167791634Y-34402522D01*
X167791634Y-34402522D02*
X167934491Y-34354903D01*
X167934491Y-34354903D02*
X168505920Y-33783475D01*
X168505920Y-33783475D02*
X168505920Y-34402522D01*
X140657319Y-32229642D02*
X140181128Y-31896309D01*
X140657319Y-31658214D02*
X139657319Y-31658214D01*
X139657319Y-31658214D02*
X139657319Y-32039166D01*
X139657319Y-32039166D02*
X139704938Y-32134404D01*
X139704938Y-32134404D02*
X139752557Y-32182023D01*
X139752557Y-32182023D02*
X139847795Y-32229642D01*
X139847795Y-32229642D02*
X139990652Y-32229642D01*
X139990652Y-32229642D02*
X140085890Y-32182023D01*
X140085890Y-32182023D02*
X140133509Y-32134404D01*
X140133509Y-32134404D02*
X140181128Y-32039166D01*
X140181128Y-32039166D02*
X140181128Y-31658214D01*
X139657319Y-32562976D02*
X139657319Y-33182023D01*
X139657319Y-33182023D02*
X140038271Y-32848690D01*
X140038271Y-32848690D02*
X140038271Y-32991547D01*
X140038271Y-32991547D02*
X140085890Y-33086785D01*
X140085890Y-33086785D02*
X140133509Y-33134404D01*
X140133509Y-33134404D02*
X140228747Y-33182023D01*
X140228747Y-33182023D02*
X140466842Y-33182023D01*
X140466842Y-33182023D02*
X140562080Y-33134404D01*
X140562080Y-33134404D02*
X140609700Y-33086785D01*
X140609700Y-33086785D02*
X140657319Y-32991547D01*
X140657319Y-32991547D02*
X140657319Y-32705833D01*
X140657319Y-32705833D02*
X140609700Y-32610595D01*
X140609700Y-32610595D02*
X140562080Y-32562976D01*
X139657319Y-34039166D02*
X139657319Y-33848690D01*
X139657319Y-33848690D02*
X139704938Y-33753452D01*
X139704938Y-33753452D02*
X139752557Y-33705833D01*
X139752557Y-33705833D02*
X139895414Y-33610595D01*
X139895414Y-33610595D02*
X140085890Y-33562976D01*
X140085890Y-33562976D02*
X140466842Y-33562976D01*
X140466842Y-33562976D02*
X140562080Y-33610595D01*
X140562080Y-33610595D02*
X140609700Y-33658214D01*
X140609700Y-33658214D02*
X140657319Y-33753452D01*
X140657319Y-33753452D02*
X140657319Y-33943928D01*
X140657319Y-33943928D02*
X140609700Y-34039166D01*
X140609700Y-34039166D02*
X140562080Y-34086785D01*
X140562080Y-34086785D02*
X140466842Y-34134404D01*
X140466842Y-34134404D02*
X140228747Y-34134404D01*
X140228747Y-34134404D02*
X140133509Y-34086785D01*
X140133509Y-34086785D02*
X140085890Y-34039166D01*
X140085890Y-34039166D02*
X140038271Y-33943928D01*
X140038271Y-33943928D02*
X140038271Y-33753452D01*
X140038271Y-33753452D02*
X140085890Y-33658214D01*
X140085890Y-33658214D02*
X140133509Y-33610595D01*
X140133509Y-33610595D02*
X140228747Y-33562976D01*
X119523479Y-26911041D02*
X119571099Y-26863422D01*
X119571099Y-26863422D02*
X119618718Y-26720565D01*
X119618718Y-26720565D02*
X119618718Y-26625327D01*
X119618718Y-26625327D02*
X119571099Y-26482470D01*
X119571099Y-26482470D02*
X119475860Y-26387232D01*
X119475860Y-26387232D02*
X119380622Y-26339613D01*
X119380622Y-26339613D02*
X119190146Y-26291994D01*
X119190146Y-26291994D02*
X119047289Y-26291994D01*
X119047289Y-26291994D02*
X118856813Y-26339613D01*
X118856813Y-26339613D02*
X118761575Y-26387232D01*
X118761575Y-26387232D02*
X118666337Y-26482470D01*
X118666337Y-26482470D02*
X118618718Y-26625327D01*
X118618718Y-26625327D02*
X118618718Y-26720565D01*
X118618718Y-26720565D02*
X118666337Y-26863422D01*
X118666337Y-26863422D02*
X118713956Y-26911041D01*
X119618718Y-27387232D02*
X119618718Y-27577708D01*
X119618718Y-27577708D02*
X119571099Y-27672946D01*
X119571099Y-27672946D02*
X119523479Y-27720565D01*
X119523479Y-27720565D02*
X119380622Y-27815803D01*
X119380622Y-27815803D02*
X119190146Y-27863422D01*
X119190146Y-27863422D02*
X118809194Y-27863422D01*
X118809194Y-27863422D02*
X118713956Y-27815803D01*
X118713956Y-27815803D02*
X118666337Y-27768184D01*
X118666337Y-27768184D02*
X118618718Y-27672946D01*
X118618718Y-27672946D02*
X118618718Y-27482470D01*
X118618718Y-27482470D02*
X118666337Y-27387232D01*
X118666337Y-27387232D02*
X118713956Y-27339613D01*
X118713956Y-27339613D02*
X118809194Y-27291994D01*
X118809194Y-27291994D02*
X119047289Y-27291994D01*
X119047289Y-27291994D02*
X119142527Y-27339613D01*
X119142527Y-27339613D02*
X119190146Y-27387232D01*
X119190146Y-27387232D02*
X119237765Y-27482470D01*
X119237765Y-27482470D02*
X119237765Y-27672946D01*
X119237765Y-27672946D02*
X119190146Y-27768184D01*
X119190146Y-27768184D02*
X119142527Y-27815803D01*
X119142527Y-27815803D02*
X119047289Y-27863422D01*
X118618718Y-28196756D02*
X118618718Y-28863422D01*
X118618718Y-28863422D02*
X119618718Y-28434851D01*
X139749580Y4904047D02*
X139797200Y4951666D01*
X139797200Y4951666D02*
X139844819Y5094523D01*
X139844819Y5094523D02*
X139844819Y5189761D01*
X139844819Y5189761D02*
X139797200Y5332618D01*
X139797200Y5332618D02*
X139701961Y5427856D01*
X139701961Y5427856D02*
X139606723Y5475475D01*
X139606723Y5475475D02*
X139416247Y5523094D01*
X139416247Y5523094D02*
X139273390Y5523094D01*
X139273390Y5523094D02*
X139082914Y5475475D01*
X139082914Y5475475D02*
X138987676Y5427856D01*
X138987676Y5427856D02*
X138892438Y5332618D01*
X138892438Y5332618D02*
X138844819Y5189761D01*
X138844819Y5189761D02*
X138844819Y5094523D01*
X138844819Y5094523D02*
X138892438Y4951666D01*
X138892438Y4951666D02*
X138940057Y4904047D01*
X139844819Y3951666D02*
X139844819Y4523094D01*
X139844819Y4237380D02*
X138844819Y4237380D01*
X138844819Y4237380D02*
X138987676Y4332618D01*
X138987676Y4332618D02*
X139082914Y4427856D01*
X139082914Y4427856D02*
X139130533Y4523094D01*
X138844819Y3618332D02*
X138844819Y2999285D01*
X138844819Y2999285D02*
X139225771Y3332618D01*
X139225771Y3332618D02*
X139225771Y3189761D01*
X139225771Y3189761D02*
X139273390Y3094523D01*
X139273390Y3094523D02*
X139321009Y3046904D01*
X139321009Y3046904D02*
X139416247Y2999285D01*
X139416247Y2999285D02*
X139654342Y2999285D01*
X139654342Y2999285D02*
X139749580Y3046904D01*
X139749580Y3046904D02*
X139797200Y3094523D01*
X139797200Y3094523D02*
X139844819Y3189761D01*
X139844819Y3189761D02*
X139844819Y3475475D01*
X139844819Y3475475D02*
X139797200Y3570713D01*
X139797200Y3570713D02*
X139749580Y3618332D01*
X139844819Y2046904D02*
X139844819Y2618332D01*
X139844819Y2332618D02*
X138844819Y2332618D01*
X138844819Y2332618D02*
X138987676Y2427856D01*
X138987676Y2427856D02*
X139082914Y2523094D01*
X139082914Y2523094D02*
X139130533Y2618332D01*
X75628628Y-27633809D02*
X76104819Y-27633809D01*
X75104819Y-27300476D02*
X75628628Y-27633809D01*
X75628628Y-27633809D02*
X75104819Y-27967142D01*
X75104819Y-28729047D02*
X75104819Y-28538571D01*
X75104819Y-28538571D02*
X75152438Y-28443333D01*
X75152438Y-28443333D02*
X75200057Y-28395714D01*
X75200057Y-28395714D02*
X75342914Y-28300476D01*
X75342914Y-28300476D02*
X75533390Y-28252857D01*
X75533390Y-28252857D02*
X75914342Y-28252857D01*
X75914342Y-28252857D02*
X76009580Y-28300476D01*
X76009580Y-28300476D02*
X76057200Y-28348095D01*
X76057200Y-28348095D02*
X76104819Y-28443333D01*
X76104819Y-28443333D02*
X76104819Y-28633809D01*
X76104819Y-28633809D02*
X76057200Y-28729047D01*
X76057200Y-28729047D02*
X76009580Y-28776666D01*
X76009580Y-28776666D02*
X75914342Y-28824285D01*
X75914342Y-28824285D02*
X75676247Y-28824285D01*
X75676247Y-28824285D02*
X75581009Y-28776666D01*
X75581009Y-28776666D02*
X75533390Y-28729047D01*
X75533390Y-28729047D02*
X75485771Y-28633809D01*
X75485771Y-28633809D02*
X75485771Y-28443333D01*
X75485771Y-28443333D02*
X75533390Y-28348095D01*
X75533390Y-28348095D02*
X75581009Y-28300476D01*
X75581009Y-28300476D02*
X75676247Y-28252857D01*
X150614580Y-25907142D02*
X150662200Y-25859523D01*
X150662200Y-25859523D02*
X150709819Y-25716666D01*
X150709819Y-25716666D02*
X150709819Y-25621428D01*
X150709819Y-25621428D02*
X150662200Y-25478571D01*
X150662200Y-25478571D02*
X150566961Y-25383333D01*
X150566961Y-25383333D02*
X150471723Y-25335714D01*
X150471723Y-25335714D02*
X150281247Y-25288095D01*
X150281247Y-25288095D02*
X150138390Y-25288095D01*
X150138390Y-25288095D02*
X149947914Y-25335714D01*
X149947914Y-25335714D02*
X149852676Y-25383333D01*
X149852676Y-25383333D02*
X149757438Y-25478571D01*
X149757438Y-25478571D02*
X149709819Y-25621428D01*
X149709819Y-25621428D02*
X149709819Y-25716666D01*
X149709819Y-25716666D02*
X149757438Y-25859523D01*
X149757438Y-25859523D02*
X149805057Y-25907142D01*
X149709819Y-26240476D02*
X149709819Y-26907142D01*
X149709819Y-26907142D02*
X150709819Y-26478571D01*
X150043152Y-27716666D02*
X150709819Y-27716666D01*
X149662200Y-27478571D02*
X150376485Y-27240476D01*
X150376485Y-27240476D02*
X150376485Y-27859523D01*
X99182857Y-2554580D02*
X99230476Y-2602200D01*
X99230476Y-2602200D02*
X99373333Y-2649819D01*
X99373333Y-2649819D02*
X99468571Y-2649819D01*
X99468571Y-2649819D02*
X99611428Y-2602200D01*
X99611428Y-2602200D02*
X99706666Y-2506961D01*
X99706666Y-2506961D02*
X99754285Y-2411723D01*
X99754285Y-2411723D02*
X99801904Y-2221247D01*
X99801904Y-2221247D02*
X99801904Y-2078390D01*
X99801904Y-2078390D02*
X99754285Y-1887914D01*
X99754285Y-1887914D02*
X99706666Y-1792676D01*
X99706666Y-1792676D02*
X99611428Y-1697438D01*
X99611428Y-1697438D02*
X99468571Y-1649819D01*
X99468571Y-1649819D02*
X99373333Y-1649819D01*
X99373333Y-1649819D02*
X99230476Y-1697438D01*
X99230476Y-1697438D02*
X99182857Y-1745057D01*
X98230476Y-2649819D02*
X98801904Y-2649819D01*
X98516190Y-2649819D02*
X98516190Y-1649819D01*
X98516190Y-1649819D02*
X98611428Y-1792676D01*
X98611428Y-1792676D02*
X98706666Y-1887914D01*
X98706666Y-1887914D02*
X98801904Y-1935533D01*
X97897142Y-1649819D02*
X97278095Y-1649819D01*
X97278095Y-1649819D02*
X97611428Y-2030771D01*
X97611428Y-2030771D02*
X97468571Y-2030771D01*
X97468571Y-2030771D02*
X97373333Y-2078390D01*
X97373333Y-2078390D02*
X97325714Y-2126009D01*
X97325714Y-2126009D02*
X97278095Y-2221247D01*
X97278095Y-2221247D02*
X97278095Y-2459342D01*
X97278095Y-2459342D02*
X97325714Y-2554580D01*
X97325714Y-2554580D02*
X97373333Y-2602200D01*
X97373333Y-2602200D02*
X97468571Y-2649819D01*
X97468571Y-2649819D02*
X97754285Y-2649819D01*
X97754285Y-2649819D02*
X97849523Y-2602200D01*
X97849523Y-2602200D02*
X97897142Y-2554580D01*
X157237857Y-3459819D02*
X157571190Y-2983628D01*
X157809285Y-3459819D02*
X157809285Y-2459819D01*
X157809285Y-2459819D02*
X157428333Y-2459819D01*
X157428333Y-2459819D02*
X157333095Y-2507438D01*
X157333095Y-2507438D02*
X157285476Y-2555057D01*
X157285476Y-2555057D02*
X157237857Y-2650295D01*
X157237857Y-2650295D02*
X157237857Y-2793152D01*
X157237857Y-2793152D02*
X157285476Y-2888390D01*
X157285476Y-2888390D02*
X157333095Y-2936009D01*
X157333095Y-2936009D02*
X157428333Y-2983628D01*
X157428333Y-2983628D02*
X157809285Y-2983628D01*
X156380714Y-2459819D02*
X156571190Y-2459819D01*
X156571190Y-2459819D02*
X156666428Y-2507438D01*
X156666428Y-2507438D02*
X156714047Y-2555057D01*
X156714047Y-2555057D02*
X156809285Y-2697914D01*
X156809285Y-2697914D02*
X156856904Y-2888390D01*
X156856904Y-2888390D02*
X156856904Y-3269342D01*
X156856904Y-3269342D02*
X156809285Y-3364580D01*
X156809285Y-3364580D02*
X156761666Y-3412200D01*
X156761666Y-3412200D02*
X156666428Y-3459819D01*
X156666428Y-3459819D02*
X156475952Y-3459819D01*
X156475952Y-3459819D02*
X156380714Y-3412200D01*
X156380714Y-3412200D02*
X156333095Y-3364580D01*
X156333095Y-3364580D02*
X156285476Y-3269342D01*
X156285476Y-3269342D02*
X156285476Y-3031247D01*
X156285476Y-3031247D02*
X156333095Y-2936009D01*
X156333095Y-2936009D02*
X156380714Y-2888390D01*
X156380714Y-2888390D02*
X156475952Y-2840771D01*
X156475952Y-2840771D02*
X156666428Y-2840771D01*
X156666428Y-2840771D02*
X156761666Y-2888390D01*
X156761666Y-2888390D02*
X156809285Y-2936009D01*
X156809285Y-2936009D02*
X156856904Y-3031247D01*
X155333095Y-3459819D02*
X155904523Y-3459819D01*
X155618809Y-3459819D02*
X155618809Y-2459819D01*
X155618809Y-2459819D02*
X155714047Y-2602676D01*
X155714047Y-2602676D02*
X155809285Y-2697914D01*
X155809285Y-2697914D02*
X155904523Y-2745533D01*
X141714580Y12809047D02*
X141762200Y12856666D01*
X141762200Y12856666D02*
X141809819Y12999523D01*
X141809819Y12999523D02*
X141809819Y13094761D01*
X141809819Y13094761D02*
X141762200Y13237618D01*
X141762200Y13237618D02*
X141666961Y13332856D01*
X141666961Y13332856D02*
X141571723Y13380475D01*
X141571723Y13380475D02*
X141381247Y13428094D01*
X141381247Y13428094D02*
X141238390Y13428094D01*
X141238390Y13428094D02*
X141047914Y13380475D01*
X141047914Y13380475D02*
X140952676Y13332856D01*
X140952676Y13332856D02*
X140857438Y13237618D01*
X140857438Y13237618D02*
X140809819Y13094761D01*
X140809819Y13094761D02*
X140809819Y12999523D01*
X140809819Y12999523D02*
X140857438Y12856666D01*
X140857438Y12856666D02*
X140905057Y12809047D01*
X141809819Y11856666D02*
X141809819Y12428094D01*
X141809819Y12142380D02*
X140809819Y12142380D01*
X140809819Y12142380D02*
X140952676Y12237618D01*
X140952676Y12237618D02*
X141047914Y12332856D01*
X141047914Y12332856D02*
X141095533Y12428094D01*
X140809819Y11523332D02*
X140809819Y10904285D01*
X140809819Y10904285D02*
X141190771Y11237618D01*
X141190771Y11237618D02*
X141190771Y11094761D01*
X141190771Y11094761D02*
X141238390Y10999523D01*
X141238390Y10999523D02*
X141286009Y10951904D01*
X141286009Y10951904D02*
X141381247Y10904285D01*
X141381247Y10904285D02*
X141619342Y10904285D01*
X141619342Y10904285D02*
X141714580Y10951904D01*
X141714580Y10951904D02*
X141762200Y10999523D01*
X141762200Y10999523D02*
X141809819Y11094761D01*
X141809819Y11094761D02*
X141809819Y11380475D01*
X141809819Y11380475D02*
X141762200Y11475713D01*
X141762200Y11475713D02*
X141714580Y11523332D01*
X140809819Y10570951D02*
X140809819Y9951904D01*
X140809819Y9951904D02*
X141190771Y10285237D01*
X141190771Y10285237D02*
X141190771Y10142380D01*
X141190771Y10142380D02*
X141238390Y10047142D01*
X141238390Y10047142D02*
X141286009Y9999523D01*
X141286009Y9999523D02*
X141381247Y9951904D01*
X141381247Y9951904D02*
X141619342Y9951904D01*
X141619342Y9951904D02*
X141714580Y9999523D01*
X141714580Y9999523D02*
X141762200Y10047142D01*
X141762200Y10047142D02*
X141809819Y10142380D01*
X141809819Y10142380D02*
X141809819Y10428094D01*
X141809819Y10428094D02*
X141762200Y10523332D01*
X141762200Y10523332D02*
X141714580Y10570951D01*
X171034047Y-51164580D02*
X171081666Y-51212200D01*
X171081666Y-51212200D02*
X171224523Y-51259819D01*
X171224523Y-51259819D02*
X171319761Y-51259819D01*
X171319761Y-51259819D02*
X171462618Y-51212200D01*
X171462618Y-51212200D02*
X171557856Y-51116961D01*
X171557856Y-51116961D02*
X171605475Y-51021723D01*
X171605475Y-51021723D02*
X171653094Y-50831247D01*
X171653094Y-50831247D02*
X171653094Y-50688390D01*
X171653094Y-50688390D02*
X171605475Y-50497914D01*
X171605475Y-50497914D02*
X171557856Y-50402676D01*
X171557856Y-50402676D02*
X171462618Y-50307438D01*
X171462618Y-50307438D02*
X171319761Y-50259819D01*
X171319761Y-50259819D02*
X171224523Y-50259819D01*
X171224523Y-50259819D02*
X171081666Y-50307438D01*
X171081666Y-50307438D02*
X171034047Y-50355057D01*
X170081666Y-51259819D02*
X170653094Y-51259819D01*
X170367380Y-51259819D02*
X170367380Y-50259819D01*
X170367380Y-50259819D02*
X170462618Y-50402676D01*
X170462618Y-50402676D02*
X170557856Y-50497914D01*
X170557856Y-50497914D02*
X170653094Y-50545533D01*
X169462618Y-50259819D02*
X169367380Y-50259819D01*
X169367380Y-50259819D02*
X169272142Y-50307438D01*
X169272142Y-50307438D02*
X169224523Y-50355057D01*
X169224523Y-50355057D02*
X169176904Y-50450295D01*
X169176904Y-50450295D02*
X169129285Y-50640771D01*
X169129285Y-50640771D02*
X169129285Y-50878866D01*
X169129285Y-50878866D02*
X169176904Y-51069342D01*
X169176904Y-51069342D02*
X169224523Y-51164580D01*
X169224523Y-51164580D02*
X169272142Y-51212200D01*
X169272142Y-51212200D02*
X169367380Y-51259819D01*
X169367380Y-51259819D02*
X169462618Y-51259819D01*
X169462618Y-51259819D02*
X169557856Y-51212200D01*
X169557856Y-51212200D02*
X169605475Y-51164580D01*
X169605475Y-51164580D02*
X169653094Y-51069342D01*
X169653094Y-51069342D02*
X169700713Y-50878866D01*
X169700713Y-50878866D02*
X169700713Y-50640771D01*
X169700713Y-50640771D02*
X169653094Y-50450295D01*
X169653094Y-50450295D02*
X169605475Y-50355057D01*
X169605475Y-50355057D02*
X169557856Y-50307438D01*
X169557856Y-50307438D02*
X169462618Y-50259819D01*
X168176904Y-51259819D02*
X168748332Y-51259819D01*
X168462618Y-51259819D02*
X168462618Y-50259819D01*
X168462618Y-50259819D02*
X168557856Y-50402676D01*
X168557856Y-50402676D02*
X168653094Y-50497914D01*
X168653094Y-50497914D02*
X168748332Y-50545533D01*
X176588958Y-13629336D02*
X176922291Y-13153145D01*
X177160386Y-13629336D02*
X177160386Y-12629336D01*
X177160386Y-12629336D02*
X176779434Y-12629336D01*
X176779434Y-12629336D02*
X176684196Y-12676955D01*
X176684196Y-12676955D02*
X176636577Y-12724574D01*
X176636577Y-12724574D02*
X176588958Y-12819812D01*
X176588958Y-12819812D02*
X176588958Y-12962669D01*
X176588958Y-12962669D02*
X176636577Y-13057907D01*
X176636577Y-13057907D02*
X176684196Y-13105526D01*
X176684196Y-13105526D02*
X176779434Y-13153145D01*
X176779434Y-13153145D02*
X177160386Y-13153145D01*
X175684196Y-12629336D02*
X176160386Y-12629336D01*
X176160386Y-12629336D02*
X176208005Y-13105526D01*
X176208005Y-13105526D02*
X176160386Y-13057907D01*
X176160386Y-13057907D02*
X176065148Y-13010288D01*
X176065148Y-13010288D02*
X175827053Y-13010288D01*
X175827053Y-13010288D02*
X175731815Y-13057907D01*
X175731815Y-13057907D02*
X175684196Y-13105526D01*
X175684196Y-13105526D02*
X175636577Y-13200764D01*
X175636577Y-13200764D02*
X175636577Y-13438859D01*
X175636577Y-13438859D02*
X175684196Y-13534097D01*
X175684196Y-13534097D02*
X175731815Y-13581717D01*
X175731815Y-13581717D02*
X175827053Y-13629336D01*
X175827053Y-13629336D02*
X176065148Y-13629336D01*
X176065148Y-13629336D02*
X176160386Y-13581717D01*
X176160386Y-13581717D02*
X176208005Y-13534097D01*
X174779434Y-12629336D02*
X174969910Y-12629336D01*
X174969910Y-12629336D02*
X175065148Y-12676955D01*
X175065148Y-12676955D02*
X175112767Y-12724574D01*
X175112767Y-12724574D02*
X175208005Y-12867431D01*
X175208005Y-12867431D02*
X175255624Y-13057907D01*
X175255624Y-13057907D02*
X175255624Y-13438859D01*
X175255624Y-13438859D02*
X175208005Y-13534097D01*
X175208005Y-13534097D02*
X175160386Y-13581717D01*
X175160386Y-13581717D02*
X175065148Y-13629336D01*
X175065148Y-13629336D02*
X174874672Y-13629336D01*
X174874672Y-13629336D02*
X174779434Y-13581717D01*
X174779434Y-13581717D02*
X174731815Y-13534097D01*
X174731815Y-13534097D02*
X174684196Y-13438859D01*
X174684196Y-13438859D02*
X174684196Y-13200764D01*
X174684196Y-13200764D02*
X174731815Y-13105526D01*
X174731815Y-13105526D02*
X174779434Y-13057907D01*
X174779434Y-13057907D02*
X174874672Y-13010288D01*
X174874672Y-13010288D02*
X175065148Y-13010288D01*
X175065148Y-13010288D02*
X175160386Y-13057907D01*
X175160386Y-13057907D02*
X175208005Y-13105526D01*
X175208005Y-13105526D02*
X175255624Y-13200764D01*
X114830547Y2402022D02*
X114897891Y2402022D01*
X114897891Y2402022D02*
X115032578Y2469366D01*
X115032578Y2469366D02*
X115099921Y2536709D01*
X115099921Y2536709D02*
X115167265Y2671396D01*
X115167265Y2671396D02*
X115167265Y2806083D01*
X115167265Y2806083D02*
X115133593Y2907098D01*
X115133593Y2907098D02*
X115032578Y3075457D01*
X115032578Y3075457D02*
X114931563Y3176473D01*
X114931563Y3176473D02*
X114763204Y3277488D01*
X114763204Y3277488D02*
X114662189Y3311160D01*
X114662189Y3311160D02*
X114527502Y3311160D01*
X114527502Y3311160D02*
X114392815Y3243816D01*
X114392815Y3243816D02*
X114325471Y3176473D01*
X114325471Y3176473D02*
X114258128Y3041786D01*
X114258128Y3041786D02*
X114258128Y2974442D01*
X114224456Y1661244D02*
X114628517Y2065305D01*
X114426486Y1863274D02*
X113719380Y2570381D01*
X113719380Y2570381D02*
X113887738Y2536709D01*
X113887738Y2536709D02*
X114022425Y2536709D01*
X114022425Y2536709D02*
X114123441Y2570381D01*
X113281647Y2132648D02*
X112843914Y1694915D01*
X112843914Y1694915D02*
X113348990Y1661244D01*
X113348990Y1661244D02*
X113247975Y1560228D01*
X113247975Y1560228D02*
X113214303Y1459213D01*
X113214303Y1459213D02*
X113214303Y1391870D01*
X113214303Y1391870D02*
X113247975Y1290854D01*
X113247975Y1290854D02*
X113416334Y1122496D01*
X113416334Y1122496D02*
X113517349Y1088824D01*
X113517349Y1088824D02*
X113584693Y1088824D01*
X113584693Y1088824D02*
X113685708Y1122496D01*
X113685708Y1122496D02*
X113887738Y1324526D01*
X113887738Y1324526D02*
X113921410Y1425541D01*
X113921410Y1425541D02*
X113921410Y1492885D01*
X112204151Y1055152D02*
X112540868Y1391870D01*
X112540868Y1391870D02*
X112911258Y1088824D01*
X112911258Y1088824D02*
X112843914Y1088824D01*
X112843914Y1088824D02*
X112742899Y1055152D01*
X112742899Y1055152D02*
X112574540Y886793D01*
X112574540Y886793D02*
X112540868Y785778D01*
X112540868Y785778D02*
X112540868Y718435D01*
X112540868Y718435D02*
X112574540Y617419D01*
X112574540Y617419D02*
X112742899Y449061D01*
X112742899Y449061D02*
X112843914Y415389D01*
X112843914Y415389D02*
X112911258Y415389D01*
X112911258Y415389D02*
X113012273Y449061D01*
X113012273Y449061D02*
X113180632Y617419D01*
X113180632Y617419D02*
X113214303Y718435D01*
X113214303Y718435D02*
X113214303Y785778D01*
D11*
X130688094Y13865681D02*
X130688094Y12958538D01*
X130688094Y12958538D02*
X130748571Y12777110D01*
X130748571Y12777110D02*
X130869523Y12656158D01*
X130869523Y12656158D02*
X131050952Y12595681D01*
X131050952Y12595681D02*
X131171904Y12595681D01*
X129418094Y12595681D02*
X130143809Y12595681D01*
X129780952Y12595681D02*
X129780952Y13865681D01*
X129780952Y13865681D02*
X129901904Y13684253D01*
X129901904Y13684253D02*
X130022856Y13563300D01*
X130022856Y13563300D02*
X130143809Y13502824D01*
X128269047Y13865681D02*
X128873809Y13865681D01*
X128873809Y13865681D02*
X128934285Y13260919D01*
X128934285Y13260919D02*
X128873809Y13321396D01*
X128873809Y13321396D02*
X128752856Y13381872D01*
X128752856Y13381872D02*
X128450475Y13381872D01*
X128450475Y13381872D02*
X128329523Y13321396D01*
X128329523Y13321396D02*
X128269047Y13260919D01*
X128269047Y13260919D02*
X128208570Y13139967D01*
X128208570Y13139967D02*
X128208570Y12837586D01*
X128208570Y12837586D02*
X128269047Y12716634D01*
X128269047Y12716634D02*
X128329523Y12656158D01*
X128329523Y12656158D02*
X128450475Y12595681D01*
X128450475Y12595681D02*
X128752856Y12595681D01*
X128752856Y12595681D02*
X128873809Y12656158D01*
X128873809Y12656158D02*
X128934285Y12716634D01*
D10*
X112962857Y-51284580D02*
X113010476Y-51332200D01*
X113010476Y-51332200D02*
X113153333Y-51379819D01*
X113153333Y-51379819D02*
X113248571Y-51379819D01*
X113248571Y-51379819D02*
X113391428Y-51332200D01*
X113391428Y-51332200D02*
X113486666Y-51236961D01*
X113486666Y-51236961D02*
X113534285Y-51141723D01*
X113534285Y-51141723D02*
X113581904Y-50951247D01*
X113581904Y-50951247D02*
X113581904Y-50808390D01*
X113581904Y-50808390D02*
X113534285Y-50617914D01*
X113534285Y-50617914D02*
X113486666Y-50522676D01*
X113486666Y-50522676D02*
X113391428Y-50427438D01*
X113391428Y-50427438D02*
X113248571Y-50379819D01*
X113248571Y-50379819D02*
X113153333Y-50379819D01*
X113153333Y-50379819D02*
X113010476Y-50427438D01*
X113010476Y-50427438D02*
X112962857Y-50475057D01*
X112629523Y-50379819D02*
X111962857Y-50379819D01*
X111962857Y-50379819D02*
X112391428Y-51379819D01*
X111439047Y-50808390D02*
X111534285Y-50760771D01*
X111534285Y-50760771D02*
X111581904Y-50713152D01*
X111581904Y-50713152D02*
X111629523Y-50617914D01*
X111629523Y-50617914D02*
X111629523Y-50570295D01*
X111629523Y-50570295D02*
X111581904Y-50475057D01*
X111581904Y-50475057D02*
X111534285Y-50427438D01*
X111534285Y-50427438D02*
X111439047Y-50379819D01*
X111439047Y-50379819D02*
X111248571Y-50379819D01*
X111248571Y-50379819D02*
X111153333Y-50427438D01*
X111153333Y-50427438D02*
X111105714Y-50475057D01*
X111105714Y-50475057D02*
X111058095Y-50570295D01*
X111058095Y-50570295D02*
X111058095Y-50617914D01*
X111058095Y-50617914D02*
X111105714Y-50713152D01*
X111105714Y-50713152D02*
X111153333Y-50760771D01*
X111153333Y-50760771D02*
X111248571Y-50808390D01*
X111248571Y-50808390D02*
X111439047Y-50808390D01*
X111439047Y-50808390D02*
X111534285Y-50856009D01*
X111534285Y-50856009D02*
X111581904Y-50903628D01*
X111581904Y-50903628D02*
X111629523Y-50998866D01*
X111629523Y-50998866D02*
X111629523Y-51189342D01*
X111629523Y-51189342D02*
X111581904Y-51284580D01*
X111581904Y-51284580D02*
X111534285Y-51332200D01*
X111534285Y-51332200D02*
X111439047Y-51379819D01*
X111439047Y-51379819D02*
X111248571Y-51379819D01*
X111248571Y-51379819D02*
X111153333Y-51332200D01*
X111153333Y-51332200D02*
X111105714Y-51284580D01*
X111105714Y-51284580D02*
X111058095Y-51189342D01*
X111058095Y-51189342D02*
X111058095Y-50998866D01*
X111058095Y-50998866D02*
X111105714Y-50903628D01*
X111105714Y-50903628D02*
X111153333Y-50856009D01*
X111153333Y-50856009D02*
X111248571Y-50808390D01*
X90012857Y-14163718D02*
X90346190Y-13687527D01*
X90584285Y-14163718D02*
X90584285Y-13163718D01*
X90584285Y-13163718D02*
X90203333Y-13163718D01*
X90203333Y-13163718D02*
X90108095Y-13211337D01*
X90108095Y-13211337D02*
X90060476Y-13258956D01*
X90060476Y-13258956D02*
X90012857Y-13354194D01*
X90012857Y-13354194D02*
X90012857Y-13497051D01*
X90012857Y-13497051D02*
X90060476Y-13592289D01*
X90060476Y-13592289D02*
X90108095Y-13639908D01*
X90108095Y-13639908D02*
X90203333Y-13687527D01*
X90203333Y-13687527D02*
X90584285Y-13687527D01*
X89108095Y-13163718D02*
X89584285Y-13163718D01*
X89584285Y-13163718D02*
X89631904Y-13639908D01*
X89631904Y-13639908D02*
X89584285Y-13592289D01*
X89584285Y-13592289D02*
X89489047Y-13544670D01*
X89489047Y-13544670D02*
X89250952Y-13544670D01*
X89250952Y-13544670D02*
X89155714Y-13592289D01*
X89155714Y-13592289D02*
X89108095Y-13639908D01*
X89108095Y-13639908D02*
X89060476Y-13735146D01*
X89060476Y-13735146D02*
X89060476Y-13973241D01*
X89060476Y-13973241D02*
X89108095Y-14068479D01*
X89108095Y-14068479D02*
X89155714Y-14116099D01*
X89155714Y-14116099D02*
X89250952Y-14163718D01*
X89250952Y-14163718D02*
X89489047Y-14163718D01*
X89489047Y-14163718D02*
X89584285Y-14116099D01*
X89584285Y-14116099D02*
X89631904Y-14068479D01*
X88727142Y-13163718D02*
X88108095Y-13163718D01*
X88108095Y-13163718D02*
X88441428Y-13544670D01*
X88441428Y-13544670D02*
X88298571Y-13544670D01*
X88298571Y-13544670D02*
X88203333Y-13592289D01*
X88203333Y-13592289D02*
X88155714Y-13639908D01*
X88155714Y-13639908D02*
X88108095Y-13735146D01*
X88108095Y-13735146D02*
X88108095Y-13973241D01*
X88108095Y-13973241D02*
X88155714Y-14068479D01*
X88155714Y-14068479D02*
X88203333Y-14116099D01*
X88203333Y-14116099D02*
X88298571Y-14163718D01*
X88298571Y-14163718D02*
X88584285Y-14163718D01*
X88584285Y-14163718D02*
X88679523Y-14116099D01*
X88679523Y-14116099D02*
X88727142Y-14068479D01*
D11*
X143631818Y-25522737D02*
X142361818Y-25522737D01*
X143510865Y-26853214D02*
X143571342Y-26792738D01*
X143571342Y-26792738D02*
X143631818Y-26611309D01*
X143631818Y-26611309D02*
X143631818Y-26490357D01*
X143631818Y-26490357D02*
X143571342Y-26308928D01*
X143571342Y-26308928D02*
X143450389Y-26187976D01*
X143450389Y-26187976D02*
X143329437Y-26127499D01*
X143329437Y-26127499D02*
X143087532Y-26067023D01*
X143087532Y-26067023D02*
X142906103Y-26067023D01*
X142906103Y-26067023D02*
X142664199Y-26127499D01*
X142664199Y-26127499D02*
X142543246Y-26187976D01*
X142543246Y-26187976D02*
X142422294Y-26308928D01*
X142422294Y-26308928D02*
X142361818Y-26490357D01*
X142361818Y-26490357D02*
X142361818Y-26611309D01*
X142361818Y-26611309D02*
X142422294Y-26792738D01*
X142422294Y-26792738D02*
X142482770Y-26853214D01*
X142361818Y-27276547D02*
X142361818Y-28062738D01*
X142361818Y-28062738D02*
X142845627Y-27639404D01*
X142845627Y-27639404D02*
X142845627Y-27820833D01*
X142845627Y-27820833D02*
X142906103Y-27941785D01*
X142906103Y-27941785D02*
X142966580Y-28002261D01*
X142966580Y-28002261D02*
X143087532Y-28062738D01*
X143087532Y-28062738D02*
X143389913Y-28062738D01*
X143389913Y-28062738D02*
X143510865Y-28002261D01*
X143510865Y-28002261D02*
X143571342Y-27941785D01*
X143571342Y-27941785D02*
X143631818Y-27820833D01*
X143631818Y-27820833D02*
X143631818Y-27457976D01*
X143631818Y-27457976D02*
X143571342Y-27337023D01*
X143571342Y-27337023D02*
X143510865Y-27276547D01*
D10*
X162204729Y-26623237D02*
X162680920Y-26623237D01*
X161680920Y-26289904D02*
X162204729Y-26623237D01*
X162204729Y-26623237D02*
X161680920Y-26956570D01*
X162680920Y-27813713D02*
X162680920Y-27242285D01*
X162680920Y-27527999D02*
X161680920Y-27527999D01*
X161680920Y-27527999D02*
X161823777Y-27432761D01*
X161823777Y-27432761D02*
X161919015Y-27337523D01*
X161919015Y-27337523D02*
X161966634Y-27242285D01*
X161680920Y-28718475D02*
X161680920Y-28242285D01*
X161680920Y-28242285D02*
X162157110Y-28194666D01*
X162157110Y-28194666D02*
X162109491Y-28242285D01*
X162109491Y-28242285D02*
X162061872Y-28337523D01*
X162061872Y-28337523D02*
X162061872Y-28575618D01*
X162061872Y-28575618D02*
X162109491Y-28670856D01*
X162109491Y-28670856D02*
X162157110Y-28718475D01*
X162157110Y-28718475D02*
X162252348Y-28766094D01*
X162252348Y-28766094D02*
X162490443Y-28766094D01*
X162490443Y-28766094D02*
X162585681Y-28718475D01*
X162585681Y-28718475D02*
X162633301Y-28670856D01*
X162633301Y-28670856D02*
X162680920Y-28575618D01*
X162680920Y-28575618D02*
X162680920Y-28337523D01*
X162680920Y-28337523D02*
X162633301Y-28242285D01*
X162633301Y-28242285D02*
X162585681Y-28194666D01*
X105939819Y-46565476D02*
X106654104Y-46565476D01*
X106654104Y-46565476D02*
X106796961Y-46517857D01*
X106796961Y-46517857D02*
X106892200Y-46422619D01*
X106892200Y-46422619D02*
X106939819Y-46279762D01*
X106939819Y-46279762D02*
X106939819Y-46184524D01*
X106939819Y-47041667D02*
X105939819Y-47041667D01*
X105939819Y-47041667D02*
X105939819Y-47422619D01*
X105939819Y-47422619D02*
X105987438Y-47517857D01*
X105987438Y-47517857D02*
X106035057Y-47565476D01*
X106035057Y-47565476D02*
X106130295Y-47613095D01*
X106130295Y-47613095D02*
X106273152Y-47613095D01*
X106273152Y-47613095D02*
X106368390Y-47565476D01*
X106368390Y-47565476D02*
X106416009Y-47517857D01*
X106416009Y-47517857D02*
X106463628Y-47422619D01*
X106463628Y-47422619D02*
X106463628Y-47041667D01*
X106939819Y-48565476D02*
X106939819Y-47994048D01*
X106939819Y-48279762D02*
X105939819Y-48279762D01*
X105939819Y-48279762D02*
X106082676Y-48184524D01*
X106082676Y-48184524D02*
X106177914Y-48089286D01*
X106177914Y-48089286D02*
X106225533Y-47994048D01*
X106939819Y-49517857D02*
X106939819Y-48946429D01*
X106939819Y-49232143D02*
X105939819Y-49232143D01*
X105939819Y-49232143D02*
X106082676Y-49136905D01*
X106082676Y-49136905D02*
X106177914Y-49041667D01*
X106177914Y-49041667D02*
X106225533Y-48946429D01*
X107244580Y-20937142D02*
X107292200Y-20889523D01*
X107292200Y-20889523D02*
X107339819Y-20746666D01*
X107339819Y-20746666D02*
X107339819Y-20651428D01*
X107339819Y-20651428D02*
X107292200Y-20508571D01*
X107292200Y-20508571D02*
X107196961Y-20413333D01*
X107196961Y-20413333D02*
X107101723Y-20365714D01*
X107101723Y-20365714D02*
X106911247Y-20318095D01*
X106911247Y-20318095D02*
X106768390Y-20318095D01*
X106768390Y-20318095D02*
X106577914Y-20365714D01*
X106577914Y-20365714D02*
X106482676Y-20413333D01*
X106482676Y-20413333D02*
X106387438Y-20508571D01*
X106387438Y-20508571D02*
X106339819Y-20651428D01*
X106339819Y-20651428D02*
X106339819Y-20746666D01*
X106339819Y-20746666D02*
X106387438Y-20889523D01*
X106387438Y-20889523D02*
X106435057Y-20937142D01*
X107339819Y-21413333D02*
X107339819Y-21603809D01*
X107339819Y-21603809D02*
X107292200Y-21699047D01*
X107292200Y-21699047D02*
X107244580Y-21746666D01*
X107244580Y-21746666D02*
X107101723Y-21841904D01*
X107101723Y-21841904D02*
X106911247Y-21889523D01*
X106911247Y-21889523D02*
X106530295Y-21889523D01*
X106530295Y-21889523D02*
X106435057Y-21841904D01*
X106435057Y-21841904D02*
X106387438Y-21794285D01*
X106387438Y-21794285D02*
X106339819Y-21699047D01*
X106339819Y-21699047D02*
X106339819Y-21508571D01*
X106339819Y-21508571D02*
X106387438Y-21413333D01*
X106387438Y-21413333D02*
X106435057Y-21365714D01*
X106435057Y-21365714D02*
X106530295Y-21318095D01*
X106530295Y-21318095D02*
X106768390Y-21318095D01*
X106768390Y-21318095D02*
X106863628Y-21365714D01*
X106863628Y-21365714D02*
X106911247Y-21413333D01*
X106911247Y-21413333D02*
X106958866Y-21508571D01*
X106958866Y-21508571D02*
X106958866Y-21699047D01*
X106958866Y-21699047D02*
X106911247Y-21794285D01*
X106911247Y-21794285D02*
X106863628Y-21841904D01*
X106863628Y-21841904D02*
X106768390Y-21889523D01*
X106339819Y-22746666D02*
X106339819Y-22556190D01*
X106339819Y-22556190D02*
X106387438Y-22460952D01*
X106387438Y-22460952D02*
X106435057Y-22413333D01*
X106435057Y-22413333D02*
X106577914Y-22318095D01*
X106577914Y-22318095D02*
X106768390Y-22270476D01*
X106768390Y-22270476D02*
X107149342Y-22270476D01*
X107149342Y-22270476D02*
X107244580Y-22318095D01*
X107244580Y-22318095D02*
X107292200Y-22365714D01*
X107292200Y-22365714D02*
X107339819Y-22460952D01*
X107339819Y-22460952D02*
X107339819Y-22651428D01*
X107339819Y-22651428D02*
X107292200Y-22746666D01*
X107292200Y-22746666D02*
X107244580Y-22794285D01*
X107244580Y-22794285D02*
X107149342Y-22841904D01*
X107149342Y-22841904D02*
X106911247Y-22841904D01*
X106911247Y-22841904D02*
X106816009Y-22794285D01*
X106816009Y-22794285D02*
X106768390Y-22746666D01*
X106768390Y-22746666D02*
X106720771Y-22651428D01*
X106720771Y-22651428D02*
X106720771Y-22460952D01*
X106720771Y-22460952D02*
X106768390Y-22365714D01*
X106768390Y-22365714D02*
X106816009Y-22318095D01*
X106816009Y-22318095D02*
X106911247Y-22270476D01*
X165935681Y-19876570D02*
X165983301Y-19828951D01*
X165983301Y-19828951D02*
X166030920Y-19686094D01*
X166030920Y-19686094D02*
X166030920Y-19590856D01*
X166030920Y-19590856D02*
X165983301Y-19447999D01*
X165983301Y-19447999D02*
X165888062Y-19352761D01*
X165888062Y-19352761D02*
X165792824Y-19305142D01*
X165792824Y-19305142D02*
X165602348Y-19257523D01*
X165602348Y-19257523D02*
X165459491Y-19257523D01*
X165459491Y-19257523D02*
X165269015Y-19305142D01*
X165269015Y-19305142D02*
X165173777Y-19352761D01*
X165173777Y-19352761D02*
X165078539Y-19447999D01*
X165078539Y-19447999D02*
X165030920Y-19590856D01*
X165030920Y-19590856D02*
X165030920Y-19686094D01*
X165030920Y-19686094D02*
X165078539Y-19828951D01*
X165078539Y-19828951D02*
X165126158Y-19876570D01*
X166030920Y-20828951D02*
X166030920Y-20257523D01*
X166030920Y-20543237D02*
X165030920Y-20543237D01*
X165030920Y-20543237D02*
X165173777Y-20447999D01*
X165173777Y-20447999D02*
X165269015Y-20352761D01*
X165269015Y-20352761D02*
X165316634Y-20257523D01*
X166030920Y-21781332D02*
X166030920Y-21209904D01*
X166030920Y-21495618D02*
X165030920Y-21495618D01*
X165030920Y-21495618D02*
X165173777Y-21400380D01*
X165173777Y-21400380D02*
X165269015Y-21305142D01*
X165269015Y-21305142D02*
X165316634Y-21209904D01*
X166030920Y-22257523D02*
X166030920Y-22447999D01*
X166030920Y-22447999D02*
X165983301Y-22543237D01*
X165983301Y-22543237D02*
X165935681Y-22590856D01*
X165935681Y-22590856D02*
X165792824Y-22686094D01*
X165792824Y-22686094D02*
X165602348Y-22733713D01*
X165602348Y-22733713D02*
X165221396Y-22733713D01*
X165221396Y-22733713D02*
X165126158Y-22686094D01*
X165126158Y-22686094D02*
X165078539Y-22638475D01*
X165078539Y-22638475D02*
X165030920Y-22543237D01*
X165030920Y-22543237D02*
X165030920Y-22352761D01*
X165030920Y-22352761D02*
X165078539Y-22257523D01*
X165078539Y-22257523D02*
X165126158Y-22209904D01*
X165126158Y-22209904D02*
X165221396Y-22162285D01*
X165221396Y-22162285D02*
X165459491Y-22162285D01*
X165459491Y-22162285D02*
X165554729Y-22209904D01*
X165554729Y-22209904D02*
X165602348Y-22257523D01*
X165602348Y-22257523D02*
X165649967Y-22352761D01*
X165649967Y-22352761D02*
X165649967Y-22543237D01*
X165649967Y-22543237D02*
X165602348Y-22638475D01*
X165602348Y-22638475D02*
X165554729Y-22686094D01*
X165554729Y-22686094D02*
X165459491Y-22733713D01*
X148740357Y-13361218D02*
X149073690Y-12885027D01*
X149311785Y-13361218D02*
X149311785Y-12361218D01*
X149311785Y-12361218D02*
X148930833Y-12361218D01*
X148930833Y-12361218D02*
X148835595Y-12408837D01*
X148835595Y-12408837D02*
X148787976Y-12456456D01*
X148787976Y-12456456D02*
X148740357Y-12551694D01*
X148740357Y-12551694D02*
X148740357Y-12694551D01*
X148740357Y-12694551D02*
X148787976Y-12789789D01*
X148787976Y-12789789D02*
X148835595Y-12837408D01*
X148835595Y-12837408D02*
X148930833Y-12885027D01*
X148930833Y-12885027D02*
X149311785Y-12885027D01*
X147835595Y-12361218D02*
X148311785Y-12361218D01*
X148311785Y-12361218D02*
X148359404Y-12837408D01*
X148359404Y-12837408D02*
X148311785Y-12789789D01*
X148311785Y-12789789D02*
X148216547Y-12742170D01*
X148216547Y-12742170D02*
X147978452Y-12742170D01*
X147978452Y-12742170D02*
X147883214Y-12789789D01*
X147883214Y-12789789D02*
X147835595Y-12837408D01*
X147835595Y-12837408D02*
X147787976Y-12932646D01*
X147787976Y-12932646D02*
X147787976Y-13170741D01*
X147787976Y-13170741D02*
X147835595Y-13265979D01*
X147835595Y-13265979D02*
X147883214Y-13313599D01*
X147883214Y-13313599D02*
X147978452Y-13361218D01*
X147978452Y-13361218D02*
X148216547Y-13361218D01*
X148216547Y-13361218D02*
X148311785Y-13313599D01*
X148311785Y-13313599D02*
X148359404Y-13265979D01*
X146930833Y-12694551D02*
X146930833Y-13361218D01*
X147168928Y-12313599D02*
X147407023Y-13027884D01*
X147407023Y-13027884D02*
X146787976Y-13027884D01*
X89791666Y525419D02*
X89839285Y477800D01*
X89839285Y477800D02*
X89982142Y430180D01*
X89982142Y430180D02*
X90077380Y430180D01*
X90077380Y430180D02*
X90220237Y477800D01*
X90220237Y477800D02*
X90315475Y573038D01*
X90315475Y573038D02*
X90363094Y668276D01*
X90363094Y668276D02*
X90410713Y858752D01*
X90410713Y858752D02*
X90410713Y1001609D01*
X90410713Y1001609D02*
X90363094Y1192085D01*
X90363094Y1192085D02*
X90315475Y1287323D01*
X90315475Y1287323D02*
X90220237Y1382561D01*
X90220237Y1382561D02*
X90077380Y1430180D01*
X90077380Y1430180D02*
X89982142Y1430180D01*
X89982142Y1430180D02*
X89839285Y1382561D01*
X89839285Y1382561D02*
X89791666Y1334942D01*
X89220237Y1001609D02*
X89315475Y1049228D01*
X89315475Y1049228D02*
X89363094Y1096847D01*
X89363094Y1096847D02*
X89410713Y1192085D01*
X89410713Y1192085D02*
X89410713Y1239704D01*
X89410713Y1239704D02*
X89363094Y1334942D01*
X89363094Y1334942D02*
X89315475Y1382561D01*
X89315475Y1382561D02*
X89220237Y1430180D01*
X89220237Y1430180D02*
X89029761Y1430180D01*
X89029761Y1430180D02*
X88934523Y1382561D01*
X88934523Y1382561D02*
X88886904Y1334942D01*
X88886904Y1334942D02*
X88839285Y1239704D01*
X88839285Y1239704D02*
X88839285Y1192085D01*
X88839285Y1192085D02*
X88886904Y1096847D01*
X88886904Y1096847D02*
X88934523Y1049228D01*
X88934523Y1049228D02*
X89029761Y1001609D01*
X89029761Y1001609D02*
X89220237Y1001609D01*
X89220237Y1001609D02*
X89315475Y953990D01*
X89315475Y953990D02*
X89363094Y906371D01*
X89363094Y906371D02*
X89410713Y811133D01*
X89410713Y811133D02*
X89410713Y620657D01*
X89410713Y620657D02*
X89363094Y525419D01*
X89363094Y525419D02*
X89315475Y477800D01*
X89315475Y477800D02*
X89220237Y430180D01*
X89220237Y430180D02*
X89029761Y430180D01*
X89029761Y430180D02*
X88934523Y477800D01*
X88934523Y477800D02*
X88886904Y525419D01*
X88886904Y525419D02*
X88839285Y620657D01*
X88839285Y620657D02*
X88839285Y811133D01*
X88839285Y811133D02*
X88886904Y906371D01*
X88886904Y906371D02*
X88934523Y953990D01*
X88934523Y953990D02*
X89029761Y1001609D01*
X118172857Y-14439819D02*
X118506190Y-13963628D01*
X118744285Y-14439819D02*
X118744285Y-13439819D01*
X118744285Y-13439819D02*
X118363333Y-13439819D01*
X118363333Y-13439819D02*
X118268095Y-13487438D01*
X118268095Y-13487438D02*
X118220476Y-13535057D01*
X118220476Y-13535057D02*
X118172857Y-13630295D01*
X118172857Y-13630295D02*
X118172857Y-13773152D01*
X118172857Y-13773152D02*
X118220476Y-13868390D01*
X118220476Y-13868390D02*
X118268095Y-13916009D01*
X118268095Y-13916009D02*
X118363333Y-13963628D01*
X118363333Y-13963628D02*
X118744285Y-13963628D01*
X117268095Y-13439819D02*
X117744285Y-13439819D01*
X117744285Y-13439819D02*
X117791904Y-13916009D01*
X117791904Y-13916009D02*
X117744285Y-13868390D01*
X117744285Y-13868390D02*
X117649047Y-13820771D01*
X117649047Y-13820771D02*
X117410952Y-13820771D01*
X117410952Y-13820771D02*
X117315714Y-13868390D01*
X117315714Y-13868390D02*
X117268095Y-13916009D01*
X117268095Y-13916009D02*
X117220476Y-14011247D01*
X117220476Y-14011247D02*
X117220476Y-14249342D01*
X117220476Y-14249342D02*
X117268095Y-14344580D01*
X117268095Y-14344580D02*
X117315714Y-14392200D01*
X117315714Y-14392200D02*
X117410952Y-14439819D01*
X117410952Y-14439819D02*
X117649047Y-14439819D01*
X117649047Y-14439819D02*
X117744285Y-14392200D01*
X117744285Y-14392200D02*
X117791904Y-14344580D01*
X116315714Y-13439819D02*
X116791904Y-13439819D01*
X116791904Y-13439819D02*
X116839523Y-13916009D01*
X116839523Y-13916009D02*
X116791904Y-13868390D01*
X116791904Y-13868390D02*
X116696666Y-13820771D01*
X116696666Y-13820771D02*
X116458571Y-13820771D01*
X116458571Y-13820771D02*
X116363333Y-13868390D01*
X116363333Y-13868390D02*
X116315714Y-13916009D01*
X116315714Y-13916009D02*
X116268095Y-14011247D01*
X116268095Y-14011247D02*
X116268095Y-14249342D01*
X116268095Y-14249342D02*
X116315714Y-14344580D01*
X116315714Y-14344580D02*
X116363333Y-14392200D01*
X116363333Y-14392200D02*
X116458571Y-14439819D01*
X116458571Y-14439819D02*
X116696666Y-14439819D01*
X116696666Y-14439819D02*
X116791904Y-14392200D01*
X116791904Y-14392200D02*
X116839523Y-14344580D01*
X91619580Y-26852142D02*
X91667200Y-26804523D01*
X91667200Y-26804523D02*
X91714819Y-26661666D01*
X91714819Y-26661666D02*
X91714819Y-26566428D01*
X91714819Y-26566428D02*
X91667200Y-26423571D01*
X91667200Y-26423571D02*
X91571961Y-26328333D01*
X91571961Y-26328333D02*
X91476723Y-26280714D01*
X91476723Y-26280714D02*
X91286247Y-26233095D01*
X91286247Y-26233095D02*
X91143390Y-26233095D01*
X91143390Y-26233095D02*
X90952914Y-26280714D01*
X90952914Y-26280714D02*
X90857676Y-26328333D01*
X90857676Y-26328333D02*
X90762438Y-26423571D01*
X90762438Y-26423571D02*
X90714819Y-26566428D01*
X90714819Y-26566428D02*
X90714819Y-26661666D01*
X90714819Y-26661666D02*
X90762438Y-26804523D01*
X90762438Y-26804523D02*
X90810057Y-26852142D01*
X90714819Y-27756904D02*
X90714819Y-27280714D01*
X90714819Y-27280714D02*
X91191009Y-27233095D01*
X91191009Y-27233095D02*
X91143390Y-27280714D01*
X91143390Y-27280714D02*
X91095771Y-27375952D01*
X91095771Y-27375952D02*
X91095771Y-27614047D01*
X91095771Y-27614047D02*
X91143390Y-27709285D01*
X91143390Y-27709285D02*
X91191009Y-27756904D01*
X91191009Y-27756904D02*
X91286247Y-27804523D01*
X91286247Y-27804523D02*
X91524342Y-27804523D01*
X91524342Y-27804523D02*
X91619580Y-27756904D01*
X91619580Y-27756904D02*
X91667200Y-27709285D01*
X91667200Y-27709285D02*
X91714819Y-27614047D01*
X91714819Y-27614047D02*
X91714819Y-27375952D01*
X91714819Y-27375952D02*
X91667200Y-27280714D01*
X91667200Y-27280714D02*
X91619580Y-27233095D01*
X91714819Y-28756904D02*
X91714819Y-28185476D01*
X91714819Y-28471190D02*
X90714819Y-28471190D01*
X90714819Y-28471190D02*
X90857676Y-28375952D01*
X90857676Y-28375952D02*
X90952914Y-28280714D01*
X90952914Y-28280714D02*
X91000533Y-28185476D01*
X139364580Y13394047D02*
X139412200Y13441666D01*
X139412200Y13441666D02*
X139459819Y13584523D01*
X139459819Y13584523D02*
X139459819Y13679761D01*
X139459819Y13679761D02*
X139412200Y13822618D01*
X139412200Y13822618D02*
X139316961Y13917856D01*
X139316961Y13917856D02*
X139221723Y13965475D01*
X139221723Y13965475D02*
X139031247Y14013094D01*
X139031247Y14013094D02*
X138888390Y14013094D01*
X138888390Y14013094D02*
X138697914Y13965475D01*
X138697914Y13965475D02*
X138602676Y13917856D01*
X138602676Y13917856D02*
X138507438Y13822618D01*
X138507438Y13822618D02*
X138459819Y13679761D01*
X138459819Y13679761D02*
X138459819Y13584523D01*
X138459819Y13584523D02*
X138507438Y13441666D01*
X138507438Y13441666D02*
X138555057Y13394047D01*
X139459819Y12441666D02*
X139459819Y13013094D01*
X139459819Y12727380D02*
X138459819Y12727380D01*
X138459819Y12727380D02*
X138602676Y12822618D01*
X138602676Y12822618D02*
X138697914Y12917856D01*
X138697914Y12917856D02*
X138745533Y13013094D01*
X138459819Y12108332D02*
X138459819Y11489285D01*
X138459819Y11489285D02*
X138840771Y11822618D01*
X138840771Y11822618D02*
X138840771Y11679761D01*
X138840771Y11679761D02*
X138888390Y11584523D01*
X138888390Y11584523D02*
X138936009Y11536904D01*
X138936009Y11536904D02*
X139031247Y11489285D01*
X139031247Y11489285D02*
X139269342Y11489285D01*
X139269342Y11489285D02*
X139364580Y11536904D01*
X139364580Y11536904D02*
X139412200Y11584523D01*
X139412200Y11584523D02*
X139459819Y11679761D01*
X139459819Y11679761D02*
X139459819Y11965475D01*
X139459819Y11965475D02*
X139412200Y12060713D01*
X139412200Y12060713D02*
X139364580Y12108332D01*
X138793152Y10632142D02*
X139459819Y10632142D01*
X138412200Y10870237D02*
X139126485Y11108332D01*
X139126485Y11108332D02*
X139126485Y10489285D01*
X98181904Y1110180D02*
X98181904Y300657D01*
X98181904Y300657D02*
X98134285Y205419D01*
X98134285Y205419D02*
X98086666Y157800D01*
X98086666Y157800D02*
X97991428Y110180D01*
X97991428Y110180D02*
X97800952Y110180D01*
X97800952Y110180D02*
X97705714Y157800D01*
X97705714Y157800D02*
X97658095Y205419D01*
X97658095Y205419D02*
X97610476Y300657D01*
X97610476Y300657D02*
X97610476Y1110180D01*
X96658095Y1110180D02*
X97134285Y1110180D01*
X97134285Y1110180D02*
X97181904Y633990D01*
X97181904Y633990D02*
X97134285Y681609D01*
X97134285Y681609D02*
X97039047Y729228D01*
X97039047Y729228D02*
X96800952Y729228D01*
X96800952Y729228D02*
X96705714Y681609D01*
X96705714Y681609D02*
X96658095Y633990D01*
X96658095Y633990D02*
X96610476Y538752D01*
X96610476Y538752D02*
X96610476Y300657D01*
X96610476Y300657D02*
X96658095Y205419D01*
X96658095Y205419D02*
X96705714Y157800D01*
X96705714Y157800D02*
X96800952Y110180D01*
X96800952Y110180D02*
X97039047Y110180D01*
X97039047Y110180D02*
X97134285Y157800D01*
X97134285Y157800D02*
X97181904Y205419D01*
X143382857Y-50639580D02*
X143430476Y-50687200D01*
X143430476Y-50687200D02*
X143573333Y-50734819D01*
X143573333Y-50734819D02*
X143668571Y-50734819D01*
X143668571Y-50734819D02*
X143811428Y-50687200D01*
X143811428Y-50687200D02*
X143906666Y-50591961D01*
X143906666Y-50591961D02*
X143954285Y-50496723D01*
X143954285Y-50496723D02*
X144001904Y-50306247D01*
X144001904Y-50306247D02*
X144001904Y-50163390D01*
X144001904Y-50163390D02*
X143954285Y-49972914D01*
X143954285Y-49972914D02*
X143906666Y-49877676D01*
X143906666Y-49877676D02*
X143811428Y-49782438D01*
X143811428Y-49782438D02*
X143668571Y-49734819D01*
X143668571Y-49734819D02*
X143573333Y-49734819D01*
X143573333Y-49734819D02*
X143430476Y-49782438D01*
X143430476Y-49782438D02*
X143382857Y-49830057D01*
X142478095Y-49734819D02*
X142954285Y-49734819D01*
X142954285Y-49734819D02*
X143001904Y-50211009D01*
X143001904Y-50211009D02*
X142954285Y-50163390D01*
X142954285Y-50163390D02*
X142859047Y-50115771D01*
X142859047Y-50115771D02*
X142620952Y-50115771D01*
X142620952Y-50115771D02*
X142525714Y-50163390D01*
X142525714Y-50163390D02*
X142478095Y-50211009D01*
X142478095Y-50211009D02*
X142430476Y-50306247D01*
X142430476Y-50306247D02*
X142430476Y-50544342D01*
X142430476Y-50544342D02*
X142478095Y-50639580D01*
X142478095Y-50639580D02*
X142525714Y-50687200D01*
X142525714Y-50687200D02*
X142620952Y-50734819D01*
X142620952Y-50734819D02*
X142859047Y-50734819D01*
X142859047Y-50734819D02*
X142954285Y-50687200D01*
X142954285Y-50687200D02*
X143001904Y-50639580D01*
X141525714Y-49734819D02*
X142001904Y-49734819D01*
X142001904Y-49734819D02*
X142049523Y-50211009D01*
X142049523Y-50211009D02*
X142001904Y-50163390D01*
X142001904Y-50163390D02*
X141906666Y-50115771D01*
X141906666Y-50115771D02*
X141668571Y-50115771D01*
X141668571Y-50115771D02*
X141573333Y-50163390D01*
X141573333Y-50163390D02*
X141525714Y-50211009D01*
X141525714Y-50211009D02*
X141478095Y-50306247D01*
X141478095Y-50306247D02*
X141478095Y-50544342D01*
X141478095Y-50544342D02*
X141525714Y-50639580D01*
X141525714Y-50639580D02*
X141573333Y-50687200D01*
X141573333Y-50687200D02*
X141668571Y-50734819D01*
X141668571Y-50734819D02*
X141906666Y-50734819D01*
X141906666Y-50734819D02*
X142001904Y-50687200D01*
X142001904Y-50687200D02*
X142049523Y-50639580D01*
D11*
X84904318Y-26325237D02*
X83634318Y-26325237D01*
X84783365Y-27655714D02*
X84843842Y-27595238D01*
X84843842Y-27595238D02*
X84904318Y-27413809D01*
X84904318Y-27413809D02*
X84904318Y-27292857D01*
X84904318Y-27292857D02*
X84843842Y-27111428D01*
X84843842Y-27111428D02*
X84722889Y-26990476D01*
X84722889Y-26990476D02*
X84601937Y-26929999D01*
X84601937Y-26929999D02*
X84360032Y-26869523D01*
X84360032Y-26869523D02*
X84178603Y-26869523D01*
X84178603Y-26869523D02*
X83936699Y-26929999D01*
X83936699Y-26929999D02*
X83815746Y-26990476D01*
X83815746Y-26990476D02*
X83694794Y-27111428D01*
X83694794Y-27111428D02*
X83634318Y-27292857D01*
X83634318Y-27292857D02*
X83634318Y-27413809D01*
X83634318Y-27413809D02*
X83694794Y-27595238D01*
X83694794Y-27595238D02*
X83755270Y-27655714D01*
X83755270Y-28139523D02*
X83694794Y-28199999D01*
X83694794Y-28199999D02*
X83634318Y-28320952D01*
X83634318Y-28320952D02*
X83634318Y-28623333D01*
X83634318Y-28623333D02*
X83694794Y-28744285D01*
X83694794Y-28744285D02*
X83755270Y-28804761D01*
X83755270Y-28804761D02*
X83876222Y-28865238D01*
X83876222Y-28865238D02*
X83997175Y-28865238D01*
X83997175Y-28865238D02*
X84178603Y-28804761D01*
X84178603Y-28804761D02*
X84904318Y-28079047D01*
X84904318Y-28079047D02*
X84904318Y-28865238D01*
D10*
X173218958Y-13674819D02*
X173552291Y-13198628D01*
X173790386Y-13674819D02*
X173790386Y-12674819D01*
X173790386Y-12674819D02*
X173409434Y-12674819D01*
X173409434Y-12674819D02*
X173314196Y-12722438D01*
X173314196Y-12722438D02*
X173266577Y-12770057D01*
X173266577Y-12770057D02*
X173218958Y-12865295D01*
X173218958Y-12865295D02*
X173218958Y-13008152D01*
X173218958Y-13008152D02*
X173266577Y-13103390D01*
X173266577Y-13103390D02*
X173314196Y-13151009D01*
X173314196Y-13151009D02*
X173409434Y-13198628D01*
X173409434Y-13198628D02*
X173790386Y-13198628D01*
X172361815Y-12674819D02*
X172552291Y-12674819D01*
X172552291Y-12674819D02*
X172647529Y-12722438D01*
X172647529Y-12722438D02*
X172695148Y-12770057D01*
X172695148Y-12770057D02*
X172790386Y-12912914D01*
X172790386Y-12912914D02*
X172838005Y-13103390D01*
X172838005Y-13103390D02*
X172838005Y-13484342D01*
X172838005Y-13484342D02*
X172790386Y-13579580D01*
X172790386Y-13579580D02*
X172742767Y-13627200D01*
X172742767Y-13627200D02*
X172647529Y-13674819D01*
X172647529Y-13674819D02*
X172457053Y-13674819D01*
X172457053Y-13674819D02*
X172361815Y-13627200D01*
X172361815Y-13627200D02*
X172314196Y-13579580D01*
X172314196Y-13579580D02*
X172266577Y-13484342D01*
X172266577Y-13484342D02*
X172266577Y-13246247D01*
X172266577Y-13246247D02*
X172314196Y-13151009D01*
X172314196Y-13151009D02*
X172361815Y-13103390D01*
X172361815Y-13103390D02*
X172457053Y-13055771D01*
X172457053Y-13055771D02*
X172647529Y-13055771D01*
X172647529Y-13055771D02*
X172742767Y-13103390D01*
X172742767Y-13103390D02*
X172790386Y-13151009D01*
X172790386Y-13151009D02*
X172838005Y-13246247D01*
X171647529Y-12674819D02*
X171552291Y-12674819D01*
X171552291Y-12674819D02*
X171457053Y-12722438D01*
X171457053Y-12722438D02*
X171409434Y-12770057D01*
X171409434Y-12770057D02*
X171361815Y-12865295D01*
X171361815Y-12865295D02*
X171314196Y-13055771D01*
X171314196Y-13055771D02*
X171314196Y-13293866D01*
X171314196Y-13293866D02*
X171361815Y-13484342D01*
X171361815Y-13484342D02*
X171409434Y-13579580D01*
X171409434Y-13579580D02*
X171457053Y-13627200D01*
X171457053Y-13627200D02*
X171552291Y-13674819D01*
X171552291Y-13674819D02*
X171647529Y-13674819D01*
X171647529Y-13674819D02*
X171742767Y-13627200D01*
X171742767Y-13627200D02*
X171790386Y-13579580D01*
X171790386Y-13579580D02*
X171838005Y-13484342D01*
X171838005Y-13484342D02*
X171885624Y-13293866D01*
X171885624Y-13293866D02*
X171885624Y-13055771D01*
X171885624Y-13055771D02*
X171838005Y-12865295D01*
X171838005Y-12865295D02*
X171790386Y-12770057D01*
X171790386Y-12770057D02*
X171742767Y-12722438D01*
X171742767Y-12722438D02*
X171647529Y-12674819D01*
X106272857Y-24454819D02*
X106606190Y-23978628D01*
X106844285Y-24454819D02*
X106844285Y-23454819D01*
X106844285Y-23454819D02*
X106463333Y-23454819D01*
X106463333Y-23454819D02*
X106368095Y-23502438D01*
X106368095Y-23502438D02*
X106320476Y-23550057D01*
X106320476Y-23550057D02*
X106272857Y-23645295D01*
X106272857Y-23645295D02*
X106272857Y-23788152D01*
X106272857Y-23788152D02*
X106320476Y-23883390D01*
X106320476Y-23883390D02*
X106368095Y-23931009D01*
X106368095Y-23931009D02*
X106463333Y-23978628D01*
X106463333Y-23978628D02*
X106844285Y-23978628D01*
X105415714Y-23788152D02*
X105415714Y-24454819D01*
X105653809Y-23407200D02*
X105891904Y-24121485D01*
X105891904Y-24121485D02*
X105272857Y-24121485D01*
X104939523Y-23550057D02*
X104891904Y-23502438D01*
X104891904Y-23502438D02*
X104796666Y-23454819D01*
X104796666Y-23454819D02*
X104558571Y-23454819D01*
X104558571Y-23454819D02*
X104463333Y-23502438D01*
X104463333Y-23502438D02*
X104415714Y-23550057D01*
X104415714Y-23550057D02*
X104368095Y-23645295D01*
X104368095Y-23645295D02*
X104368095Y-23740533D01*
X104368095Y-23740533D02*
X104415714Y-23883390D01*
X104415714Y-23883390D02*
X104987142Y-24454819D01*
X104987142Y-24454819D02*
X104368095Y-24454819D01*
X134356128Y-26831309D02*
X134832319Y-26831309D01*
X133832319Y-26497976D02*
X134356128Y-26831309D01*
X134356128Y-26831309D02*
X133832319Y-27164642D01*
X134832319Y-27545595D02*
X134832319Y-27736071D01*
X134832319Y-27736071D02*
X134784700Y-27831309D01*
X134784700Y-27831309D02*
X134737080Y-27878928D01*
X134737080Y-27878928D02*
X134594223Y-27974166D01*
X134594223Y-27974166D02*
X134403747Y-28021785D01*
X134403747Y-28021785D02*
X134022795Y-28021785D01*
X134022795Y-28021785D02*
X133927557Y-27974166D01*
X133927557Y-27974166D02*
X133879938Y-27926547D01*
X133879938Y-27926547D02*
X133832319Y-27831309D01*
X133832319Y-27831309D02*
X133832319Y-27640833D01*
X133832319Y-27640833D02*
X133879938Y-27545595D01*
X133879938Y-27545595D02*
X133927557Y-27497976D01*
X133927557Y-27497976D02*
X134022795Y-27450357D01*
X134022795Y-27450357D02*
X134260890Y-27450357D01*
X134260890Y-27450357D02*
X134356128Y-27497976D01*
X134356128Y-27497976D02*
X134403747Y-27545595D01*
X134403747Y-27545595D02*
X134451366Y-27640833D01*
X134451366Y-27640833D02*
X134451366Y-27831309D01*
X134451366Y-27831309D02*
X134403747Y-27926547D01*
X134403747Y-27926547D02*
X134356128Y-27974166D01*
X134356128Y-27974166D02*
X134260890Y-28021785D01*
X137115357Y-23602319D02*
X137448690Y-23126128D01*
X137686785Y-23602319D02*
X137686785Y-22602319D01*
X137686785Y-22602319D02*
X137305833Y-22602319D01*
X137305833Y-22602319D02*
X137210595Y-22649938D01*
X137210595Y-22649938D02*
X137162976Y-22697557D01*
X137162976Y-22697557D02*
X137115357Y-22792795D01*
X137115357Y-22792795D02*
X137115357Y-22935652D01*
X137115357Y-22935652D02*
X137162976Y-23030890D01*
X137162976Y-23030890D02*
X137210595Y-23078509D01*
X137210595Y-23078509D02*
X137305833Y-23126128D01*
X137305833Y-23126128D02*
X137686785Y-23126128D01*
X136782023Y-22602319D02*
X136162976Y-22602319D01*
X136162976Y-22602319D02*
X136496309Y-22983271D01*
X136496309Y-22983271D02*
X136353452Y-22983271D01*
X136353452Y-22983271D02*
X136258214Y-23030890D01*
X136258214Y-23030890D02*
X136210595Y-23078509D01*
X136210595Y-23078509D02*
X136162976Y-23173747D01*
X136162976Y-23173747D02*
X136162976Y-23411842D01*
X136162976Y-23411842D02*
X136210595Y-23507080D01*
X136210595Y-23507080D02*
X136258214Y-23554700D01*
X136258214Y-23554700D02*
X136353452Y-23602319D01*
X136353452Y-23602319D02*
X136639166Y-23602319D01*
X136639166Y-23602319D02*
X136734404Y-23554700D01*
X136734404Y-23554700D02*
X136782023Y-23507080D01*
X135305833Y-22935652D02*
X135305833Y-23602319D01*
X135543928Y-22554700D02*
X135782023Y-23268985D01*
X135782023Y-23268985D02*
X135162976Y-23268985D01*
D11*
X167480419Y-25540855D02*
X166210419Y-25540855D01*
X167359466Y-26871332D02*
X167419943Y-26810856D01*
X167419943Y-26810856D02*
X167480419Y-26629427D01*
X167480419Y-26629427D02*
X167480419Y-26508475D01*
X167480419Y-26508475D02*
X167419943Y-26327046D01*
X167419943Y-26327046D02*
X167298990Y-26206094D01*
X167298990Y-26206094D02*
X167178038Y-26145617D01*
X167178038Y-26145617D02*
X166936133Y-26085141D01*
X166936133Y-26085141D02*
X166754704Y-26085141D01*
X166754704Y-26085141D02*
X166512800Y-26145617D01*
X166512800Y-26145617D02*
X166391847Y-26206094D01*
X166391847Y-26206094D02*
X166270895Y-26327046D01*
X166270895Y-26327046D02*
X166210419Y-26508475D01*
X166210419Y-26508475D02*
X166210419Y-26629427D01*
X166210419Y-26629427D02*
X166270895Y-26810856D01*
X166270895Y-26810856D02*
X166331371Y-26871332D01*
X166210419Y-28020379D02*
X166210419Y-27415617D01*
X166210419Y-27415617D02*
X166815181Y-27355141D01*
X166815181Y-27355141D02*
X166754704Y-27415617D01*
X166754704Y-27415617D02*
X166694228Y-27536570D01*
X166694228Y-27536570D02*
X166694228Y-27838951D01*
X166694228Y-27838951D02*
X166754704Y-27959903D01*
X166754704Y-27959903D02*
X166815181Y-28020379D01*
X166815181Y-28020379D02*
X166936133Y-28080856D01*
X166936133Y-28080856D02*
X167238514Y-28080856D01*
X167238514Y-28080856D02*
X167359466Y-28020379D01*
X167359466Y-28020379D02*
X167419943Y-27959903D01*
X167419943Y-27959903D02*
X167480419Y-27838951D01*
X167480419Y-27838951D02*
X167480419Y-27536570D01*
X167480419Y-27536570D02*
X167419943Y-27415617D01*
X167419943Y-27415617D02*
X167359466Y-27355141D01*
D10*
X134364047Y9185419D02*
X134411666Y9137800D01*
X134411666Y9137800D02*
X134554523Y9090180D01*
X134554523Y9090180D02*
X134649761Y9090180D01*
X134649761Y9090180D02*
X134792618Y9137800D01*
X134792618Y9137800D02*
X134887856Y9233038D01*
X134887856Y9233038D02*
X134935475Y9328276D01*
X134935475Y9328276D02*
X134983094Y9518752D01*
X134983094Y9518752D02*
X134983094Y9661609D01*
X134983094Y9661609D02*
X134935475Y9852085D01*
X134935475Y9852085D02*
X134887856Y9947323D01*
X134887856Y9947323D02*
X134792618Y10042561D01*
X134792618Y10042561D02*
X134649761Y10090180D01*
X134649761Y10090180D02*
X134554523Y10090180D01*
X134554523Y10090180D02*
X134411666Y10042561D01*
X134411666Y10042561D02*
X134364047Y9994942D01*
X133411666Y9090180D02*
X133983094Y9090180D01*
X133697380Y9090180D02*
X133697380Y10090180D01*
X133697380Y10090180D02*
X133792618Y9947323D01*
X133792618Y9947323D02*
X133887856Y9852085D01*
X133887856Y9852085D02*
X133983094Y9804466D01*
X133078332Y10090180D02*
X132459285Y10090180D01*
X132459285Y10090180D02*
X132792618Y9709228D01*
X132792618Y9709228D02*
X132649761Y9709228D01*
X132649761Y9709228D02*
X132554523Y9661609D01*
X132554523Y9661609D02*
X132506904Y9613990D01*
X132506904Y9613990D02*
X132459285Y9518752D01*
X132459285Y9518752D02*
X132459285Y9280657D01*
X132459285Y9280657D02*
X132506904Y9185419D01*
X132506904Y9185419D02*
X132554523Y9137800D01*
X132554523Y9137800D02*
X132649761Y9090180D01*
X132649761Y9090180D02*
X132935475Y9090180D01*
X132935475Y9090180D02*
X133030713Y9137800D01*
X133030713Y9137800D02*
X133078332Y9185419D01*
X131840237Y10090180D02*
X131744999Y10090180D01*
X131744999Y10090180D02*
X131649761Y10042561D01*
X131649761Y10042561D02*
X131602142Y9994942D01*
X131602142Y9994942D02*
X131554523Y9899704D01*
X131554523Y9899704D02*
X131506904Y9709228D01*
X131506904Y9709228D02*
X131506904Y9471133D01*
X131506904Y9471133D02*
X131554523Y9280657D01*
X131554523Y9280657D02*
X131602142Y9185419D01*
X131602142Y9185419D02*
X131649761Y9137800D01*
X131649761Y9137800D02*
X131744999Y9090180D01*
X131744999Y9090180D02*
X131840237Y9090180D01*
X131840237Y9090180D02*
X131935475Y9137800D01*
X131935475Y9137800D02*
X131983094Y9185419D01*
X131983094Y9185419D02*
X132030713Y9280657D01*
X132030713Y9280657D02*
X132078332Y9471133D01*
X132078332Y9471133D02*
X132078332Y9709228D01*
X132078332Y9709228D02*
X132030713Y9899704D01*
X132030713Y9899704D02*
X131983094Y9994942D01*
X131983094Y9994942D02*
X131935475Y10042561D01*
X131935475Y10042561D02*
X131840237Y10090180D01*
X142335763Y-6961648D02*
X142908182Y-6860633D01*
X142739824Y-7365709D02*
X143446930Y-6658602D01*
X143446930Y-6658602D02*
X143177556Y-6389228D01*
X143177556Y-6389228D02*
X143076541Y-6355556D01*
X143076541Y-6355556D02*
X143009198Y-6355556D01*
X143009198Y-6355556D02*
X142908182Y-6389228D01*
X142908182Y-6389228D02*
X142807167Y-6490243D01*
X142807167Y-6490243D02*
X142773495Y-6591259D01*
X142773495Y-6591259D02*
X142773495Y-6658602D01*
X142773495Y-6658602D02*
X142807167Y-6759617D01*
X142807167Y-6759617D02*
X143076541Y-7028991D01*
X142436778Y-5648450D02*
X142571465Y-5783137D01*
X142571465Y-5783137D02*
X142605137Y-5884152D01*
X142605137Y-5884152D02*
X142605137Y-5951495D01*
X142605137Y-5951495D02*
X142571465Y-6119854D01*
X142571465Y-6119854D02*
X142470450Y-6288213D01*
X142470450Y-6288213D02*
X142201076Y-6557587D01*
X142201076Y-6557587D02*
X142100060Y-6591259D01*
X142100060Y-6591259D02*
X142032717Y-6591259D01*
X142032717Y-6591259D02*
X141931702Y-6557587D01*
X141931702Y-6557587D02*
X141797015Y-6422900D01*
X141797015Y-6422900D02*
X141763343Y-6321885D01*
X141763343Y-6321885D02*
X141763343Y-6254541D01*
X141763343Y-6254541D02*
X141797015Y-6153526D01*
X141797015Y-6153526D02*
X141965373Y-5985167D01*
X141965373Y-5985167D02*
X142066389Y-5951495D01*
X142066389Y-5951495D02*
X142133732Y-5951495D01*
X142133732Y-5951495D02*
X142234747Y-5985167D01*
X142234747Y-5985167D02*
X142369434Y-6119854D01*
X142369434Y-6119854D02*
X142403106Y-6220869D01*
X142403106Y-6220869D02*
X142403106Y-6288213D01*
X142403106Y-6288213D02*
X142369434Y-6389228D01*
X142032717Y-5379075D02*
X142032717Y-5311732D01*
X142032717Y-5311732D02*
X141999045Y-5210717D01*
X141999045Y-5210717D02*
X141830686Y-5042358D01*
X141830686Y-5042358D02*
X141729671Y-5008686D01*
X141729671Y-5008686D02*
X141662327Y-5008686D01*
X141662327Y-5008686D02*
X141561312Y-5042358D01*
X141561312Y-5042358D02*
X141493969Y-5109701D01*
X141493969Y-5109701D02*
X141426625Y-5244388D01*
X141426625Y-5244388D02*
X141426625Y-6052510D01*
X141426625Y-6052510D02*
X140988892Y-5614778D01*
X86642857Y-14199819D02*
X86976190Y-13723628D01*
X87214285Y-14199819D02*
X87214285Y-13199819D01*
X87214285Y-13199819D02*
X86833333Y-13199819D01*
X86833333Y-13199819D02*
X86738095Y-13247438D01*
X86738095Y-13247438D02*
X86690476Y-13295057D01*
X86690476Y-13295057D02*
X86642857Y-13390295D01*
X86642857Y-13390295D02*
X86642857Y-13533152D01*
X86642857Y-13533152D02*
X86690476Y-13628390D01*
X86690476Y-13628390D02*
X86738095Y-13676009D01*
X86738095Y-13676009D02*
X86833333Y-13723628D01*
X86833333Y-13723628D02*
X87214285Y-13723628D01*
X85738095Y-13199819D02*
X86214285Y-13199819D01*
X86214285Y-13199819D02*
X86261904Y-13676009D01*
X86261904Y-13676009D02*
X86214285Y-13628390D01*
X86214285Y-13628390D02*
X86119047Y-13580771D01*
X86119047Y-13580771D02*
X85880952Y-13580771D01*
X85880952Y-13580771D02*
X85785714Y-13628390D01*
X85785714Y-13628390D02*
X85738095Y-13676009D01*
X85738095Y-13676009D02*
X85690476Y-13771247D01*
X85690476Y-13771247D02*
X85690476Y-14009342D01*
X85690476Y-14009342D02*
X85738095Y-14104580D01*
X85738095Y-14104580D02*
X85785714Y-14152200D01*
X85785714Y-14152200D02*
X85880952Y-14199819D01*
X85880952Y-14199819D02*
X86119047Y-14199819D01*
X86119047Y-14199819D02*
X86214285Y-14152200D01*
X86214285Y-14152200D02*
X86261904Y-14104580D01*
X85357142Y-13199819D02*
X84690476Y-13199819D01*
X84690476Y-13199819D02*
X85119047Y-14199819D01*
X138087080Y-20084642D02*
X138134700Y-20037023D01*
X138134700Y-20037023D02*
X138182319Y-19894166D01*
X138182319Y-19894166D02*
X138182319Y-19798928D01*
X138182319Y-19798928D02*
X138134700Y-19656071D01*
X138134700Y-19656071D02*
X138039461Y-19560833D01*
X138039461Y-19560833D02*
X137944223Y-19513214D01*
X137944223Y-19513214D02*
X137753747Y-19465595D01*
X137753747Y-19465595D02*
X137610890Y-19465595D01*
X137610890Y-19465595D02*
X137420414Y-19513214D01*
X137420414Y-19513214D02*
X137325176Y-19560833D01*
X137325176Y-19560833D02*
X137229938Y-19656071D01*
X137229938Y-19656071D02*
X137182319Y-19798928D01*
X137182319Y-19798928D02*
X137182319Y-19894166D01*
X137182319Y-19894166D02*
X137229938Y-20037023D01*
X137229938Y-20037023D02*
X137277557Y-20084642D01*
X137182319Y-20417976D02*
X137182319Y-21084642D01*
X137182319Y-21084642D02*
X138182319Y-20656071D01*
X137182319Y-21370357D02*
X137182319Y-21989404D01*
X137182319Y-21989404D02*
X137563271Y-21656071D01*
X137563271Y-21656071D02*
X137563271Y-21798928D01*
X137563271Y-21798928D02*
X137610890Y-21894166D01*
X137610890Y-21894166D02*
X137658509Y-21941785D01*
X137658509Y-21941785D02*
X137753747Y-21989404D01*
X137753747Y-21989404D02*
X137991842Y-21989404D01*
X137991842Y-21989404D02*
X138087080Y-21941785D01*
X138087080Y-21941785D02*
X138134700Y-21894166D01*
X138134700Y-21894166D02*
X138182319Y-21798928D01*
X138182319Y-21798928D02*
X138182319Y-21513214D01*
X138182319Y-21513214D02*
X138134700Y-21417976D01*
X138134700Y-21417976D02*
X138087080Y-21370357D01*
D11*
X112789318Y-26375237D02*
X111519318Y-26375237D01*
X112668365Y-27705714D02*
X112728842Y-27645238D01*
X112728842Y-27645238D02*
X112789318Y-27463809D01*
X112789318Y-27463809D02*
X112789318Y-27342857D01*
X112789318Y-27342857D02*
X112728842Y-27161428D01*
X112728842Y-27161428D02*
X112607889Y-27040476D01*
X112607889Y-27040476D02*
X112486937Y-26979999D01*
X112486937Y-26979999D02*
X112245032Y-26919523D01*
X112245032Y-26919523D02*
X112063603Y-26919523D01*
X112063603Y-26919523D02*
X111821699Y-26979999D01*
X111821699Y-26979999D02*
X111700746Y-27040476D01*
X111700746Y-27040476D02*
X111579794Y-27161428D01*
X111579794Y-27161428D02*
X111519318Y-27342857D01*
X111519318Y-27342857D02*
X111519318Y-27463809D01*
X111519318Y-27463809D02*
X111579794Y-27645238D01*
X111579794Y-27645238D02*
X111640270Y-27705714D01*
X111942651Y-28794285D02*
X112789318Y-28794285D01*
X111458842Y-28491904D02*
X112365984Y-28189523D01*
X112365984Y-28189523D02*
X112365984Y-28975714D01*
D10*
X91829580Y-3958333D02*
X91877200Y-3910714D01*
X91877200Y-3910714D02*
X91924819Y-3767857D01*
X91924819Y-3767857D02*
X91924819Y-3672619D01*
X91924819Y-3672619D02*
X91877200Y-3529762D01*
X91877200Y-3529762D02*
X91781961Y-3434524D01*
X91781961Y-3434524D02*
X91686723Y-3386905D01*
X91686723Y-3386905D02*
X91496247Y-3339286D01*
X91496247Y-3339286D02*
X91353390Y-3339286D01*
X91353390Y-3339286D02*
X91162914Y-3386905D01*
X91162914Y-3386905D02*
X91067676Y-3434524D01*
X91067676Y-3434524D02*
X90972438Y-3529762D01*
X90972438Y-3529762D02*
X90924819Y-3672619D01*
X90924819Y-3672619D02*
X90924819Y-3767857D01*
X90924819Y-3767857D02*
X90972438Y-3910714D01*
X90972438Y-3910714D02*
X91020057Y-3958333D01*
X91924819Y-4434524D02*
X91924819Y-4625000D01*
X91924819Y-4625000D02*
X91877200Y-4720238D01*
X91877200Y-4720238D02*
X91829580Y-4767857D01*
X91829580Y-4767857D02*
X91686723Y-4863095D01*
X91686723Y-4863095D02*
X91496247Y-4910714D01*
X91496247Y-4910714D02*
X91115295Y-4910714D01*
X91115295Y-4910714D02*
X91020057Y-4863095D01*
X91020057Y-4863095D02*
X90972438Y-4815476D01*
X90972438Y-4815476D02*
X90924819Y-4720238D01*
X90924819Y-4720238D02*
X90924819Y-4529762D01*
X90924819Y-4529762D02*
X90972438Y-4434524D01*
X90972438Y-4434524D02*
X91020057Y-4386905D01*
X91020057Y-4386905D02*
X91115295Y-4339286D01*
X91115295Y-4339286D02*
X91353390Y-4339286D01*
X91353390Y-4339286D02*
X91448628Y-4386905D01*
X91448628Y-4386905D02*
X91496247Y-4434524D01*
X91496247Y-4434524D02*
X91543866Y-4529762D01*
X91543866Y-4529762D02*
X91543866Y-4720238D01*
X91543866Y-4720238D02*
X91496247Y-4815476D01*
X91496247Y-4815476D02*
X91448628Y-4863095D01*
X91448628Y-4863095D02*
X91353390Y-4910714D01*
X97757857Y7920419D02*
X97805476Y7872800D01*
X97805476Y7872800D02*
X97948333Y7825180D01*
X97948333Y7825180D02*
X98043571Y7825180D01*
X98043571Y7825180D02*
X98186428Y7872800D01*
X98186428Y7872800D02*
X98281666Y7968038D01*
X98281666Y7968038D02*
X98329285Y8063276D01*
X98329285Y8063276D02*
X98376904Y8253752D01*
X98376904Y8253752D02*
X98376904Y8396609D01*
X98376904Y8396609D02*
X98329285Y8587085D01*
X98329285Y8587085D02*
X98281666Y8682323D01*
X98281666Y8682323D02*
X98186428Y8777561D01*
X98186428Y8777561D02*
X98043571Y8825180D01*
X98043571Y8825180D02*
X97948333Y8825180D01*
X97948333Y8825180D02*
X97805476Y8777561D01*
X97805476Y8777561D02*
X97757857Y8729942D01*
X96805476Y7825180D02*
X97376904Y7825180D01*
X97091190Y7825180D02*
X97091190Y8825180D01*
X97091190Y8825180D02*
X97186428Y8682323D01*
X97186428Y8682323D02*
X97281666Y8587085D01*
X97281666Y8587085D02*
X97376904Y8539466D01*
X95853095Y7825180D02*
X96424523Y7825180D01*
X96138809Y7825180D02*
X96138809Y8825180D01*
X96138809Y8825180D02*
X96234047Y8682323D01*
X96234047Y8682323D02*
X96329285Y8587085D01*
X96329285Y8587085D02*
X96424523Y8539466D01*
X122392336Y-5843198D02*
X122291321Y-5270779D01*
X122796397Y-5439137D02*
X122089290Y-4732031D01*
X122089290Y-4732031D02*
X121819916Y-5001405D01*
X121819916Y-5001405D02*
X121786244Y-5102420D01*
X121786244Y-5102420D02*
X121786244Y-5169763D01*
X121786244Y-5169763D02*
X121819916Y-5270779D01*
X121819916Y-5270779D02*
X121920931Y-5371794D01*
X121920931Y-5371794D02*
X122021947Y-5405466D01*
X122021947Y-5405466D02*
X122089290Y-5405466D01*
X122089290Y-5405466D02*
X122190305Y-5371794D01*
X122190305Y-5371794D02*
X122459679Y-5102420D01*
X121079138Y-5742183D02*
X121213825Y-5607496D01*
X121213825Y-5607496D02*
X121314840Y-5573824D01*
X121314840Y-5573824D02*
X121382183Y-5573824D01*
X121382183Y-5573824D02*
X121550542Y-5607496D01*
X121550542Y-5607496D02*
X121718901Y-5708511D01*
X121718901Y-5708511D02*
X121988275Y-5977885D01*
X121988275Y-5977885D02*
X122021947Y-6078901D01*
X122021947Y-6078901D02*
X122021947Y-6146244D01*
X122021947Y-6146244D02*
X121988275Y-6247259D01*
X121988275Y-6247259D02*
X121853588Y-6381946D01*
X121853588Y-6381946D02*
X121752573Y-6415618D01*
X121752573Y-6415618D02*
X121685229Y-6415618D01*
X121685229Y-6415618D02*
X121584214Y-6381946D01*
X121584214Y-6381946D02*
X121415855Y-6213588D01*
X121415855Y-6213588D02*
X121382183Y-6112572D01*
X121382183Y-6112572D02*
X121382183Y-6045229D01*
X121382183Y-6045229D02*
X121415855Y-5944214D01*
X121415855Y-5944214D02*
X121550542Y-5809527D01*
X121550542Y-5809527D02*
X121651557Y-5775855D01*
X121651557Y-5775855D02*
X121718901Y-5775855D01*
X121718901Y-5775855D02*
X121819916Y-5809527D01*
X120641405Y-6651321D02*
X121112809Y-7122725D01*
X120540389Y-6213588D02*
X121213824Y-6550305D01*
X121213824Y-6550305D02*
X120776092Y-6988038D01*
X145370357Y-13444819D02*
X145703690Y-12968628D01*
X145941785Y-13444819D02*
X145941785Y-12444819D01*
X145941785Y-12444819D02*
X145560833Y-12444819D01*
X145560833Y-12444819D02*
X145465595Y-12492438D01*
X145465595Y-12492438D02*
X145417976Y-12540057D01*
X145417976Y-12540057D02*
X145370357Y-12635295D01*
X145370357Y-12635295D02*
X145370357Y-12778152D01*
X145370357Y-12778152D02*
X145417976Y-12873390D01*
X145417976Y-12873390D02*
X145465595Y-12921009D01*
X145465595Y-12921009D02*
X145560833Y-12968628D01*
X145560833Y-12968628D02*
X145941785Y-12968628D01*
X144465595Y-12444819D02*
X144941785Y-12444819D01*
X144941785Y-12444819D02*
X144989404Y-12921009D01*
X144989404Y-12921009D02*
X144941785Y-12873390D01*
X144941785Y-12873390D02*
X144846547Y-12825771D01*
X144846547Y-12825771D02*
X144608452Y-12825771D01*
X144608452Y-12825771D02*
X144513214Y-12873390D01*
X144513214Y-12873390D02*
X144465595Y-12921009D01*
X144465595Y-12921009D02*
X144417976Y-13016247D01*
X144417976Y-13016247D02*
X144417976Y-13254342D01*
X144417976Y-13254342D02*
X144465595Y-13349580D01*
X144465595Y-13349580D02*
X144513214Y-13397200D01*
X144513214Y-13397200D02*
X144608452Y-13444819D01*
X144608452Y-13444819D02*
X144846547Y-13444819D01*
X144846547Y-13444819D02*
X144941785Y-13397200D01*
X144941785Y-13397200D02*
X144989404Y-13349580D01*
X143846547Y-12873390D02*
X143941785Y-12825771D01*
X143941785Y-12825771D02*
X143989404Y-12778152D01*
X143989404Y-12778152D02*
X144037023Y-12682914D01*
X144037023Y-12682914D02*
X144037023Y-12635295D01*
X144037023Y-12635295D02*
X143989404Y-12540057D01*
X143989404Y-12540057D02*
X143941785Y-12492438D01*
X143941785Y-12492438D02*
X143846547Y-12444819D01*
X143846547Y-12444819D02*
X143656071Y-12444819D01*
X143656071Y-12444819D02*
X143560833Y-12492438D01*
X143560833Y-12492438D02*
X143513214Y-12540057D01*
X143513214Y-12540057D02*
X143465595Y-12635295D01*
X143465595Y-12635295D02*
X143465595Y-12682914D01*
X143465595Y-12682914D02*
X143513214Y-12778152D01*
X143513214Y-12778152D02*
X143560833Y-12825771D01*
X143560833Y-12825771D02*
X143656071Y-12873390D01*
X143656071Y-12873390D02*
X143846547Y-12873390D01*
X143846547Y-12873390D02*
X143941785Y-12921009D01*
X143941785Y-12921009D02*
X143989404Y-12968628D01*
X143989404Y-12968628D02*
X144037023Y-13063866D01*
X144037023Y-13063866D02*
X144037023Y-13254342D01*
X144037023Y-13254342D02*
X143989404Y-13349580D01*
X143989404Y-13349580D02*
X143941785Y-13397200D01*
X143941785Y-13397200D02*
X143846547Y-13444819D01*
X143846547Y-13444819D02*
X143656071Y-13444819D01*
X143656071Y-13444819D02*
X143560833Y-13397200D01*
X143560833Y-13397200D02*
X143513214Y-13349580D01*
X143513214Y-13349580D02*
X143465595Y-13254342D01*
X143465595Y-13254342D02*
X143465595Y-13063866D01*
X143465595Y-13063866D02*
X143513214Y-12968628D01*
X143513214Y-12968628D02*
X143560833Y-12921009D01*
X143560833Y-12921009D02*
X143656071Y-12873390D01*
X164963958Y-23870437D02*
X165297291Y-23394246D01*
X165535386Y-23870437D02*
X165535386Y-22870437D01*
X165535386Y-22870437D02*
X165154434Y-22870437D01*
X165154434Y-22870437D02*
X165059196Y-22918056D01*
X165059196Y-22918056D02*
X165011577Y-22965675D01*
X165011577Y-22965675D02*
X164963958Y-23060913D01*
X164963958Y-23060913D02*
X164963958Y-23203770D01*
X164963958Y-23203770D02*
X165011577Y-23299008D01*
X165011577Y-23299008D02*
X165059196Y-23346627D01*
X165059196Y-23346627D02*
X165154434Y-23394246D01*
X165154434Y-23394246D02*
X165535386Y-23394246D01*
X164059196Y-22870437D02*
X164535386Y-22870437D01*
X164535386Y-22870437D02*
X164583005Y-23346627D01*
X164583005Y-23346627D02*
X164535386Y-23299008D01*
X164535386Y-23299008D02*
X164440148Y-23251389D01*
X164440148Y-23251389D02*
X164202053Y-23251389D01*
X164202053Y-23251389D02*
X164106815Y-23299008D01*
X164106815Y-23299008D02*
X164059196Y-23346627D01*
X164059196Y-23346627D02*
X164011577Y-23441865D01*
X164011577Y-23441865D02*
X164011577Y-23679960D01*
X164011577Y-23679960D02*
X164059196Y-23775198D01*
X164059196Y-23775198D02*
X164106815Y-23822818D01*
X164106815Y-23822818D02*
X164202053Y-23870437D01*
X164202053Y-23870437D02*
X164440148Y-23870437D01*
X164440148Y-23870437D02*
X164535386Y-23822818D01*
X164535386Y-23822818D02*
X164583005Y-23775198D01*
X163392529Y-22870437D02*
X163297291Y-22870437D01*
X163297291Y-22870437D02*
X163202053Y-22918056D01*
X163202053Y-22918056D02*
X163154434Y-22965675D01*
X163154434Y-22965675D02*
X163106815Y-23060913D01*
X163106815Y-23060913D02*
X163059196Y-23251389D01*
X163059196Y-23251389D02*
X163059196Y-23489484D01*
X163059196Y-23489484D02*
X163106815Y-23679960D01*
X163106815Y-23679960D02*
X163154434Y-23775198D01*
X163154434Y-23775198D02*
X163202053Y-23822818D01*
X163202053Y-23822818D02*
X163297291Y-23870437D01*
X163297291Y-23870437D02*
X163392529Y-23870437D01*
X163392529Y-23870437D02*
X163487767Y-23822818D01*
X163487767Y-23822818D02*
X163535386Y-23775198D01*
X163535386Y-23775198D02*
X163583005Y-23679960D01*
X163583005Y-23679960D02*
X163630624Y-23489484D01*
X163630624Y-23489484D02*
X163630624Y-23251389D01*
X163630624Y-23251389D02*
X163583005Y-23060913D01*
X163583005Y-23060913D02*
X163535386Y-22965675D01*
X163535386Y-22965675D02*
X163487767Y-22918056D01*
X163487767Y-22918056D02*
X163392529Y-22870437D01*
X103513628Y-27207619D02*
X103989819Y-27207619D01*
X102989819Y-26874286D02*
X103513628Y-27207619D01*
X103513628Y-27207619D02*
X102989819Y-27540952D01*
X103989819Y-28398095D02*
X103989819Y-27826667D01*
X103989819Y-28112381D02*
X102989819Y-28112381D01*
X102989819Y-28112381D02*
X103132676Y-28017143D01*
X103132676Y-28017143D02*
X103227914Y-27921905D01*
X103227914Y-27921905D02*
X103275533Y-27826667D01*
X103085057Y-28779048D02*
X103037438Y-28826667D01*
X103037438Y-28826667D02*
X102989819Y-28921905D01*
X102989819Y-28921905D02*
X102989819Y-29160000D01*
X102989819Y-29160000D02*
X103037438Y-29255238D01*
X103037438Y-29255238D02*
X103085057Y-29302857D01*
X103085057Y-29302857D02*
X103180295Y-29350476D01*
X103180295Y-29350476D02*
X103275533Y-29350476D01*
X103275533Y-29350476D02*
X103418390Y-29302857D01*
X103418390Y-29302857D02*
X103989819Y-28731429D01*
X103989819Y-28731429D02*
X103989819Y-29350476D01*
X78192857Y-24614819D02*
X78526190Y-24138628D01*
X78764285Y-24614819D02*
X78764285Y-23614819D01*
X78764285Y-23614819D02*
X78383333Y-23614819D01*
X78383333Y-23614819D02*
X78288095Y-23662438D01*
X78288095Y-23662438D02*
X78240476Y-23710057D01*
X78240476Y-23710057D02*
X78192857Y-23805295D01*
X78192857Y-23805295D02*
X78192857Y-23948152D01*
X78192857Y-23948152D02*
X78240476Y-24043390D01*
X78240476Y-24043390D02*
X78288095Y-24091009D01*
X78288095Y-24091009D02*
X78383333Y-24138628D01*
X78383333Y-24138628D02*
X78764285Y-24138628D01*
X77811904Y-23710057D02*
X77764285Y-23662438D01*
X77764285Y-23662438D02*
X77669047Y-23614819D01*
X77669047Y-23614819D02*
X77430952Y-23614819D01*
X77430952Y-23614819D02*
X77335714Y-23662438D01*
X77335714Y-23662438D02*
X77288095Y-23710057D01*
X77288095Y-23710057D02*
X77240476Y-23805295D01*
X77240476Y-23805295D02*
X77240476Y-23900533D01*
X77240476Y-23900533D02*
X77288095Y-24043390D01*
X77288095Y-24043390D02*
X77859523Y-24614819D01*
X77859523Y-24614819D02*
X77240476Y-24614819D01*
X76383333Y-23614819D02*
X76573809Y-23614819D01*
X76573809Y-23614819D02*
X76669047Y-23662438D01*
X76669047Y-23662438D02*
X76716666Y-23710057D01*
X76716666Y-23710057D02*
X76811904Y-23852914D01*
X76811904Y-23852914D02*
X76859523Y-24043390D01*
X76859523Y-24043390D02*
X76859523Y-24424342D01*
X76859523Y-24424342D02*
X76811904Y-24519580D01*
X76811904Y-24519580D02*
X76764285Y-24567200D01*
X76764285Y-24567200D02*
X76669047Y-24614819D01*
X76669047Y-24614819D02*
X76478571Y-24614819D01*
X76478571Y-24614819D02*
X76383333Y-24567200D01*
X76383333Y-24567200D02*
X76335714Y-24519580D01*
X76335714Y-24519580D02*
X76288095Y-24424342D01*
X76288095Y-24424342D02*
X76288095Y-24186247D01*
X76288095Y-24186247D02*
X76335714Y-24091009D01*
X76335714Y-24091009D02*
X76383333Y-24043390D01*
X76383333Y-24043390D02*
X76478571Y-23995771D01*
X76478571Y-23995771D02*
X76669047Y-23995771D01*
X76669047Y-23995771D02*
X76764285Y-24043390D01*
X76764285Y-24043390D02*
X76811904Y-24091009D01*
X76811904Y-24091009D02*
X76859523Y-24186247D01*
X95816904Y-3807319D02*
X95816904Y-4616842D01*
X95816904Y-4616842D02*
X95769285Y-4712080D01*
X95769285Y-4712080D02*
X95721666Y-4759700D01*
X95721666Y-4759700D02*
X95626428Y-4807319D01*
X95626428Y-4807319D02*
X95435952Y-4807319D01*
X95435952Y-4807319D02*
X95340714Y-4759700D01*
X95340714Y-4759700D02*
X95293095Y-4712080D01*
X95293095Y-4712080D02*
X95245476Y-4616842D01*
X95245476Y-4616842D02*
X95245476Y-3807319D01*
X94340714Y-3807319D02*
X94531190Y-3807319D01*
X94531190Y-3807319D02*
X94626428Y-3854938D01*
X94626428Y-3854938D02*
X94674047Y-3902557D01*
X94674047Y-3902557D02*
X94769285Y-4045414D01*
X94769285Y-4045414D02*
X94816904Y-4235890D01*
X94816904Y-4235890D02*
X94816904Y-4616842D01*
X94816904Y-4616842D02*
X94769285Y-4712080D01*
X94769285Y-4712080D02*
X94721666Y-4759700D01*
X94721666Y-4759700D02*
X94626428Y-4807319D01*
X94626428Y-4807319D02*
X94435952Y-4807319D01*
X94435952Y-4807319D02*
X94340714Y-4759700D01*
X94340714Y-4759700D02*
X94293095Y-4712080D01*
X94293095Y-4712080D02*
X94245476Y-4616842D01*
X94245476Y-4616842D02*
X94245476Y-4378747D01*
X94245476Y-4378747D02*
X94293095Y-4283509D01*
X94293095Y-4283509D02*
X94340714Y-4235890D01*
X94340714Y-4235890D02*
X94435952Y-4188271D01*
X94435952Y-4188271D02*
X94626428Y-4188271D01*
X94626428Y-4188271D02*
X94721666Y-4235890D01*
X94721666Y-4235890D02*
X94769285Y-4283509D01*
X94769285Y-4283509D02*
X94816904Y-4378747D01*
X178214580Y-25850469D02*
X178262200Y-25802850D01*
X178262200Y-25802850D02*
X178309819Y-25659993D01*
X178309819Y-25659993D02*
X178309819Y-25564755D01*
X178309819Y-25564755D02*
X178262200Y-25421898D01*
X178262200Y-25421898D02*
X178166961Y-25326660D01*
X178166961Y-25326660D02*
X178071723Y-25279041D01*
X178071723Y-25279041D02*
X177881247Y-25231422D01*
X177881247Y-25231422D02*
X177738390Y-25231422D01*
X177738390Y-25231422D02*
X177547914Y-25279041D01*
X177547914Y-25279041D02*
X177452676Y-25326660D01*
X177452676Y-25326660D02*
X177357438Y-25421898D01*
X177357438Y-25421898D02*
X177309819Y-25564755D01*
X177309819Y-25564755D02*
X177309819Y-25659993D01*
X177309819Y-25659993D02*
X177357438Y-25802850D01*
X177357438Y-25802850D02*
X177405057Y-25850469D01*
X178309819Y-26802850D02*
X178309819Y-26231422D01*
X178309819Y-26517136D02*
X177309819Y-26517136D01*
X177309819Y-26517136D02*
X177452676Y-26421898D01*
X177452676Y-26421898D02*
X177547914Y-26326660D01*
X177547914Y-26326660D02*
X177595533Y-26231422D01*
X177405057Y-27183803D02*
X177357438Y-27231422D01*
X177357438Y-27231422D02*
X177309819Y-27326660D01*
X177309819Y-27326660D02*
X177309819Y-27564755D01*
X177309819Y-27564755D02*
X177357438Y-27659993D01*
X177357438Y-27659993D02*
X177405057Y-27707612D01*
X177405057Y-27707612D02*
X177500295Y-27755231D01*
X177500295Y-27755231D02*
X177595533Y-27755231D01*
X177595533Y-27755231D02*
X177738390Y-27707612D01*
X177738390Y-27707612D02*
X178309819Y-27136184D01*
X178309819Y-27136184D02*
X178309819Y-27755231D01*
X177309819Y-28374279D02*
X177309819Y-28469517D01*
X177309819Y-28469517D02*
X177357438Y-28564755D01*
X177357438Y-28564755D02*
X177405057Y-28612374D01*
X177405057Y-28612374D02*
X177500295Y-28659993D01*
X177500295Y-28659993D02*
X177690771Y-28707612D01*
X177690771Y-28707612D02*
X177928866Y-28707612D01*
X177928866Y-28707612D02*
X178119342Y-28659993D01*
X178119342Y-28659993D02*
X178214580Y-28612374D01*
X178214580Y-28612374D02*
X178262200Y-28564755D01*
X178262200Y-28564755D02*
X178309819Y-28469517D01*
X178309819Y-28469517D02*
X178309819Y-28374279D01*
X178309819Y-28374279D02*
X178262200Y-28279041D01*
X178262200Y-28279041D02*
X178214580Y-28231422D01*
X178214580Y-28231422D02*
X178119342Y-28183803D01*
X178119342Y-28183803D02*
X177928866Y-28136184D01*
X177928866Y-28136184D02*
X177690771Y-28136184D01*
X177690771Y-28136184D02*
X177500295Y-28183803D01*
X177500295Y-28183803D02*
X177405057Y-28231422D01*
X177405057Y-28231422D02*
X177357438Y-28279041D01*
X177357438Y-28279041D02*
X177309819Y-28374279D01*
X79559580Y-20772142D02*
X79607200Y-20724523D01*
X79607200Y-20724523D02*
X79654819Y-20581666D01*
X79654819Y-20581666D02*
X79654819Y-20486428D01*
X79654819Y-20486428D02*
X79607200Y-20343571D01*
X79607200Y-20343571D02*
X79511961Y-20248333D01*
X79511961Y-20248333D02*
X79416723Y-20200714D01*
X79416723Y-20200714D02*
X79226247Y-20153095D01*
X79226247Y-20153095D02*
X79083390Y-20153095D01*
X79083390Y-20153095D02*
X78892914Y-20200714D01*
X78892914Y-20200714D02*
X78797676Y-20248333D01*
X78797676Y-20248333D02*
X78702438Y-20343571D01*
X78702438Y-20343571D02*
X78654819Y-20486428D01*
X78654819Y-20486428D02*
X78654819Y-20581666D01*
X78654819Y-20581666D02*
X78702438Y-20724523D01*
X78702438Y-20724523D02*
X78750057Y-20772142D01*
X78654819Y-21676904D02*
X78654819Y-21200714D01*
X78654819Y-21200714D02*
X79131009Y-21153095D01*
X79131009Y-21153095D02*
X79083390Y-21200714D01*
X79083390Y-21200714D02*
X79035771Y-21295952D01*
X79035771Y-21295952D02*
X79035771Y-21534047D01*
X79035771Y-21534047D02*
X79083390Y-21629285D01*
X79083390Y-21629285D02*
X79131009Y-21676904D01*
X79131009Y-21676904D02*
X79226247Y-21724523D01*
X79226247Y-21724523D02*
X79464342Y-21724523D01*
X79464342Y-21724523D02*
X79559580Y-21676904D01*
X79559580Y-21676904D02*
X79607200Y-21629285D01*
X79607200Y-21629285D02*
X79654819Y-21534047D01*
X79654819Y-21534047D02*
X79654819Y-21295952D01*
X79654819Y-21295952D02*
X79607200Y-21200714D01*
X79607200Y-21200714D02*
X79559580Y-21153095D01*
X78654819Y-22343571D02*
X78654819Y-22438809D01*
X78654819Y-22438809D02*
X78702438Y-22534047D01*
X78702438Y-22534047D02*
X78750057Y-22581666D01*
X78750057Y-22581666D02*
X78845295Y-22629285D01*
X78845295Y-22629285D02*
X79035771Y-22676904D01*
X79035771Y-22676904D02*
X79273866Y-22676904D01*
X79273866Y-22676904D02*
X79464342Y-22629285D01*
X79464342Y-22629285D02*
X79559580Y-22581666D01*
X79559580Y-22581666D02*
X79607200Y-22534047D01*
X79607200Y-22534047D02*
X79654819Y-22438809D01*
X79654819Y-22438809D02*
X79654819Y-22343571D01*
X79654819Y-22343571D02*
X79607200Y-22248333D01*
X79607200Y-22248333D02*
X79559580Y-22200714D01*
X79559580Y-22200714D02*
X79464342Y-22153095D01*
X79464342Y-22153095D02*
X79273866Y-22105476D01*
X79273866Y-22105476D02*
X79035771Y-22105476D01*
X79035771Y-22105476D02*
X78845295Y-22153095D01*
X78845295Y-22153095D02*
X78750057Y-22200714D01*
X78750057Y-22200714D02*
X78702438Y-22248333D01*
X78702438Y-22248333D02*
X78654819Y-22343571D01*
X108814819Y-46726666D02*
X109529104Y-46726666D01*
X109529104Y-46726666D02*
X109671961Y-46679047D01*
X109671961Y-46679047D02*
X109767200Y-46583809D01*
X109767200Y-46583809D02*
X109814819Y-46440952D01*
X109814819Y-46440952D02*
X109814819Y-46345714D01*
X109814819Y-47202857D02*
X108814819Y-47202857D01*
X108814819Y-47202857D02*
X108814819Y-47583809D01*
X108814819Y-47583809D02*
X108862438Y-47679047D01*
X108862438Y-47679047D02*
X108910057Y-47726666D01*
X108910057Y-47726666D02*
X109005295Y-47774285D01*
X109005295Y-47774285D02*
X109148152Y-47774285D01*
X109148152Y-47774285D02*
X109243390Y-47726666D01*
X109243390Y-47726666D02*
X109291009Y-47679047D01*
X109291009Y-47679047D02*
X109338628Y-47583809D01*
X109338628Y-47583809D02*
X109338628Y-47202857D01*
X108814819Y-48107619D02*
X108814819Y-48774285D01*
X108814819Y-48774285D02*
X109814819Y-48345714D01*
X125004819Y-13493095D02*
X125814342Y-13493095D01*
X125814342Y-13493095D02*
X125909580Y-13540714D01*
X125909580Y-13540714D02*
X125957200Y-13588333D01*
X125957200Y-13588333D02*
X126004819Y-13683571D01*
X126004819Y-13683571D02*
X126004819Y-13874047D01*
X126004819Y-13874047D02*
X125957200Y-13969285D01*
X125957200Y-13969285D02*
X125909580Y-14016904D01*
X125909580Y-14016904D02*
X125814342Y-14064523D01*
X125814342Y-14064523D02*
X125004819Y-14064523D01*
X125004819Y-14445476D02*
X125004819Y-15112142D01*
X125004819Y-15112142D02*
X126004819Y-14683571D01*
X158773094Y-13914819D02*
X158773094Y-14724342D01*
X158773094Y-14724342D02*
X158725475Y-14819580D01*
X158725475Y-14819580D02*
X158677856Y-14867200D01*
X158677856Y-14867200D02*
X158582618Y-14914819D01*
X158582618Y-14914819D02*
X158392142Y-14914819D01*
X158392142Y-14914819D02*
X158296904Y-14867200D01*
X158296904Y-14867200D02*
X158249285Y-14819580D01*
X158249285Y-14819580D02*
X158201666Y-14724342D01*
X158201666Y-14724342D02*
X158201666Y-13914819D01*
X157201666Y-14914819D02*
X157773094Y-14914819D01*
X157487380Y-14914819D02*
X157487380Y-13914819D01*
X157487380Y-13914819D02*
X157582618Y-14057676D01*
X157582618Y-14057676D02*
X157677856Y-14152914D01*
X157677856Y-14152914D02*
X157773094Y-14200533D01*
X156344523Y-14248152D02*
X156344523Y-14914819D01*
X156582618Y-13867200D02*
X156820713Y-14581485D01*
X156820713Y-14581485D02*
X156201666Y-14581485D01*
X90272857Y-2679580D02*
X90320476Y-2727200D01*
X90320476Y-2727200D02*
X90463333Y-2774819D01*
X90463333Y-2774819D02*
X90558571Y-2774819D01*
X90558571Y-2774819D02*
X90701428Y-2727200D01*
X90701428Y-2727200D02*
X90796666Y-2631961D01*
X90796666Y-2631961D02*
X90844285Y-2536723D01*
X90844285Y-2536723D02*
X90891904Y-2346247D01*
X90891904Y-2346247D02*
X90891904Y-2203390D01*
X90891904Y-2203390D02*
X90844285Y-2012914D01*
X90844285Y-2012914D02*
X90796666Y-1917676D01*
X90796666Y-1917676D02*
X90701428Y-1822438D01*
X90701428Y-1822438D02*
X90558571Y-1774819D01*
X90558571Y-1774819D02*
X90463333Y-1774819D01*
X90463333Y-1774819D02*
X90320476Y-1822438D01*
X90320476Y-1822438D02*
X90272857Y-1870057D01*
X89320476Y-2774819D02*
X89891904Y-2774819D01*
X89606190Y-2774819D02*
X89606190Y-1774819D01*
X89606190Y-1774819D02*
X89701428Y-1917676D01*
X89701428Y-1917676D02*
X89796666Y-2012914D01*
X89796666Y-2012914D02*
X89891904Y-2060533D01*
X88701428Y-1774819D02*
X88606190Y-1774819D01*
X88606190Y-1774819D02*
X88510952Y-1822438D01*
X88510952Y-1822438D02*
X88463333Y-1870057D01*
X88463333Y-1870057D02*
X88415714Y-1965295D01*
X88415714Y-1965295D02*
X88368095Y-2155771D01*
X88368095Y-2155771D02*
X88368095Y-2393866D01*
X88368095Y-2393866D02*
X88415714Y-2584342D01*
X88415714Y-2584342D02*
X88463333Y-2679580D01*
X88463333Y-2679580D02*
X88510952Y-2727200D01*
X88510952Y-2727200D02*
X88606190Y-2774819D01*
X88606190Y-2774819D02*
X88701428Y-2774819D01*
X88701428Y-2774819D02*
X88796666Y-2727200D01*
X88796666Y-2727200D02*
X88844285Y-2679580D01*
X88844285Y-2679580D02*
X88891904Y-2584342D01*
X88891904Y-2584342D02*
X88939523Y-2393866D01*
X88939523Y-2393866D02*
X88939523Y-2155771D01*
X88939523Y-2155771D02*
X88891904Y-1965295D01*
X88891904Y-1965295D02*
X88844285Y-1870057D01*
X88844285Y-1870057D02*
X88796666Y-1822438D01*
X88796666Y-1822438D02*
X88701428Y-1774819D01*
X118352380Y6711371D02*
X118352380Y6235180D01*
X118685713Y7235180D02*
X118352380Y6711371D01*
X118352380Y6711371D02*
X118019047Y7235180D01*
X117161904Y6235180D02*
X117733332Y6235180D01*
X117447618Y6235180D02*
X117447618Y7235180D01*
X117447618Y7235180D02*
X117542856Y7092323D01*
X117542856Y7092323D02*
X117638094Y6997085D01*
X117638094Y6997085D02*
X117733332Y6949466D01*
X116304761Y7235180D02*
X116495237Y7235180D01*
X116495237Y7235180D02*
X116590475Y7187561D01*
X116590475Y7187561D02*
X116638094Y7139942D01*
X116638094Y7139942D02*
X116733332Y6997085D01*
X116733332Y6997085D02*
X116780951Y6806609D01*
X116780951Y6806609D02*
X116780951Y6425657D01*
X116780951Y6425657D02*
X116733332Y6330419D01*
X116733332Y6330419D02*
X116685713Y6282800D01*
X116685713Y6282800D02*
X116590475Y6235180D01*
X116590475Y6235180D02*
X116399999Y6235180D01*
X116399999Y6235180D02*
X116304761Y6282800D01*
X116304761Y6282800D02*
X116257142Y6330419D01*
X116257142Y6330419D02*
X116209523Y6425657D01*
X116209523Y6425657D02*
X116209523Y6663752D01*
X116209523Y6663752D02*
X116257142Y6758990D01*
X116257142Y6758990D02*
X116304761Y6806609D01*
X116304761Y6806609D02*
X116399999Y6854228D01*
X116399999Y6854228D02*
X116590475Y6854228D01*
X116590475Y6854228D02*
X116685713Y6806609D01*
X116685713Y6806609D02*
X116733332Y6758990D01*
X116733332Y6758990D02*
X116780951Y6663752D01*
X111409819Y-46731666D02*
X112124104Y-46731666D01*
X112124104Y-46731666D02*
X112266961Y-46684047D01*
X112266961Y-46684047D02*
X112362200Y-46588809D01*
X112362200Y-46588809D02*
X112409819Y-46445952D01*
X112409819Y-46445952D02*
X112409819Y-46350714D01*
X112409819Y-47207857D02*
X111409819Y-47207857D01*
X111409819Y-47207857D02*
X111409819Y-47588809D01*
X111409819Y-47588809D02*
X111457438Y-47684047D01*
X111457438Y-47684047D02*
X111505057Y-47731666D01*
X111505057Y-47731666D02*
X111600295Y-47779285D01*
X111600295Y-47779285D02*
X111743152Y-47779285D01*
X111743152Y-47779285D02*
X111838390Y-47731666D01*
X111838390Y-47731666D02*
X111886009Y-47684047D01*
X111886009Y-47684047D02*
X111933628Y-47588809D01*
X111933628Y-47588809D02*
X111933628Y-47207857D01*
X111409819Y-48112619D02*
X111409819Y-48731666D01*
X111409819Y-48731666D02*
X111790771Y-48398333D01*
X111790771Y-48398333D02*
X111790771Y-48541190D01*
X111790771Y-48541190D02*
X111838390Y-48636428D01*
X111838390Y-48636428D02*
X111886009Y-48684047D01*
X111886009Y-48684047D02*
X111981247Y-48731666D01*
X111981247Y-48731666D02*
X112219342Y-48731666D01*
X112219342Y-48731666D02*
X112314580Y-48684047D01*
X112314580Y-48684047D02*
X112362200Y-48636428D01*
X112362200Y-48636428D02*
X112409819Y-48541190D01*
X112409819Y-48541190D02*
X112409819Y-48255476D01*
X112409819Y-48255476D02*
X112362200Y-48160238D01*
X112362200Y-48160238D02*
X112314580Y-48112619D01*
X81929819Y-33032142D02*
X81453628Y-32698809D01*
X81929819Y-32460714D02*
X80929819Y-32460714D01*
X80929819Y-32460714D02*
X80929819Y-32841666D01*
X80929819Y-32841666D02*
X80977438Y-32936904D01*
X80977438Y-32936904D02*
X81025057Y-32984523D01*
X81025057Y-32984523D02*
X81120295Y-33032142D01*
X81120295Y-33032142D02*
X81263152Y-33032142D01*
X81263152Y-33032142D02*
X81358390Y-32984523D01*
X81358390Y-32984523D02*
X81406009Y-32936904D01*
X81406009Y-32936904D02*
X81453628Y-32841666D01*
X81453628Y-32841666D02*
X81453628Y-32460714D01*
X81025057Y-33413095D02*
X80977438Y-33460714D01*
X80977438Y-33460714D02*
X80929819Y-33555952D01*
X80929819Y-33555952D02*
X80929819Y-33794047D01*
X80929819Y-33794047D02*
X80977438Y-33889285D01*
X80977438Y-33889285D02*
X81025057Y-33936904D01*
X81025057Y-33936904D02*
X81120295Y-33984523D01*
X81120295Y-33984523D02*
X81215533Y-33984523D01*
X81215533Y-33984523D02*
X81358390Y-33936904D01*
X81358390Y-33936904D02*
X81929819Y-33365476D01*
X81929819Y-33365476D02*
X81929819Y-33984523D01*
X81358390Y-34555952D02*
X81310771Y-34460714D01*
X81310771Y-34460714D02*
X81263152Y-34413095D01*
X81263152Y-34413095D02*
X81167914Y-34365476D01*
X81167914Y-34365476D02*
X81120295Y-34365476D01*
X81120295Y-34365476D02*
X81025057Y-34413095D01*
X81025057Y-34413095D02*
X80977438Y-34460714D01*
X80977438Y-34460714D02*
X80929819Y-34555952D01*
X80929819Y-34555952D02*
X80929819Y-34746428D01*
X80929819Y-34746428D02*
X80977438Y-34841666D01*
X80977438Y-34841666D02*
X81025057Y-34889285D01*
X81025057Y-34889285D02*
X81120295Y-34936904D01*
X81120295Y-34936904D02*
X81167914Y-34936904D01*
X81167914Y-34936904D02*
X81263152Y-34889285D01*
X81263152Y-34889285D02*
X81310771Y-34841666D01*
X81310771Y-34841666D02*
X81358390Y-34746428D01*
X81358390Y-34746428D02*
X81358390Y-34555952D01*
X81358390Y-34555952D02*
X81406009Y-34460714D01*
X81406009Y-34460714D02*
X81453628Y-34413095D01*
X81453628Y-34413095D02*
X81548866Y-34365476D01*
X81548866Y-34365476D02*
X81739342Y-34365476D01*
X81739342Y-34365476D02*
X81834580Y-34413095D01*
X81834580Y-34413095D02*
X81882200Y-34460714D01*
X81882200Y-34460714D02*
X81929819Y-34555952D01*
X81929819Y-34555952D02*
X81929819Y-34746428D01*
X81929819Y-34746428D02*
X81882200Y-34841666D01*
X81882200Y-34841666D02*
X81834580Y-34889285D01*
X81834580Y-34889285D02*
X81739342Y-34936904D01*
X81739342Y-34936904D02*
X81548866Y-34936904D01*
X81548866Y-34936904D02*
X81453628Y-34889285D01*
X81453628Y-34889285D02*
X81406009Y-34841666D01*
X81406009Y-34841666D02*
X81358390Y-34746428D01*
X151347857Y-18124819D02*
X151681190Y-17648628D01*
X151919285Y-18124819D02*
X151919285Y-17124819D01*
X151919285Y-17124819D02*
X151538333Y-17124819D01*
X151538333Y-17124819D02*
X151443095Y-17172438D01*
X151443095Y-17172438D02*
X151395476Y-17220057D01*
X151395476Y-17220057D02*
X151347857Y-17315295D01*
X151347857Y-17315295D02*
X151347857Y-17458152D01*
X151347857Y-17458152D02*
X151395476Y-17553390D01*
X151395476Y-17553390D02*
X151443095Y-17601009D01*
X151443095Y-17601009D02*
X151538333Y-17648628D01*
X151538333Y-17648628D02*
X151919285Y-17648628D01*
X151014523Y-17124819D02*
X150395476Y-17124819D01*
X150395476Y-17124819D02*
X150728809Y-17505771D01*
X150728809Y-17505771D02*
X150585952Y-17505771D01*
X150585952Y-17505771D02*
X150490714Y-17553390D01*
X150490714Y-17553390D02*
X150443095Y-17601009D01*
X150443095Y-17601009D02*
X150395476Y-17696247D01*
X150395476Y-17696247D02*
X150395476Y-17934342D01*
X150395476Y-17934342D02*
X150443095Y-18029580D01*
X150443095Y-18029580D02*
X150490714Y-18077200D01*
X150490714Y-18077200D02*
X150585952Y-18124819D01*
X150585952Y-18124819D02*
X150871666Y-18124819D01*
X150871666Y-18124819D02*
X150966904Y-18077200D01*
X150966904Y-18077200D02*
X151014523Y-18029580D01*
X149490714Y-17124819D02*
X149966904Y-17124819D01*
X149966904Y-17124819D02*
X150014523Y-17601009D01*
X150014523Y-17601009D02*
X149966904Y-17553390D01*
X149966904Y-17553390D02*
X149871666Y-17505771D01*
X149871666Y-17505771D02*
X149633571Y-17505771D01*
X149633571Y-17505771D02*
X149538333Y-17553390D01*
X149538333Y-17553390D02*
X149490714Y-17601009D01*
X149490714Y-17601009D02*
X149443095Y-17696247D01*
X149443095Y-17696247D02*
X149443095Y-17934342D01*
X149443095Y-17934342D02*
X149490714Y-18029580D01*
X149490714Y-18029580D02*
X149538333Y-18077200D01*
X149538333Y-18077200D02*
X149633571Y-18124819D01*
X149633571Y-18124819D02*
X149871666Y-18124819D01*
X149871666Y-18124819D02*
X149966904Y-18077200D01*
X149966904Y-18077200D02*
X150014523Y-18029580D01*
X137849523Y5703990D02*
X138182856Y5703990D01*
X138182856Y5180180D02*
X138182856Y6180180D01*
X138182856Y6180180D02*
X137706666Y6180180D01*
X136992380Y5703990D02*
X136849523Y5656371D01*
X136849523Y5656371D02*
X136801904Y5608752D01*
X136801904Y5608752D02*
X136754285Y5513514D01*
X136754285Y5513514D02*
X136754285Y5370657D01*
X136754285Y5370657D02*
X136801904Y5275419D01*
X136801904Y5275419D02*
X136849523Y5227800D01*
X136849523Y5227800D02*
X136944761Y5180180D01*
X136944761Y5180180D02*
X137325713Y5180180D01*
X137325713Y5180180D02*
X137325713Y6180180D01*
X137325713Y6180180D02*
X136992380Y6180180D01*
X136992380Y6180180D02*
X136897142Y6132561D01*
X136897142Y6132561D02*
X136849523Y6084942D01*
X136849523Y6084942D02*
X136801904Y5989704D01*
X136801904Y5989704D02*
X136801904Y5894466D01*
X136801904Y5894466D02*
X136849523Y5799228D01*
X136849523Y5799228D02*
X136897142Y5751609D01*
X136897142Y5751609D02*
X136992380Y5703990D01*
X136992380Y5703990D02*
X137325713Y5703990D01*
X135801904Y5180180D02*
X136373332Y5180180D01*
X136087618Y5180180D02*
X136087618Y6180180D01*
X136087618Y6180180D02*
X136182856Y6037323D01*
X136182856Y6037323D02*
X136278094Y5942085D01*
X136278094Y5942085D02*
X136373332Y5894466D01*
X134944761Y5846847D02*
X134944761Y5180180D01*
X135182856Y6227800D02*
X135420951Y5513514D01*
X135420951Y5513514D02*
X134801904Y5513514D01*
X136622857Y-7274819D02*
X136956190Y-6798628D01*
X137194285Y-7274819D02*
X137194285Y-6274819D01*
X137194285Y-6274819D02*
X136813333Y-6274819D01*
X136813333Y-6274819D02*
X136718095Y-6322438D01*
X136718095Y-6322438D02*
X136670476Y-6370057D01*
X136670476Y-6370057D02*
X136622857Y-6465295D01*
X136622857Y-6465295D02*
X136622857Y-6608152D01*
X136622857Y-6608152D02*
X136670476Y-6703390D01*
X136670476Y-6703390D02*
X136718095Y-6751009D01*
X136718095Y-6751009D02*
X136813333Y-6798628D01*
X136813333Y-6798628D02*
X137194285Y-6798628D01*
X135765714Y-6274819D02*
X135956190Y-6274819D01*
X135956190Y-6274819D02*
X136051428Y-6322438D01*
X136051428Y-6322438D02*
X136099047Y-6370057D01*
X136099047Y-6370057D02*
X136194285Y-6512914D01*
X136194285Y-6512914D02*
X136241904Y-6703390D01*
X136241904Y-6703390D02*
X136241904Y-7084342D01*
X136241904Y-7084342D02*
X136194285Y-7179580D01*
X136194285Y-7179580D02*
X136146666Y-7227200D01*
X136146666Y-7227200D02*
X136051428Y-7274819D01*
X136051428Y-7274819D02*
X135860952Y-7274819D01*
X135860952Y-7274819D02*
X135765714Y-7227200D01*
X135765714Y-7227200D02*
X135718095Y-7179580D01*
X135718095Y-7179580D02*
X135670476Y-7084342D01*
X135670476Y-7084342D02*
X135670476Y-6846247D01*
X135670476Y-6846247D02*
X135718095Y-6751009D01*
X135718095Y-6751009D02*
X135765714Y-6703390D01*
X135765714Y-6703390D02*
X135860952Y-6655771D01*
X135860952Y-6655771D02*
X136051428Y-6655771D01*
X136051428Y-6655771D02*
X136146666Y-6703390D01*
X136146666Y-6703390D02*
X136194285Y-6751009D01*
X136194285Y-6751009D02*
X136241904Y-6846247D01*
X135337142Y-6274819D02*
X134718095Y-6274819D01*
X134718095Y-6274819D02*
X135051428Y-6655771D01*
X135051428Y-6655771D02*
X134908571Y-6655771D01*
X134908571Y-6655771D02*
X134813333Y-6703390D01*
X134813333Y-6703390D02*
X134765714Y-6751009D01*
X134765714Y-6751009D02*
X134718095Y-6846247D01*
X134718095Y-6846247D02*
X134718095Y-7084342D01*
X134718095Y-7084342D02*
X134765714Y-7179580D01*
X134765714Y-7179580D02*
X134813333Y-7227200D01*
X134813333Y-7227200D02*
X134908571Y-7274819D01*
X134908571Y-7274819D02*
X135194285Y-7274819D01*
X135194285Y-7274819D02*
X135289523Y-7227200D01*
X135289523Y-7227200D02*
X135337142Y-7179580D01*
X93854580Y9822857D02*
X93902200Y9870476D01*
X93902200Y9870476D02*
X93949819Y10013333D01*
X93949819Y10013333D02*
X93949819Y10108571D01*
X93949819Y10108571D02*
X93902200Y10251428D01*
X93902200Y10251428D02*
X93806961Y10346666D01*
X93806961Y10346666D02*
X93711723Y10394285D01*
X93711723Y10394285D02*
X93521247Y10441904D01*
X93521247Y10441904D02*
X93378390Y10441904D01*
X93378390Y10441904D02*
X93187914Y10394285D01*
X93187914Y10394285D02*
X93092676Y10346666D01*
X93092676Y10346666D02*
X92997438Y10251428D01*
X92997438Y10251428D02*
X92949819Y10108571D01*
X92949819Y10108571D02*
X92949819Y10013333D01*
X92949819Y10013333D02*
X92997438Y9870476D01*
X92997438Y9870476D02*
X93045057Y9822857D01*
X93949819Y8870476D02*
X93949819Y9441904D01*
X93949819Y9156190D02*
X92949819Y9156190D01*
X92949819Y9156190D02*
X93092676Y9251428D01*
X93092676Y9251428D02*
X93187914Y9346666D01*
X93187914Y9346666D02*
X93235533Y9441904D01*
X93045057Y8489523D02*
X92997438Y8441904D01*
X92997438Y8441904D02*
X92949819Y8346666D01*
X92949819Y8346666D02*
X92949819Y8108571D01*
X92949819Y8108571D02*
X92997438Y8013333D01*
X92997438Y8013333D02*
X93045057Y7965714D01*
X93045057Y7965714D02*
X93140295Y7918095D01*
X93140295Y7918095D02*
X93235533Y7918095D01*
X93235533Y7918095D02*
X93378390Y7965714D01*
X93378390Y7965714D02*
X93949819Y8537142D01*
X93949819Y8537142D02*
X93949819Y7918095D01*
X85721904Y9695180D02*
X85721904Y8885657D01*
X85721904Y8885657D02*
X85674285Y8790419D01*
X85674285Y8790419D02*
X85626666Y8742800D01*
X85626666Y8742800D02*
X85531428Y8695180D01*
X85531428Y8695180D02*
X85340952Y8695180D01*
X85340952Y8695180D02*
X85245714Y8742800D01*
X85245714Y8742800D02*
X85198095Y8790419D01*
X85198095Y8790419D02*
X85150476Y8885657D01*
X85150476Y8885657D02*
X85150476Y9695180D01*
X84245714Y9361847D02*
X84245714Y8695180D01*
X84483809Y9742800D02*
X84721904Y9028514D01*
X84721904Y9028514D02*
X84102857Y9028514D01*
X109814819Y-33082142D02*
X109338628Y-32748809D01*
X109814819Y-32510714D02*
X108814819Y-32510714D01*
X108814819Y-32510714D02*
X108814819Y-32891666D01*
X108814819Y-32891666D02*
X108862438Y-32986904D01*
X108862438Y-32986904D02*
X108910057Y-33034523D01*
X108910057Y-33034523D02*
X109005295Y-33082142D01*
X109005295Y-33082142D02*
X109148152Y-33082142D01*
X109148152Y-33082142D02*
X109243390Y-33034523D01*
X109243390Y-33034523D02*
X109291009Y-32986904D01*
X109291009Y-32986904D02*
X109338628Y-32891666D01*
X109338628Y-32891666D02*
X109338628Y-32510714D01*
X109148152Y-33939285D02*
X109814819Y-33939285D01*
X108767200Y-33701190D02*
X109481485Y-33463095D01*
X109481485Y-33463095D02*
X109481485Y-34082142D01*
X109148152Y-34891666D02*
X109814819Y-34891666D01*
X108767200Y-34653571D02*
X109481485Y-34415476D01*
X109481485Y-34415476D02*
X109481485Y-35034523D01*
X118889603Y-4685004D02*
X119462022Y-5257424D01*
X119462022Y-5257424D02*
X119495694Y-5358439D01*
X119495694Y-5358439D02*
X119495694Y-5425783D01*
X119495694Y-5425783D02*
X119462022Y-5526798D01*
X119462022Y-5526798D02*
X119327335Y-5661485D01*
X119327335Y-5661485D02*
X119226320Y-5695157D01*
X119226320Y-5695157D02*
X119158977Y-5695157D01*
X119158977Y-5695157D02*
X119057961Y-5661485D01*
X119057961Y-5661485D02*
X118485542Y-5089065D01*
X118485542Y-6503279D02*
X118889603Y-6099218D01*
X118687572Y-6301248D02*
X117980465Y-5594141D01*
X117980465Y-5594141D02*
X118148824Y-5627813D01*
X118148824Y-5627813D02*
X118283511Y-5627813D01*
X118283511Y-5627813D02*
X118384526Y-5594141D01*
X117172343Y-6402263D02*
X117307030Y-6267576D01*
X117307030Y-6267576D02*
X117408045Y-6233905D01*
X117408045Y-6233905D02*
X117475389Y-6233905D01*
X117475389Y-6233905D02*
X117643748Y-6267576D01*
X117643748Y-6267576D02*
X117812107Y-6368592D01*
X117812107Y-6368592D02*
X118081481Y-6637966D01*
X118081481Y-6637966D02*
X118115152Y-6738981D01*
X118115152Y-6738981D02*
X118115152Y-6806324D01*
X118115152Y-6806324D02*
X118081481Y-6907340D01*
X118081481Y-6907340D02*
X117946794Y-7042027D01*
X117946794Y-7042027D02*
X117845778Y-7075699D01*
X117845778Y-7075699D02*
X117778435Y-7075699D01*
X117778435Y-7075699D02*
X117677420Y-7042027D01*
X117677420Y-7042027D02*
X117509061Y-6873668D01*
X117509061Y-6873668D02*
X117475389Y-6772653D01*
X117475389Y-6772653D02*
X117475389Y-6705309D01*
X117475389Y-6705309D02*
X117509061Y-6604294D01*
X117509061Y-6604294D02*
X117643748Y-6469607D01*
X117643748Y-6469607D02*
X117744763Y-6435935D01*
X117744763Y-6435935D02*
X117812107Y-6435935D01*
X117812107Y-6435935D02*
X117913122Y-6469607D01*
D12*
%TO.C,J6*%
X103962800Y29118100D02*
G75*
G02*
X103200800Y29118100I-381000J0D01*
G01*
X103200800Y29118100D02*
G75*
G02*
X103962800Y29118100I381000J0D01*
G01*
D13*
%TO.C,R59*%
X113630276Y-14666399D02*
X114139724Y-14666399D01*
X113630276Y-15711399D02*
X114139724Y-15711399D01*
%TO.C,C136*%
X113863601Y5342718D02*
X114016104Y5495221D01*
X114372718Y4833601D02*
X114525221Y4986104D01*
%TO.C,R27*%
X102762742Y-10067500D02*
X103237258Y-10067500D01*
X102762742Y-11112500D02*
X103237258Y-11112500D01*
%TO.C,C32*%
X79547836Y-49355000D02*
X79332164Y-49355000D01*
X79547836Y-50075000D02*
X79332164Y-50075000D01*
%TO.C,C132*%
X140700000Y7506252D02*
X140700000Y6983748D01*
X142170000Y7506252D02*
X142170000Y6983748D01*
%TO.C,R52*%
X168961101Y-32413554D02*
X168961101Y-33867682D01*
X170781101Y-32413554D02*
X170781101Y-33867682D01*
%TO.C,TP6*%
X123200000Y8235000D02*
X123200000Y6835000D01*
X123200000Y6835000D02*
X124600000Y6835000D01*
X124600000Y8235000D02*
X123200000Y8235000D01*
X124600000Y6835000D02*
X124600000Y8235000D01*
%TO.C,R36*%
X141112500Y-32145436D02*
X141112500Y-33599564D01*
X142932500Y-32145436D02*
X142932500Y-33599564D01*
%TO.C,C97*%
X120108899Y-27292647D02*
X120108899Y-27815151D01*
X121578899Y-27292647D02*
X121578899Y-27815151D01*
%TO.C,JP10*%
X137895000Y-45455000D02*
X137895000Y-48255000D01*
X137895000Y-48255000D02*
X139895000Y-48255000D01*
X139895000Y-45455000D02*
X137895000Y-45455000D01*
X139895000Y-48255000D02*
X139895000Y-45455000D01*
%TO.C,C131*%
X138665000Y7566252D02*
X138665000Y7043748D01*
X140135000Y7566252D02*
X140135000Y7043748D01*
%TO.C,JP4*%
X170290000Y-45980000D02*
X170290000Y-48780000D01*
X170290000Y-48780000D02*
X172290000Y-48780000D01*
X172290000Y-45980000D02*
X170290000Y-45980000D01*
X172290000Y-48780000D02*
X172290000Y-45980000D01*
%TO.C,JP12*%
X164995000Y-45980000D02*
X164995000Y-48780000D01*
X164995000Y-48780000D02*
X166995000Y-48780000D01*
X166995000Y-45980000D02*
X164995000Y-45980000D01*
X166995000Y-48780000D02*
X166995000Y-45980000D01*
%TO.C,Y6*%
X76440000Y-26650000D02*
X76440000Y-29260000D01*
X76980000Y-26650000D02*
X76440000Y-26650000D01*
X79860000Y-29250000D02*
X79860000Y-26970000D01*
%TO.C,C74*%
X150951399Y-26440147D02*
X150951399Y-26962651D01*
X152421399Y-26440147D02*
X152421399Y-26962651D01*
%TO.C,C13*%
X98432164Y-675000D02*
X98647836Y-675000D01*
X98432164Y-1395000D02*
X98647836Y-1395000D01*
%TO.C,R61*%
X156832258Y-3912500D02*
X156357742Y-3912500D01*
X156832258Y-4957500D02*
X156357742Y-4957500D01*
%TO.C,JP8*%
X167640000Y-45980000D02*
X167640000Y-48780000D01*
X167640000Y-48780000D02*
X169640000Y-48780000D01*
X169640000Y-45980000D02*
X167640000Y-45980000D01*
X169640000Y-48780000D02*
X169640000Y-45980000D01*
%TO.C,C133*%
X142155000Y11797836D02*
X142155000Y11582164D01*
X142875000Y11797836D02*
X142875000Y11582164D01*
%TO.C,C101*%
X169807164Y-49285000D02*
X170022836Y-49285000D01*
X169807164Y-50005000D02*
X170022836Y-50005000D01*
%TO.C,R56*%
X176200825Y-14082017D02*
X175691377Y-14082017D01*
X176200825Y-15127017D02*
X175691377Y-15127017D01*
%TO.C,C135*%
X115960010Y5159457D02*
X115590543Y4789990D01*
X116999457Y4120010D02*
X116629990Y3750543D01*
D14*
%TO.C,J15*%
X121360000Y14120000D02*
X137960000Y14120000D01*
X121360000Y13820000D02*
X121360000Y14120000D01*
X122960000Y10620000D02*
X123560000Y10620000D01*
D15*
X123260000Y10120000D02*
X123260000Y10120000D01*
X123260000Y9920000D02*
X123260000Y9920000D01*
D14*
X136360000Y10620000D02*
X135760000Y10620000D01*
X137960000Y14120000D02*
X137960000Y13820000D01*
D15*
X123260000Y10120000D02*
G75*
G02*
X123260000Y9920000I0J-100000D01*
G01*
X123260000Y9920000D02*
G75*
G02*
X123260000Y10120000I0J100000D01*
G01*
D13*
%TO.C,C78*%
X112212164Y-49405000D02*
X112427836Y-49405000D01*
X112212164Y-50125000D02*
X112427836Y-50125000D01*
%TO.C,R53*%
X89624724Y-14616399D02*
X89115276Y-14616399D01*
X89624724Y-15661399D02*
X89115276Y-15661399D01*
D16*
%TO.C,IC3*%
X140682500Y-23887500D02*
G75*
G02*
X140432500Y-23887500I-125000J0D01*
G01*
X140432500Y-23887500D02*
G75*
G02*
X140682500Y-23887500I125000J0D01*
G01*
D13*
%TO.C,Y15*%
X163016101Y-26115618D02*
X163016101Y-28725618D01*
X163556101Y-26115618D02*
X163016101Y-26115618D01*
X166436101Y-28715618D02*
X166436101Y-26435618D01*
%TO.C,JP11*%
X107285000Y-46475000D02*
X107285000Y-49275000D01*
X107285000Y-49275000D02*
X109285000Y-49275000D01*
X109285000Y-46475000D02*
X107285000Y-46475000D01*
X109285000Y-49275000D02*
X109285000Y-46475000D01*
%TO.C,C96*%
X107830000Y-21318748D02*
X107830000Y-21841252D01*
X109300000Y-21318748D02*
X109300000Y-21841252D01*
%TO.C,C119*%
X166521101Y-20734366D02*
X166521101Y-21256870D01*
X167991101Y-20734366D02*
X167991101Y-21256870D01*
%TO.C,R54*%
X148352224Y-13813899D02*
X147842776Y-13813899D01*
X148352224Y-14858899D02*
X147842776Y-14858899D01*
%TO.C,C8*%
X89527164Y260000D02*
X89742836Y260000D01*
X89527164Y-460000D02*
X89742836Y-460000D01*
%TO.C,R55*%
X117509724Y-14666399D02*
X117000276Y-14666399D01*
X117509724Y-15711399D02*
X117000276Y-15711399D01*
%TO.C,C51*%
X92223899Y-27242647D02*
X92223899Y-27765151D01*
X93693899Y-27242647D02*
X93693899Y-27765151D01*
%TO.C,C134*%
X139950000Y12536252D02*
X139950000Y12013748D01*
X141420000Y12536252D02*
X141420000Y12013748D01*
%TO.C,U5*%
X95650000Y8245000D02*
X99410000Y8245000D01*
X95650000Y1425000D02*
X99410000Y1425000D01*
X99410000Y8245000D02*
X99410000Y6985000D01*
X99410000Y1425000D02*
X99410000Y2685000D01*
X94610000Y1195000D02*
X94130000Y1195000D01*
X94370000Y1525000D01*
X94610000Y1195000D01*
G36*
X94610000Y1195000D02*
G01*
X94130000Y1195000D01*
X94370000Y1525000D01*
X94610000Y1195000D01*
G37*
%TO.C,C55*%
X142632164Y-48760000D02*
X142847836Y-48760000D01*
X142632164Y-49480000D02*
X142847836Y-49480000D01*
%TO.C,JP14*%
X135245000Y-45425000D02*
X135245000Y-48225000D01*
X135245000Y-48225000D02*
X137245000Y-48225000D01*
X137245000Y-45425000D02*
X135245000Y-45425000D01*
X137245000Y-48225000D02*
X137245000Y-45425000D01*
D16*
%TO.C,IC2*%
X81955000Y-24690000D02*
G75*
G02*
X81705000Y-24690000I-125000J0D01*
G01*
X81705000Y-24690000D02*
G75*
G02*
X81955000Y-24690000I125000J0D01*
G01*
D13*
%TO.C,R60*%
X172321377Y-14082017D02*
X172830825Y-14082017D01*
X172321377Y-15127017D02*
X172830825Y-15127017D01*
%TO.C,JP9*%
X79695000Y-46060000D02*
X79695000Y-48860000D01*
X79695000Y-48860000D02*
X81695000Y-48860000D01*
X81695000Y-46060000D02*
X79695000Y-46060000D01*
X81695000Y-48860000D02*
X81695000Y-46060000D01*
%TO.C,R42*%
X105867258Y-24907500D02*
X105392742Y-24907500D01*
X105867258Y-25952500D02*
X105392742Y-25952500D01*
%TO.C,Y9*%
X135167500Y-25847500D02*
X135167500Y-28457500D01*
X135707500Y-25847500D02*
X135167500Y-25847500D01*
X138587500Y-28447500D02*
X138587500Y-26167500D01*
%TO.C,R34*%
X136709758Y-24055000D02*
X136235242Y-24055000D01*
X136709758Y-25100000D02*
X136235242Y-25100000D01*
%TO.C,JP1*%
X84970000Y-46065000D02*
X84970000Y-48865000D01*
X84970000Y-48865000D02*
X86970000Y-48865000D01*
X86970000Y-46065000D02*
X84970000Y-46065000D01*
X86970000Y-48865000D02*
X86970000Y-46065000D01*
D16*
%TO.C,IC5*%
X168531101Y-24155618D02*
G75*
G02*
X168281101Y-24155618I-125000J0D01*
G01*
X168281101Y-24155618D02*
G75*
G02*
X168531101Y-24155618I125000J0D01*
G01*
D13*
%TO.C,JP5*%
X82385000Y-46045000D02*
X82385000Y-48845000D01*
X82385000Y-48845000D02*
X84385000Y-48845000D01*
X84385000Y-46045000D02*
X82385000Y-46045000D01*
X84385000Y-48845000D02*
X84385000Y-46045000D01*
%TO.C,C130*%
X133352836Y8745000D02*
X133137164Y8745000D01*
X133352836Y8025000D02*
X133137164Y8025000D01*
%TO.C,R62*%
X140989940Y-7733867D02*
X140654407Y-7398334D01*
X141728867Y-6994940D02*
X141393334Y-6659407D01*
%TO.C,R57*%
X85745276Y-14616399D02*
X86254724Y-14616399D01*
X85745276Y-15661399D02*
X86254724Y-15661399D01*
%TO.C,JP13*%
X77000000Y-46065000D02*
X77000000Y-48865000D01*
X77000000Y-48865000D02*
X79000000Y-48865000D01*
X79000000Y-46065000D02*
X77000000Y-46065000D01*
X79000000Y-48865000D02*
X79000000Y-46065000D01*
%TO.C,C73*%
X138672500Y-20466248D02*
X138672500Y-20988752D01*
X140142500Y-20466248D02*
X140142500Y-20988752D01*
D16*
%TO.C,IC4*%
X109840000Y-24740000D02*
G75*
G02*
X109590000Y-24740000I-125000J0D01*
G01*
X109590000Y-24740000D02*
G75*
G02*
X109840000Y-24740000I125000J0D01*
G01*
D13*
%TO.C,C9*%
X92215000Y-4467164D02*
X92215000Y-4682836D01*
X92935000Y-4467164D02*
X92935000Y-4682836D01*
%TO.C,C11*%
X97007164Y9800000D02*
X97222836Y9800000D01*
X97007164Y9080000D02*
X97222836Y9080000D01*
%TO.C,R64*%
X120067769Y-4763304D02*
X120403303Y-4427770D01*
X120806697Y-5502230D02*
X121142231Y-5166696D01*
%TO.C,R58*%
X144472776Y-13813899D02*
X144982224Y-13813899D01*
X144472776Y-14858899D02*
X144982224Y-14858899D01*
%TO.C,R50*%
X164558359Y-24323118D02*
X164083843Y-24323118D01*
X164558359Y-25368118D02*
X164083843Y-25368118D01*
%TO.C,Y12*%
X104325000Y-26700000D02*
X104325000Y-29310000D01*
X104865000Y-26700000D02*
X104325000Y-26700000D01*
X107745000Y-29300000D02*
X107745000Y-27020000D01*
%TO.C,R26*%
X77982258Y-24857500D02*
X77507742Y-24857500D01*
X77982258Y-25902500D02*
X77507742Y-25902500D01*
%TO.C,U6*%
X95055000Y-392500D02*
X94255000Y-392500D01*
X95055000Y-392500D02*
X95855000Y-392500D01*
X95055000Y-3512500D02*
X94255000Y-3512500D01*
X95055000Y-3512500D02*
X95855000Y-3512500D01*
X93995000Y-3792500D02*
X93515000Y-3792500D01*
X93755000Y-3462500D01*
X93995000Y-3792500D01*
G36*
X93995000Y-3792500D02*
G01*
X93515000Y-3792500D01*
X93755000Y-3462500D01*
X93995000Y-3792500D01*
G37*
%TO.C,C120*%
X178800000Y-26708265D02*
X178800000Y-27230769D01*
X180270000Y-26708265D02*
X180270000Y-27230769D01*
%TO.C,JP15*%
X104600000Y-46465000D02*
X104600000Y-49265000D01*
X104600000Y-49265000D02*
X106600000Y-49265000D01*
X106600000Y-46465000D02*
X104600000Y-46465000D01*
X106600000Y-49265000D02*
X106600000Y-46465000D01*
%TO.C,C50*%
X79945000Y-21268748D02*
X79945000Y-21791252D01*
X81415000Y-21268748D02*
X81415000Y-21791252D01*
%TO.C,JP7*%
X110160000Y-46160000D02*
X110160000Y-48960000D01*
X110160000Y-48960000D02*
X112160000Y-48960000D01*
X112160000Y-46160000D02*
X110160000Y-46160000D01*
X112160000Y-48960000D02*
X112160000Y-46160000D01*
%TO.C,U7*%
X121589999Y-14230000D02*
X121590000Y-13430000D01*
X121589999Y-14230000D02*
X121590000Y-15030000D01*
X124710001Y-14230000D02*
X124710000Y-13430000D01*
X124710001Y-14230000D02*
X124710000Y-15030000D01*
X124990000Y-15770000D02*
X124660000Y-15530000D01*
X124990000Y-15290000D01*
X124990000Y-15770000D01*
G36*
X124990000Y-15770000D02*
G01*
X124660000Y-15530000D01*
X124990000Y-15290000D01*
X124990000Y-15770000D01*
G37*
%TO.C,U14*%
X157570000Y-15187500D02*
X156770000Y-15187500D01*
X157570000Y-15187500D02*
X158370000Y-15187500D01*
X157570000Y-18307500D02*
X156770000Y-18307500D01*
X157570000Y-18307500D02*
X158370000Y-18307500D01*
X156510000Y-18587500D02*
X156030000Y-18587500D01*
X156270000Y-18257500D01*
X156510000Y-18587500D01*
G36*
X156510000Y-18587500D02*
G01*
X156030000Y-18587500D01*
X156270000Y-18257500D01*
X156510000Y-18587500D01*
G37*
%TO.C,C10*%
X89732836Y-885000D02*
X89517164Y-885000D01*
X89732836Y-1605000D02*
X89517164Y-1605000D01*
%TO.C,JP16*%
X162320000Y-45995000D02*
X162320000Y-48795000D01*
X162320000Y-48795000D02*
X164320000Y-48795000D01*
X164320000Y-45995000D02*
X162320000Y-45995000D01*
X164320000Y-48795000D02*
X164320000Y-45995000D01*
%TO.C,Y16*%
X115455000Y10510000D02*
X119455000Y10510000D01*
X115455000Y7210000D02*
X115455000Y10510000D01*
%TO.C,JP3*%
X112755000Y-46165000D02*
X112755000Y-48965000D01*
X112755000Y-48965000D02*
X114755000Y-48965000D01*
X114755000Y-46165000D02*
X112755000Y-46165000D01*
X114755000Y-48965000D02*
X114755000Y-46165000D01*
%TO.C,R28*%
X82385000Y-32947936D02*
X82385000Y-34402064D01*
X84205000Y-32947936D02*
X84205000Y-34402064D01*
%TO.C,R43*%
X122627500Y-18007258D02*
X122627500Y-17532742D01*
X123672500Y-18007258D02*
X123672500Y-17532742D01*
%TO.C,JP2*%
X143235000Y-45405000D02*
X143235000Y-48205000D01*
X143235000Y-48205000D02*
X145235000Y-48205000D01*
X145235000Y-45405000D02*
X143235000Y-45405000D01*
X145235000Y-48205000D02*
X145235000Y-45405000D01*
%TO.C,R35*%
X153447742Y-17147500D02*
X153922258Y-17147500D01*
X153447742Y-18192500D02*
X153922258Y-18192500D01*
%TO.C,FB14*%
X136422936Y7965000D02*
X136877064Y7965000D01*
X136422936Y6495000D02*
X136877064Y6495000D01*
%TO.C,R63*%
X136217258Y-7727500D02*
X135742742Y-7727500D01*
X136217258Y-8772500D02*
X135742742Y-8772500D01*
%TO.C,JP6*%
X140570000Y-45430000D02*
X140570000Y-48230000D01*
X140570000Y-48230000D02*
X142570000Y-48230000D01*
X142570000Y-45430000D02*
X140570000Y-45430000D01*
X142570000Y-48230000D02*
X142570000Y-45430000D01*
%TO.C,C12*%
X91975000Y9072164D02*
X91975000Y9287836D01*
X92695000Y9072164D02*
X92695000Y9287836D01*
%TO.C,U4*%
X83075000Y8290000D02*
X83075000Y7030000D01*
X83075000Y1470000D02*
X83075000Y2730000D01*
X86835000Y8290000D02*
X83075000Y8290000D01*
X86835000Y1470000D02*
X83075000Y1470000D01*
X88115000Y8190000D02*
X87875000Y8520000D01*
X88355000Y8520000D01*
X88115000Y8190000D01*
G36*
X88115000Y8190000D02*
G01*
X87875000Y8520000D01*
X88355000Y8520000D01*
X88115000Y8190000D01*
G37*
%TO.C,R44*%
X110270000Y-32997936D02*
X110270000Y-34452064D01*
X112090000Y-32997936D02*
X112090000Y-34452064D01*
%TO.C,U16*%
X115599496Y-3145828D02*
X115033811Y-3711514D01*
X115599496Y-3145828D02*
X116165182Y-2580143D01*
X117805670Y-5352002D02*
X117239984Y-5917687D01*
X117805670Y-5352002D02*
X118371355Y-4786316D01*
X117254126Y-6299525D02*
X116914715Y-6638936D01*
X116851075Y-6235885D01*
X117254126Y-6299525D01*
G36*
X117254126Y-6299525D02*
G01*
X116914715Y-6638936D01*
X116851075Y-6235885D01*
X117254126Y-6299525D01*
G37*
%TO.C,TP5*%
X120520000Y8255000D02*
X120520000Y6855000D01*
X120520000Y6855000D02*
X121920000Y6855000D01*
X121920000Y8255000D02*
X120520000Y8255000D01*
X121920000Y6855000D02*
X121920000Y8255000D01*
%TD*%
M02*
